<svg xmlns="http://www.w3.org/2000/svg" viewBox="0 0 750 350" role="img" aria-label="Compression Artifacts">
<title>Compression Artifacts</title><desc>Visual artifacts caused by lossy compression</desc>
<defs><linearGradient id="bg" x1="0%" y1="0%" x2="0%" y2="100%">
<stop offset="0%" style="stop-color:#f8f9fa"/><stop offset="100%" style="stop-color:#e9ecef"/>
</linearGradient></defs><rect width="750" height="350" fill="url(#bg)"/>
<text x="375" y="30" font-family="Segoe UI" font-size="18" font-weight="600" fill="#1a3a6e" text-anchor="middle">JPEG Compression Artifacts</text>
<text x="150" y="65" font-family="Segoe UI" font-size="13" font-weight="600" fill="#1a3a6e" text-anchor="middle">High Q (95)</text>
<rect x="60" y="80" width="180" height="140" fill="#f0f0f0" stroke="#10b981" stroke-width="3"/>
<text x="150" y="240" font-family="Segoe UI" font-size="12" fill="#10b981" text-anchor="middle">Minimal artifacts</text>
<text x="380" y="65" font-family="Segoe UI" font-size="13" font-weight="600" fill="#1a3a6e" text-anchor="middle">Medium Q (50)</text>
<rect x="290" y="80" width="180" height="140" fill="#f0f0f0" stroke="#f97316" stroke-width="3"/>
<rect x="290" y="80" width="20" height="20" fill="#6b7280" opacity="0.1" stroke="#6b7280" stroke-width="0.5"/>
<rect x="310" y="80" width="20" height="20" fill="#6b7280" opacity="0.1" stroke="#6b7280" stroke-width="0.5"/>
<rect x="330" y="80" width="20" height="20" fill="#6b7280" opacity="0.1" stroke="#6b7280" stroke-width="0.5"/>
<rect x="350" y="80" width="20" height="20" fill="#6b7280" opacity="0.1" stroke="#6b7280" stroke-width="0.5"/>
<rect x="370" y="80" width="20" height="20" fill="#6b7280" opacity="0.1" stroke="#6b7280" stroke-width="0.5"/>
<rect x="390" y="80" width="20" height="20" fill="#6b7280" opacity="0.1" stroke="#6b7280" stroke-width="0.5"/>
<rect x="410" y="80" width="20" height="20" fill="#6b7280" opacity="0.1" stroke="#6b7280" stroke-width="0.5"/>
<rect x="430" y="80" width="20" height="20" fill="#6b7280" opacity="0.1" stroke="#6b7280" stroke-width="0.5"/>
<rect x="450" y="80" width="20" height="20" fill="#6b7280" opacity="0.1" stroke="#6b7280" stroke-width="0.5"/>
<rect x="290" y="100" width="20" height="20" fill="#6b7280" opacity="0.1" stroke="#6b7280" stroke-width="0.5"/>
<rect x="310" y="100" width="20" height="20" fill="#6b7280" opacity="0.1" stroke="#6b7280" stroke-width="0.5"/>
<rect x="330" y="100" width="20" height="20" fill="#6b7280" opacity="0.1" stroke="#6b7280" stroke-width="0.5"/>
<rect x="350" y="100" width="20" height="20" fill="#6b7280" opacity="0.1" stroke="#6b7280" stroke-width="0.5"/>
<rect x="370" y="100" width="20" height="20" fill="#6b7280" opacity="0.1" stroke="#6b7280" stroke-width="0.5"/>
<rect x="390" y="100" width="20" height="20" fill="#6b7280" opacity="0.1" stroke="#6b7280" stroke-width="0.5"/>
<rect x="410" y="100" width="20" height="20" fill="#6b7280" opacity="0.1" stroke="#6b7280" stroke-width="0.5"/>
<rect x="430" y="100" width="20" height="20" fill="#6b7280" opacity="0.1" stroke="#6b7280" stroke-width="0.5"/>
<rect x="450" y="100" width="20" height="20" fill="#6b7280" opacity="0.1" stroke="#6b7280" stroke-width="0.5"/>
<rect x="290" y="120" width="20" height="20" fill="#6b7280" opacity="0.1" stroke="#6b7280" stroke-width="0.5"/>
<rect x="310" y="120" width="20" height="20" fill="#6b7280" opacity="0.1" stroke="#6b7280" stroke-width="0.5"/>
<rect x="330" y="120" width="20" height="20" fill="#6b7280" opacity="0.1" stroke="#6b7280" stroke-width="0.5"/>
<rect x="350" y="120" width="20" height="20" fill="#6b7280" opacity="0.1" stroke="#6b7280" stroke-width="0.5"/>
<rect x="370" y="120" width="20" height="20" fill="#6b7280" opacity="0.1" stroke="#6b7280" stroke-width="0.5"/>
<rect x="390" y="120" width="20" height="20" fill="#6b7280" opacity="0.1" stroke="#6b7280" stroke-width="0.5"/>
<rect x="410" y="120" width="20" height="20" fill="#6b7280" opacity="0.1" stroke="#6b7280" stroke-width="0.5"/>
<rect x="430" y="120" width="20" height="20" fill="#6b7280" opacity="0.1" stroke="#6b7280" stroke-width="0.5"/>
<rect x="450" y="120" width="20" height="20" fill="#6b7280" opacity="0.1" stroke="#6b7280" stroke-width="0.5"/>
<rect x="290" y="140" width="20" height="20" fill="#6b7280" opacity="0.1" stroke="#6b7280" stroke-width="0.5"/>
<rect x="310" y="140" width="20" height="20" fill="#6b7280" opacity="0.1" stroke="#6b7280" stroke-width="0.5"/>
<rect x="330" y="140" width="20" height="20" fill="#6b7280" opacity="0.1" stroke="#6b7280" stroke-width="0.5"/>
<rect x="350" y="140" width="20" height="20" fill="#6b7280" opacity="0.1" stroke="#6b7280" stroke-width="0.5"/>
<rect x="370" y="140" width="20" height="20" fill="#6b7280" opacity="0.1" stroke="#6b7280" stroke-width="0.5"/>
<rect x="390" y="140" width="20" height="20" fill="#6b7280" opacity="0.1" stroke="#6b7280" stroke-width="0.5"/>
<rect x="410" y="140" width="20" height="20" fill="#6b7280" opacity="0.1" stroke="#6b7280" stroke-width="0.5"/>
<rect x="430" y="140" width="20" height="20" fill="#6b7280" opacity="0.1" stroke="#6b7280" stroke-width="0.5"/>
<rect x="450" y="140" width="20" height="20" fill="#6b7280" opacity="0.1" stroke="#6b7280" stroke-width="0.5"/>
<rect x="290" y="160" width="20" height="20" fill="#6b7280" opacity="0.1" stroke="#6b7280" stroke-width="0.5"/>
<rect x="310" y="160" width="20" height="20" fill="#6b7280" opacity="0.1" stroke="#6b7280" stroke-width="0.5"/>
<rect x="330" y="160" width="20" height="20" fill="#6b7280" opacity="0.1" stroke="#6b7280" stroke-width="0.5"/>
<rect x="350" y="160" width="20" height="20" fill="#6b7280" opacity="0.1" stroke="#6b7280" stroke-width="0.5"/>
<rect x="370" y="160" width="20" height="20" fill="#6b7280" opacity="0.1" stroke="#6b7280" stroke-width="0.5"/>
<rect x="390" y="160" width="20" height="20" fill="#6b7280" opacity="0.1" stroke="#6b7280" stroke-width="0.5"/>
<rect x="410" y="160" width="20" height="20" fill="#6b7280" opacity="0.1" stroke="#6b7280" stroke-width="0.5"/>
<rect x="430" y="160" width="20" height="20" fill="#6b7280" opacity="0.1" stroke="#6b7280" stroke-width="0.5"/>
<rect x="450" y="160" width="20" height="20" fill="#6b7280" opacity="0.1" stroke="#6b7280" stroke-width="0.5"/>
<rect x="290" y="180" width="20" height="20" fill="#6b7280" opacity="0.1" stroke="#6b7280" stroke-width="0.5"/>
<rect x="310" y="180" width="20" height="20" fill="#6b7280" opacity="0.1" stroke="#6b7280" stroke-width="0.5"/>
<rect x="330" y="180" width="20" height="20" fill="#6b7280" opacity="0.1" stroke="#6b7280" stroke-width="0.5"/>
<rect x="350" y="180" width="20" height="20" fill="#6b7280" opacity="0.1" stroke="#6b7280" stroke-width="0.5"/>
<rect x="370" y="180" width="20" height="20" fill="#6b7280" opacity="0.1" stroke="#6b7280" stroke-width="0.5"/>
<rect x="390" y="180" width="20" height="20" fill="#6b7280" opacity="0.1" stroke="#6b7280" stroke-width="0.5"/>
<rect x="410" y="180" width="20" height="20" fill="#6b7280" opacity="0.1" stroke="#6b7280" stroke-width="0.5"/>
<rect x="430" y="180" width="20" height="20" fill="#6b7280" opacity="0.1" stroke="#6b7280" stroke-width="0.5"/>
<rect x="450" y="180" width="20" height="20" fill="#6b7280" opacity="0.1" stroke="#6b7280" stroke-width="0.5"/>
<rect x="290" y="200" width="20" height="20" fill="#6b7280" opacity="0.1" stroke="#6b7280" stroke-width="0.5"/>
<rect x="310" y="200" width="20" height="20" fill="#6b7280" opacity="0.1" stroke="#6b7280" stroke-width="0.5"/>
<rect x="330" y="200" width="20" height="20" fill="#6b7280" opacity="0.1" stroke="#6b7280" stroke-width="0.5"/>
<rect x="350" y="200" width="20" height="20" fill="#6b7280" opacity="0.1" stroke="#6b7280" stroke-width="0.5"/>
<rect x="370" y="200" width="20" height="20" fill="#6b7280" opacity="0.1" stroke="#6b7280" stroke-width="0.5"/>
<rect x="390" y="200" width="20" height="20" fill="#6b7280" opacity="0.1" stroke="#6b7280" stroke-width="0.5"/>
<rect x="410" y="200" width="20" height="20" fill="#6b7280" opacity="0.1" stroke="#6b7280" stroke-width="0.5"/>
<rect x="430" y="200" width="20" height="20" fill="#6b7280" opacity="0.1" stroke="#6b7280" stroke-width="0.5"/>
<rect x="450" y="200" width="20" height="20" fill="#6b7280" opacity="0.1" stroke="#6b7280" stroke-width="0.5"/>
<text x="380" y="240" font-family="Segoe UI" font-size="12" fill="#f97316" text-anchor="middle">Noticeable artifacts</text>
<text x="610" y="65" font-family="Segoe UI" font-size="13" font-weight="600" fill="#1a3a6e" text-anchor="middle">Low Q (10)</text>
<rect x="520" y="80" width="180" height="140" fill="#f0f0f0" stroke="#ef4444" stroke-width="3"/>
<rect x="520" y="80" width="30" height="30" fill="#6b7280" opacity="0.2" stroke="#6b7280" stroke-width="0.5"/>
<rect x="550" y="80" width="30" height="30" fill="#6b7280" opacity="0.2" stroke="#6b7280" stroke-width="0.5"/>
<rect x="580" y="80" width="30" height="30" fill="#6b7280" opacity="0.2" stroke="#6b7280" stroke-width="0.5"/>
<rect x="610" y="80" width="30" height="30" fill="#6b7280" opacity="0.2" stroke="#6b7280" stroke-width="0.5"/>
<rect x="640" y="80" width="30" height="30" fill="#6b7280" opacity="0.2" stroke="#6b7280" stroke-width="0.5"/>
<rect x="670" y="80" width="30" height="30" fill="#6b7280" opacity="0.2" stroke="#6b7280" stroke-width="0.5"/>
<rect x="520" y="110" width="30" height="30" fill="#6b7280" opacity="0.2" stroke="#6b7280" stroke-width="0.5"/>
<rect x="550" y="110" width="30" height="30" fill="#6b7280" opacity="0.2" stroke="#6b7280" stroke-width="0.5"/>
<rect x="580" y="110" width="30" height="30" fill="#6b7280" opacity="0.2" stroke="#6b7280" stroke-width="0.5"/>
<rect x="610" y="110" width="30" height="30" fill="#6b7280" opacity="0.2" stroke="#6b7280" stroke-width="0.5"/>
<rect x="640" y="110" width="30" height="30" fill="#6b7280" opacity="0.2" stroke="#6b7280" stroke-width="0.5"/>
<rect x="670" y="110" width="30" height="30" fill="#6b7280" opacity="0.2" stroke="#6b7280" stroke-width="0.5"/>
<rect x="520" y="140" width="30" height="30" fill="#6b7280" opacity="0.2" stroke="#6b7280" stroke-width="0.5"/>
<rect x="550" y="140" width="30" height="30" fill="#6b7280" opacity="0.2" stroke="#6b7280" stroke-width="0.5"/>
<rect x="580" y="140" width="30" height="30" fill="#6b7280" opacity="0.2" stroke="#6b7280" stroke-width="0.5"/>
<rect x="610" y="140" width="30" height="30" fill="#6b7280" opacity="0.2" stroke="#6b7280" stroke-width="0.5"/>
<rect x="640" y="140" width="30" height="30" fill="#6b7280" opacity="0.2" stroke="#6b7280" stroke-width="0.5"/>
<rect x="670" y="140" width="30" height="30" fill="#6b7280" opacity="0.2" stroke="#6b7280" stroke-width="0.5"/>
<rect x="520" y="170" width="30" height="30" fill="#6b7280" opacity="0.2" stroke="#6b7280" stroke-width="0.5"/>
<rect x="550" y="170" width="30" height="30" fill="#6b7280" opacity="0.2" stroke="#6b7280" stroke-width="0.5"/>
<rect x="580" y="170" width="30" height="30" fill="#6b7280" opacity="0.2" stroke="#6b7280" stroke-width="0.5"/>
<rect x="610" y="170" width="30" height="30" fill="#6b7280" opacity="0.2" stroke="#6b7280" stroke-width="0.5"/>
<rect x="640" y="170" width="30" height="30" fill="#6b7280" opacity="0.2" stroke="#6b7280" stroke-width="0.5"/>
<rect x="670" y="170" width="30" height="30" fill="#6b7280" opacity="0.2" stroke="#6b7280" stroke-width="0.5"/>
<rect x="520" y="200" width="30" height="30" fill="#6b7280" opacity="0.2" stroke="#6b7280" stroke-width="0.5"/>
<rect x="550" y="200" width="30" height="30" fill="#6b7280" opacity="0.2" stroke="#6b7280" stroke-width="0.5"/>
<rect x="580" y="200" width="30" height="30" fill="#6b7280" opacity="0.2" stroke="#6b7280" stroke-width="0.5"/>
<rect x="610" y="200" width="30" height="30" fill="#6b7280" opacity="0.2" stroke="#6b7280" stroke-width="0.5"/>
<rect x="640" y="200" width="30" height="30" fill="#6b7280" opacity="0.2" stroke="#6b7280" stroke-width="0.5"/>
<rect x="670" y="200" width="30" height="30" fill="#6b7280" opacity="0.2" stroke="#6b7280" stroke-width="0.5"/>
<text x="610" y="240" font-family="Segoe UI" font-size="12" fill="#ef4444" text-anchor="middle">Severe artifacts</text>
<rect x="100" y="270" width="550" height="65" rx="8" fill="#ffffff" stroke="#7eb8da" stroke-width="2"/>
<text x="375" y="295" font-family="Segoe UI" font-size="12" font-weight="600" fill="#1a3a6e" text-anchor="middle">Common JPEG Artifacts</text>
<text x="375" y="320" font-family="Segoe UI" font-size="11" fill="#1f2937" text-anchor="middle">Blocking (8×8 grid visible) • Ringing (halos around edges) • Color banding • Mosquito noise</text>
</svg>