<svg xmlns="http://www.w3.org/2000/svg" viewBox="0 0 750 350" role="img" aria-label="Raster vs Vector">
<title>Raster vs Vector</title><desc>Comparison of raster and vector image types</desc>
<defs><linearGradient id="bg" x1="0%" y1="0%" x2="0%" y2="100%">
<stop offset="0%" style="stop-color:#f8f9fa"/><stop offset="100%" style="stop-color:#e9ecef"/>
</linearGradient></defs><rect width="750" height="350" fill="url(#bg)"/>
<text x="375" y="30" font-family="Segoe UI" font-size="18" font-weight="600" fill="#1a3a6e" text-anchor="middle">Raster vs. Vector Images</text>
<rect x="50" y="60" width="300" height="220" rx="8" fill="#f9731611" stroke="#f97316" stroke-width="2"/>
<text x="200" y="90" font-family="Segoe UI" font-size="15" font-weight="600" fill="#f97316" text-anchor="middle">Raster (Bitmap)</text>
<rect x="80" y="110" width="25" height="18" fill="rgb(100,100,100)" stroke="#6b7280" stroke-width="0.3"/>
<rect x="105" y="110" width="25" height="18" fill="rgb(150,150,150)" stroke="#6b7280" stroke-width="0.3"/>
<rect x="130" y="110" width="25" height="18" fill="rgb(200,200,200)" stroke="#6b7280" stroke-width="0.3"/>
<rect x="155" y="110" width="25" height="18" fill="rgb(100,100,100)" stroke="#6b7280" stroke-width="0.3"/>
<rect x="180" y="110" width="25" height="18" fill="rgb(150,150,150)" stroke="#6b7280" stroke-width="0.3"/>
<rect x="205" y="110" width="25" height="18" fill="rgb(200,200,200)" stroke="#6b7280" stroke-width="0.3"/>
<rect x="230" y="110" width="25" height="18" fill="rgb(100,100,100)" stroke="#6b7280" stroke-width="0.3"/>
<rect x="255" y="110" width="25" height="18" fill="rgb(150,150,150)" stroke="#6b7280" stroke-width="0.3"/>
<rect x="80" y="128" width="25" height="18" fill="rgb(150,150,150)" stroke="#6b7280" stroke-width="0.3"/>
<rect x="105" y="128" width="25" height="18" fill="rgb(200,200,200)" stroke="#6b7280" stroke-width="0.3"/>
<rect x="130" y="128" width="25" height="18" fill="rgb(100,100,100)" stroke="#6b7280" stroke-width="0.3"/>
<rect x="155" y="128" width="25" height="18" fill="rgb(150,150,150)" stroke="#6b7280" stroke-width="0.3"/>
<rect x="180" y="128" width="25" height="18" fill="rgb(200,200,200)" stroke="#6b7280" stroke-width="0.3"/>
<rect x="205" y="128" width="25" height="18" fill="rgb(100,100,100)" stroke="#6b7280" stroke-width="0.3"/>
<rect x="230" y="128" width="25" height="18" fill="rgb(150,150,150)" stroke="#6b7280" stroke-width="0.3"/>
<rect x="255" y="128" width="25" height="18" fill="rgb(200,200,200)" stroke="#6b7280" stroke-width="0.3"/>
<rect x="80" y="146" width="25" height="18" fill="rgb(200,200,200)" stroke="#6b7280" stroke-width="0.3"/>
<rect x="105" y="146" width="25" height="18" fill="rgb(100,100,100)" stroke="#6b7280" stroke-width="0.3"/>
<rect x="130" y="146" width="25" height="18" fill="rgb(150,150,150)" stroke="#6b7280" stroke-width="0.3"/>
<rect x="155" y="146" width="25" height="18" fill="rgb(200,200,200)" stroke="#6b7280" stroke-width="0.3"/>
<rect x="180" y="146" width="25" height="18" fill="rgb(100,100,100)" stroke="#6b7280" stroke-width="0.3"/>
<rect x="205" y="146" width="25" height="18" fill="rgb(150,150,150)" stroke="#6b7280" stroke-width="0.3"/>
<rect x="230" y="146" width="25" height="18" fill="rgb(200,200,200)" stroke="#6b7280" stroke-width="0.3"/>
<rect x="255" y="146" width="25" height="18" fill="rgb(100,100,100)" stroke="#6b7280" stroke-width="0.3"/>
<rect x="80" y="164" width="25" height="18" fill="rgb(100,100,100)" stroke="#6b7280" stroke-width="0.3"/>
<rect x="105" y="164" width="25" height="18" fill="rgb(150,150,150)" stroke="#6b7280" stroke-width="0.3"/>
<rect x="130" y="164" width="25" height="18" fill="rgb(200,200,200)" stroke="#6b7280" stroke-width="0.3"/>
<rect x="155" y="164" width="25" height="18" fill="rgb(100,100,100)" stroke="#6b7280" stroke-width="0.3"/>
<rect x="180" y="164" width="25" height="18" fill="rgb(150,150,150)" stroke="#6b7280" stroke-width="0.3"/>
<rect x="205" y="164" width="25" height="18" fill="rgb(200,200,200)" stroke="#6b7280" stroke-width="0.3"/>
<rect x="230" y="164" width="25" height="18" fill="rgb(100,100,100)" stroke="#6b7280" stroke-width="0.3"/>
<rect x="255" y="164" width="25" height="18" fill="rgb(150,150,150)" stroke="#6b7280" stroke-width="0.3"/>
<rect x="80" y="182" width="25" height="18" fill="rgb(150,150,150)" stroke="#6b7280" stroke-width="0.3"/>
<rect x="105" y="182" width="25" height="18" fill="rgb(200,200,200)" stroke="#6b7280" stroke-width="0.3"/>
<rect x="130" y="182" width="25" height="18" fill="rgb(100,100,100)" stroke="#6b7280" stroke-width="0.3"/>
<rect x="155" y="182" width="25" height="18" fill="rgb(150,150,150)" stroke="#6b7280" stroke-width="0.3"/>
<rect x="180" y="182" width="25" height="18" fill="rgb(200,200,200)" stroke="#6b7280" stroke-width="0.3"/>
<rect x="205" y="182" width="25" height="18" fill="rgb(100,100,100)" stroke="#6b7280" stroke-width="0.3"/>
<rect x="230" y="182" width="25" height="18" fill="rgb(150,150,150)" stroke="#6b7280" stroke-width="0.3"/>
<rect x="255" y="182" width="25" height="18" fill="rgb(200,200,200)" stroke="#6b7280" stroke-width="0.3"/>
<rect x="80" y="200" width="25" height="18" fill="rgb(200,200,200)" stroke="#6b7280" stroke-width="0.3"/>
<rect x="105" y="200" width="25" height="18" fill="rgb(100,100,100)" stroke="#6b7280" stroke-width="0.3"/>
<rect x="130" y="200" width="25" height="18" fill="rgb(150,150,150)" stroke="#6b7280" stroke-width="0.3"/>
<rect x="155" y="200" width="25" height="18" fill="rgb(200,200,200)" stroke="#6b7280" stroke-width="0.3"/>
<rect x="180" y="200" width="25" height="18" fill="rgb(100,100,100)" stroke="#6b7280" stroke-width="0.3"/>
<rect x="205" y="200" width="25" height="18" fill="rgb(150,150,150)" stroke="#6b7280" stroke-width="0.3"/>
<rect x="230" y="200" width="25" height="18" fill="rgb(200,200,200)" stroke="#6b7280" stroke-width="0.3"/>
<rect x="255" y="200" width="25" height="18" fill="rgb(100,100,100)" stroke="#6b7280" stroke-width="0.3"/>
<rect x="80" y="218" width="25" height="18" fill="rgb(100,100,100)" stroke="#6b7280" stroke-width="0.3"/>
<rect x="105" y="218" width="25" height="18" fill="rgb(150,150,150)" stroke="#6b7280" stroke-width="0.3"/>
<rect x="130" y="218" width="25" height="18" fill="rgb(200,200,200)" stroke="#6b7280" stroke-width="0.3"/>
<rect x="155" y="218" width="25" height="18" fill="rgb(100,100,100)" stroke="#6b7280" stroke-width="0.3"/>
<rect x="180" y="218" width="25" height="18" fill="rgb(150,150,150)" stroke="#6b7280" stroke-width="0.3"/>
<rect x="205" y="218" width="25" height="18" fill="rgb(200,200,200)" stroke="#6b7280" stroke-width="0.3"/>
<rect x="230" y="218" width="25" height="18" fill="rgb(100,100,100)" stroke="#6b7280" stroke-width="0.3"/>
<rect x="255" y="218" width="25" height="18" fill="rgb(150,150,150)" stroke="#6b7280" stroke-width="0.3"/>
<rect x="80" y="236" width="25" height="18" fill="rgb(150,150,150)" stroke="#6b7280" stroke-width="0.3"/>
<rect x="105" y="236" width="25" height="18" fill="rgb(200,200,200)" stroke="#6b7280" stroke-width="0.3"/>
<rect x="130" y="236" width="25" height="18" fill="rgb(100,100,100)" stroke="#6b7280" stroke-width="0.3"/>
<rect x="155" y="236" width="25" height="18" fill="rgb(150,150,150)" stroke="#6b7280" stroke-width="0.3"/>
<rect x="180" y="236" width="25" height="18" fill="rgb(200,200,200)" stroke="#6b7280" stroke-width="0.3"/>
<rect x="205" y="236" width="25" height="18" fill="rgb(100,100,100)" stroke="#6b7280" stroke-width="0.3"/>
<rect x="230" y="236" width="25" height="18" fill="rgb(150,150,150)" stroke="#6b7280" stroke-width="0.3"/>
<rect x="255" y="236" width="25" height="18" fill="rgb(200,200,200)" stroke="#6b7280" stroke-width="0.3"/>
<text x="200" y="275" font-family="Segoe UI" font-size="10" fill="#1f2937" text-anchor="middle">Pixels • Fixed resolution • Photos</text>
<rect x="400" y="60" width="300" height="220" rx="8" fill="#10b98111" stroke="#10b981" stroke-width="2"/>
<text x="550" y="90" font-family="Segoe UI" font-size="15" font-weight="600" fill="#10b981" text-anchor="middle">Vector</text>
<circle cx="470" cy="170" r="30" fill="#3b82f6" opacity="0.5"/>
<rect x="510" y="140" width="50" height="50" fill="#8b5cf6" opacity="0.5"/>
<polygon points="600,200 630,140 660,200" fill="#f97316" opacity="0.5"/>
<text x="550" y="275" font-family="Segoe UI" font-size="10" fill="#1f2937" text-anchor="middle">Math shapes • Scalable • Logos, icons</text>
<rect x="150" y="295" width="450" height="45" rx="8" fill="#f3f4f6" stroke="#7eb8da" stroke-width="2"/>
<text x="375" y="320" font-family="Segoe UI" font-size="11" fill="#1f2937" text-anchor="middle">Raster: loses quality when enlarged | Vector: scales infinitely without quality loss</text>
</svg>