<svg xmlns="http://www.w3.org/2000/svg" viewBox="0 0 750 350" role="img" aria-label="Image Types">
<title>Image Types</title><desc>Comparison of binary, grayscale, and color images</desc>
<defs><linearGradient id="bg" x1="0%" y1="0%" x2="0%" y2="100%">
<stop offset="0%" style="stop-color:#f8f9fa"/><stop offset="100%" style="stop-color:#e9ecef"/>
</linearGradient></defs><rect width="750" height="350" fill="url(#bg)"/>
<text x="375" y="30" font-family="Segoe UI" font-size="18" font-weight="600" fill="#1a3a6e" text-anchor="middle">Image Types Comparison</text>
<text x="140" y="60" font-family="Segoe UI" font-size="14" font-weight="600" fill="#1a3a6e" text-anchor="middle">Binary</text>
<rect x="50" y="80" width="30" height="25" fill="#fff" stroke="#6b7280" stroke-width="0.5"/>
<rect x="80" y="80" width="30" height="25" fill="#000" stroke="#6b7280" stroke-width="0.5"/>
<rect x="110" y="80" width="30" height="25" fill="#fff" stroke="#6b7280" stroke-width="0.5"/>
<rect x="140" y="80" width="30" height="25" fill="#000" stroke="#6b7280" stroke-width="0.5"/>
<rect x="170" y="80" width="30" height="25" fill="#fff" stroke="#6b7280" stroke-width="0.5"/>
<rect x="200" y="80" width="30" height="25" fill="#000" stroke="#6b7280" stroke-width="0.5"/>
<rect x="50" y="105" width="30" height="25" fill="#000" stroke="#6b7280" stroke-width="0.5"/>
<rect x="80" y="105" width="30" height="25" fill="#fff" stroke="#6b7280" stroke-width="0.5"/>
<rect x="110" y="105" width="30" height="25" fill="#000" stroke="#6b7280" stroke-width="0.5"/>
<rect x="140" y="105" width="30" height="25" fill="#fff" stroke="#6b7280" stroke-width="0.5"/>
<rect x="170" y="105" width="30" height="25" fill="#000" stroke="#6b7280" stroke-width="0.5"/>
<rect x="200" y="105" width="30" height="25" fill="#fff" stroke="#6b7280" stroke-width="0.5"/>
<rect x="50" y="130" width="30" height="25" fill="#fff" stroke="#6b7280" stroke-width="0.5"/>
<rect x="80" y="130" width="30" height="25" fill="#000" stroke="#6b7280" stroke-width="0.5"/>
<rect x="110" y="130" width="30" height="25" fill="#fff" stroke="#6b7280" stroke-width="0.5"/>
<rect x="140" y="130" width="30" height="25" fill="#000" stroke="#6b7280" stroke-width="0.5"/>
<rect x="170" y="130" width="30" height="25" fill="#fff" stroke="#6b7280" stroke-width="0.5"/>
<rect x="200" y="130" width="30" height="25" fill="#000" stroke="#6b7280" stroke-width="0.5"/>
<rect x="50" y="155" width="30" height="25" fill="#000" stroke="#6b7280" stroke-width="0.5"/>
<rect x="80" y="155" width="30" height="25" fill="#fff" stroke="#6b7280" stroke-width="0.5"/>
<rect x="110" y="155" width="30" height="25" fill="#000" stroke="#6b7280" stroke-width="0.5"/>
<rect x="140" y="155" width="30" height="25" fill="#fff" stroke="#6b7280" stroke-width="0.5"/>
<rect x="170" y="155" width="30" height="25" fill="#000" stroke="#6b7280" stroke-width="0.5"/>
<rect x="200" y="155" width="30" height="25" fill="#fff" stroke="#6b7280" stroke-width="0.5"/>
<rect x="50" y="180" width="30" height="25" fill="#fff" stroke="#6b7280" stroke-width="0.5"/>
<rect x="80" y="180" width="30" height="25" fill="#000" stroke="#6b7280" stroke-width="0.5"/>
<rect x="110" y="180" width="30" height="25" fill="#fff" stroke="#6b7280" stroke-width="0.5"/>
<rect x="140" y="180" width="30" height="25" fill="#000" stroke="#6b7280" stroke-width="0.5"/>
<rect x="170" y="180" width="30" height="25" fill="#fff" stroke="#6b7280" stroke-width="0.5"/>
<rect x="200" y="180" width="30" height="25" fill="#000" stroke="#6b7280" stroke-width="0.5"/>
<rect x="50" y="205" width="30" height="25" fill="#000" stroke="#6b7280" stroke-width="0.5"/>
<rect x="80" y="205" width="30" height="25" fill="#fff" stroke="#6b7280" stroke-width="0.5"/>
<rect x="110" y="205" width="30" height="25" fill="#000" stroke="#6b7280" stroke-width="0.5"/>
<rect x="140" y="205" width="30" height="25" fill="#fff" stroke="#6b7280" stroke-width="0.5"/>
<rect x="170" y="205" width="30" height="25" fill="#000" stroke="#6b7280" stroke-width="0.5"/>
<rect x="200" y="205" width="30" height="25" fill="#fff" stroke="#6b7280" stroke-width="0.5"/>
<rect x="50" y="80" width="180" height="150" fill="none" stroke="#1a3a6e" stroke-width="2"/>
<text x="140" y="255" font-family="Segoe UI" font-size="11" fill="#1f2937" text-anchor="middle">1 bit/pixel | 2 values</text>
<text x="140" y="275" font-family="Segoe UI" font-size="10" fill="#6b7280" text-anchor="middle">Documents, masks</text>
<text x="380" y="60" font-family="Segoe UI" font-size="14" font-weight="600" fill="#1a3a6e" text-anchor="middle">Grayscale</text>
<defs><linearGradient id="gs" x1="0%" y1="0%" x2="100%" y2="100%"><stop offset="0%" style="stop-color:#333"/><stop offset="100%" style="stop-color:#ccc"/></linearGradient></defs>
<rect x="290" y="80" width="180" height="150" fill="url(#gs)"/>
<rect x="290" y="80" width="180" height="150" fill="none" stroke="#1a3a6e" stroke-width="2"/>
<text x="380" y="255" font-family="Segoe UI" font-size="11" fill="#1f2937" text-anchor="middle">8 bits/pixel | 256 values</text>
<text x="380" y="275" font-family="Segoe UI" font-size="10" fill="#6b7280" text-anchor="middle">Medical, scientific</text>
<text x="620" y="60" font-family="Segoe UI" font-size="14" font-weight="600" fill="#1a3a6e" text-anchor="middle">Color (RGB)</text>
<defs><linearGradient id="rgb" x1="0%" y1="0%" x2="100%" y2="100%"><stop offset="0%" style="stop-color:#ff6b6b"/><stop offset="33%" style="stop-color:#4ecdc4"/><stop offset="66%" style="stop-color:#45b7d1"/><stop offset="100%" style="stop-color:#f9ca24"/></linearGradient></defs>
<rect x="530" y="80" width="180" height="150" fill="url(#rgb)"/>
<rect x="530" y="80" width="180" height="150" fill="none" stroke="#1a3a6e" stroke-width="2"/>
<text x="620" y="255" font-family="Segoe UI" font-size="11" fill="#1f2937" text-anchor="middle">24 bits/pixel | 16.7M values</text>
<text x="620" y="275" font-family="Segoe UI" font-size="10" fill="#6b7280" text-anchor="middle">Photography, video</text>
</svg>