<svg viewBox="0 0 1300 280" xmlns="http://www.w3.org/2000/svg" style="width: 100%; max-width: 1200px; height: auto;">
    <defs>
        <style>
            .input-node { fill: #FFE0E0; stroke: #C62828; stroke-width: 2; }
            .bias-node { fill: #FFF9C4; stroke: #F57F17; stroke-width: 2; }
            .operation-box { fill: #E3F2FD; stroke: #1976D2; stroke-width: 2; }
            .intermediate-node { fill: #E8F5E9; stroke: #2D6A4F; stroke-width: 2; }
            .output-node { fill: #E8F5E9; stroke: #2D6A4F; stroke-width: 2; }
            .loss-box { fill: #E3F2FD; stroke: #1976D2; stroke-width: 2; }
            .forward-arrow { stroke: #0047B2; stroke-width: 2; fill: none; }
            .backward-arrow { stroke: #D32F2F; stroke-width: 2; stroke-dasharray: 5,5; fill: none; }
            .label { font-family: Arial, sans-serif; font-size: 12px; fill: #333; }
            .grad-label { font-family: Arial, sans-serif; font-size: 10px; fill: #D32F2F; font-weight: bold; }
        </style>
    </defs>

    <!-- Input Nodes -->
    <circle cx="60" cy="100" r="18" class="input-node"/>
    <text x="60" y="107" text-anchor="middle" fill="#C62828" font-size="14" font-weight="bold">x</text>
    <text x="60" y="135" text-anchor="middle" class="label" font-size="11">input</text>

    <circle cx="60" cy="200" r="18" class="input-node"/>
    <text x="60" y="207" text-anchor="middle" fill="#C62828" font-size="14" font-weight="bold">w</text>
    <text x="60" y="228" text-anchor="middle" class="label" font-size="11">weight</text>

    <circle cx="200" cy="200" r="18" class="bias-node"/>
    <text x="200" y="207" text-anchor="middle" fill="#F57F17" font-size="14" font-weight="bold">b</text>
    <text x="200" y="228" text-anchor="middle" class="label" font-size="11">bias</text>

    <!-- Operation 1: Multiplication -->
    <line x1="78" y1="100" x2="270" y2="140" class="forward-arrow"/>
    <line x1="78" y1="200" x2="270" y2="140" class="forward-arrow"/>
    <rect x="270" y="120" width="50" height="40" rx="5" class="operation-box"/>
    <text x="295" y="145" text-anchor="middle" fill="#1976D2" font-size="20" font-weight="bold">×</text>
    <line x1="320" y1="140" x2="370" y2="140" class="forward-arrow"/>
    <text x="340" y="130" class="label" font-size="11">z₁=wx</text>

    <!-- z1 Intermediate Node -->
    <circle cx="390" cy="140" r="16" class="intermediate-node"/>
    <text x="390" y="147" text-anchor="middle" fill="#2D6A4F" font-size="13" font-weight="bold">z₁</text>

    <!-- Operation 2: Addition -->
    <line x1="406" y1="140" x2="460" y2="140" class="forward-arrow"/>
    <line x1="218" y1="200" x2="460" y2="160" class="forward-arrow"/>
    <rect x="460" y="120" width="50" height="40" rx="5" class="operation-box"/>
    <text x="485" y="145" text-anchor="middle" fill="#1976D2" font-size="20" font-weight="bold">+</text>
    <line x1="510" y1="140" x2="560" y2="140" class="forward-arrow"/>
    <text x="530" y="130" class="label" font-size="11">z₂=z₁+b</text>

    <!-- z2 Intermediate Node -->
    <circle cx="580" cy="140" r="16" class="intermediate-node"/>
    <text x="580" y="147" text-anchor="middle" fill="#2D6A4F" font-size="13" font-weight="bold">z₂</text>

    <!-- Operation 3: Activation -->
    <line x1="596" y1="140" x2="650" y2="140" class="forward-arrow"/>
    <rect x="650" y="120" width="50" height="40" rx="5" class="operation-box"/>
    <text x="675" y="145" text-anchor="middle" fill="#1976D2" font-size="20" font-weight="bold">σ</text>
    <line x1="700" y1="140" x2="750" y2="140" class="forward-arrow"/>
    <text x="720" y="130" class="label" font-size="11">y=σ(z₂)</text>

    <!-- Output Node y -->
    <circle cx="770" cy="140" r="16" class="output-node"/>
    <text x="770" y="147" text-anchor="middle" fill="#2D6A4F" font-size="13" font-weight="bold">y</text>

    <!-- Loss Function -->
    <line x1="786" y1="140" x2="840" y2="140" class="forward-arrow"/>
    <rect x="840" y="120" width="50" height="40" rx="5" class="loss-box"/>
    <text x="865" y="145" text-anchor="middle" fill="#1976D2" font-size="18" font-weight="bold">L</text>

    <!-- BACKWARD PASS (Gradients) -->
    <!-- Backward arrows (dashed red) -->
    <path d="M 880 130 Q 860 80 800 80" class="backward-arrow"/>
    <path d="M 730 130 Q 710 80 650 80" class="backward-arrow"/>
    <path d="M 640 130 Q 620 80 560 80" class="backward-arrow"/>
    <path d="M 550 130 Q 530 80 460 80" class="backward-arrow"/>
    <path d="M 510 130 Q 480 80 390 80" class="backward-arrow"/>
    <path d="M 370 150 Q 350 220 280 220" class="backward-arrow"/>
    <path d="M 290 150 Q 270 220 180 220" class="backward-arrow"/>

    <!-- Gradient labels -->
    <text x="850" y="65" class="grad-label">∂L/∂y</text>
    <text x="710" y="65" class="grad-label">∂L/∂z₂</text>
    <text x="560" y="65" class="grad-label">∂L/∂z₁</text>
    <text x="430" y="65" class="grad-label">∂L/∂w</text>
    <text x="350" y="65" class="grad-label">∂L/∂x</text>
    <text x="250" y="240" class="grad-label">∂L/∂b</text>

    <!-- Legend -->
    <rect x="50" y="250" width="1100" height="25" rx="4" fill="#FAFAFA" stroke="#DDD" stroke-width="1"/>
    <text x="70" y="267" font-weight="bold" font-size="11" fill="#333">Forward Pass:</text>
    <line x1="190" x2="220" y1="262" y2="262" class="forward-arrow"/>
    <text x="230" y="267" font-size="10" fill="#666">solid blue arrows</text>
    <text x="500" y="267" font-weight="bold" font-size="11" fill="#D32F2F">Backward Pass (Gradients):</text>
    <line x1="680" x2="710" y1="262" y2="262" class="backward-arrow"/>
    <text x="720" y="267" font-size="10" fill="#666">dashed red arrows</text>
</svg>