<svg xmlns="http://www.w3.org/2000/svg" viewBox="0 0 850 400" role="img" aria-label="Examples of images generated by generative models">
  <title>Generation Examples</title>
  <desc>Grid showing examples of generated images from various generative models including faces, objects, and scenes</desc>

  <defs>
    <linearGradient id="genExBg" x1="0%" y1="0%" x2="0%" y2="100%">
      <stop offset="0%" style="stop-color:#f8f9fa"/>
      <stop offset="100%" style="stop-color:#e9ecef"/>
    </linearGradient>
  </defs>

  <rect width="850" height="400" fill="url(#genExBg)" rx="8"/>

  <!-- Title -->
  <text x="425" y="32" fill="#1a3a6e" font-family="Segoe UI, sans-serif" font-size="20" font-weight="600" text-anchor="middle">Generated Image Examples</text>

  <!-- VAE examples -->
  <g transform="translate(30, 55)">
    <rect x="0" y="0" width="255" height="165" fill="white" rx="8" stroke="#7c3aed" stroke-width="2"/>
    <text x="127" y="22" fill="#7c3aed" font-family="Segoe UI, sans-serif" font-size="12" font-weight="600" text-anchor="middle">VAE Generated</text>

    <g transform="translate(15, 35)">
      <!-- Grid of blurry faces -->
      <g transform="translate(0, 0)">
        <rect x="0" y="0" width="50" height="50" fill="#f5f3ff" rx="4"/>
        <ellipse cx="25" cy="25" rx="18" ry="20" fill="#fcd34d" opacity="0.7"/>
        <circle cx="20" cy="22" r="3" fill="#666" opacity="0.8"/>
        <circle cx="30" cy="22" r="3" fill="#666" opacity="0.8"/>
        <ellipse cx="25" cy="32" rx="6" ry="3" fill="#e07d7d" opacity="0.6"/>
      </g>
      <g transform="translate(60, 0)">
        <rect x="0" y="0" width="50" height="50" fill="#f5f3ff" rx="4"/>
        <ellipse cx="25" cy="25" rx="18" ry="20" fill="#d4a574" opacity="0.7"/>
        <circle cx="20" cy="22" r="3" fill="#666" opacity="0.8"/>
        <circle cx="30" cy="22" r="3" fill="#666" opacity="0.8"/>
        <ellipse cx="25" cy="32" rx="6" ry="3" fill="#e07d7d" opacity="0.6"/>
      </g>
      <g transform="translate(120, 0)">
        <rect x="0" y="0" width="50" height="50" fill="#f5f3ff" rx="4"/>
        <ellipse cx="25" cy="25" rx="18" ry="20" fill="#ffe4c4" opacity="0.7"/>
        <circle cx="20" cy="22" r="3" fill="#666" opacity="0.8"/>
        <circle cx="30" cy="22" r="3" fill="#666" opacity="0.8"/>
        <ellipse cx="25" cy="32" rx="6" ry="3" fill="#e07d7d" opacity="0.6"/>
      </g>
      <g transform="translate(180, 0)">
        <rect x="0" y="0" width="50" height="50" fill="#f5f3ff" rx="4"/>
        <ellipse cx="25" cy="25" rx="18" ry="20" fill="#8b6914" opacity="0.7"/>
        <circle cx="20" cy="22" r="3" fill="#666" opacity="0.8"/>
        <circle cx="30" cy="22" r="3" fill="#666" opacity="0.8"/>
        <ellipse cx="25" cy="32" rx="6" ry="3" fill="#e07d7d" opacity="0.6"/>
      </g>

      <!-- Second row -->
      <g transform="translate(0, 60)">
        <rect x="0" y="0" width="50" height="50" fill="#f5f3ff" rx="4"/>
        <ellipse cx="25" cy="25" rx="18" ry="20" fill="#fcd34d" opacity="0.7"/>
        <circle cx="20" cy="22" r="3" fill="#666" opacity="0.8"/>
        <circle cx="30" cy="22" r="3" fill="#666" opacity="0.8"/>
      </g>
      <g transform="translate(60, 60)">
        <rect x="0" y="0" width="50" height="50" fill="#f5f3ff" rx="4"/>
        <ellipse cx="25" cy="25" rx="18" ry="20" fill="#d4a574" opacity="0.7"/>
        <circle cx="20" cy="22" r="3" fill="#666" opacity="0.8"/>
        <circle cx="30" cy="22" r="3" fill="#666" opacity="0.8"/>
      </g>
      <g transform="translate(120, 60)">
        <rect x="0" y="0" width="50" height="50" fill="#f5f3ff" rx="4"/>
        <ellipse cx="25" cy="25" rx="18" ry="20" fill="#ffe4c4" opacity="0.7"/>
        <circle cx="20" cy="22" r="3" fill="#666" opacity="0.8"/>
        <circle cx="30" cy="22" r="3" fill="#666" opacity="0.8"/>
      </g>
      <g transform="translate(180, 60)">
        <rect x="0" y="0" width="50" height="50" fill="#f5f3ff" rx="4"/>
        <ellipse cx="25" cy="25" rx="18" ry="20" fill="#fcd34d" opacity="0.7"/>
        <circle cx="20" cy="22" r="3" fill="#666" opacity="0.8"/>
        <circle cx="30" cy="22" r="3" fill="#666" opacity="0.8"/>
      </g>
    </g>

    <text x="127" y="155" fill="#666" font-family="Segoe UI, sans-serif" font-size="9" text-anchor="middle">Diverse but slightly blurry</text>
  </g>

  <!-- GAN examples -->
  <g transform="translate(300, 55)">
    <rect x="0" y="0" width="255" height="165" fill="white" rx="8" stroke="#10b981" stroke-width="2"/>
    <text x="127" y="22" fill="#10b981" font-family="Segoe UI, sans-serif" font-size="12" font-weight="600" text-anchor="middle">GAN Generated</text>

    <g transform="translate(15, 35)">
      <!-- Grid of sharp faces -->
      <g transform="translate(0, 0)">
        <rect x="0" y="0" width="50" height="50" fill="#d1fae5" rx="4"/>
        <ellipse cx="25" cy="25" rx="18" ry="20" fill="#fcd34d"/>
        <circle cx="20" cy="22" r="3" fill="#333"/>
        <circle cx="30" cy="22" r="3" fill="#333"/>
        <path d="M20,33 Q25,38 30,33" fill="none" stroke="#333" stroke-width="1.5"/>
      </g>
      <g transform="translate(60, 0)">
        <rect x="0" y="0" width="50" height="50" fill="#d1fae5" rx="4"/>
        <ellipse cx="25" cy="25" rx="18" ry="20" fill="#d4a574"/>
        <circle cx="20" cy="22" r="3" fill="#333"/>
        <circle cx="30" cy="22" r="3" fill="#333"/>
        <path d="M20,33 Q25,38 30,33" fill="none" stroke="#333" stroke-width="1.5"/>
      </g>
      <g transform="translate(120, 0)">
        <rect x="0" y="0" width="50" height="50" fill="#d1fae5" rx="4"/>
        <ellipse cx="25" cy="25" rx="18" ry="20" fill="#ffe4c4"/>
        <circle cx="20" cy="22" r="3" fill="#333"/>
        <circle cx="30" cy="22" r="3" fill="#333"/>
        <path d="M20,33 Q25,38 30,33" fill="none" stroke="#333" stroke-width="1.5"/>
      </g>
      <g transform="translate(180, 0)">
        <rect x="0" y="0" width="50" height="50" fill="#d1fae5" rx="4"/>
        <ellipse cx="25" cy="25" rx="18" ry="20" fill="#8b6914"/>
        <circle cx="20" cy="22" r="3" fill="#333"/>
        <circle cx="30" cy="22" r="3" fill="#333"/>
        <path d="M20,33 Q25,38 30,33" fill="none" stroke="#333" stroke-width="1.5"/>
      </g>

      <!-- Second row -->
      <g transform="translate(0, 60)">
        <rect x="0" y="0" width="50" height="50" fill="#d1fae5" rx="4"/>
        <ellipse cx="25" cy="25" rx="18" ry="20" fill="#fcd34d"/>
        <circle cx="20" cy="22" r="3" fill="#333"/>
        <circle cx="30" cy="22" r="3" fill="#333"/>
        <path d="M20,32 L30,32" fill="none" stroke="#333" stroke-width="1.5"/>
      </g>
      <g transform="translate(60, 60)">
        <rect x="0" y="0" width="50" height="50" fill="#d1fae5" rx="4"/>
        <ellipse cx="25" cy="25" rx="18" ry="20" fill="#d4a574"/>
        <circle cx="20" cy="22" r="3" fill="#333"/>
        <circle cx="30" cy="22" r="3" fill="#333"/>
        <path d="M20,32 L30,32" fill="none" stroke="#333" stroke-width="1.5"/>
      </g>
      <g transform="translate(120, 60)">
        <rect x="0" y="0" width="50" height="50" fill="#d1fae5" rx="4"/>
        <ellipse cx="25" cy="25" rx="18" ry="20" fill="#ffe4c4"/>
        <circle cx="20" cy="22" r="3" fill="#333"/>
        <circle cx="30" cy="22" r="3" fill="#333"/>
        <path d="M20,35 Q25,30 30,35" fill="none" stroke="#333" stroke-width="1.5"/>
      </g>
      <g transform="translate(180, 60)">
        <rect x="0" y="0" width="50" height="50" fill="#d1fae5" rx="4"/>
        <ellipse cx="25" cy="25" rx="18" ry="20" fill="#fcd34d"/>
        <circle cx="20" cy="22" r="3" fill="#333"/>
        <circle cx="30" cy="22" r="3" fill="#333"/>
        <path d="M20,33 Q25,38 30,33" fill="none" stroke="#333" stroke-width="1.5"/>
      </g>
    </g>

    <text x="127" y="155" fill="#666" font-family="Segoe UI, sans-serif" font-size="9" text-anchor="middle">Sharp, photorealistic</text>
  </g>

  <!-- Other generated content -->
  <g transform="translate(570, 55)">
    <rect x="0" y="0" width="250" height="165" fill="white" rx="8" stroke="#3b82f6" stroke-width="2"/>
    <text x="125" y="22" fill="#3b82f6" font-family="Segoe UI, sans-serif" font-size="12" font-weight="600" text-anchor="middle">Other Generated Content</text>

    <g transform="translate(15, 35)" font-family="Segoe UI, sans-serif" font-size="9">
      <g transform="translate(0, 0)">
        <rect x="0" y="0" width="100" height="50" fill="#dbeafe" rx="4"/>
        <rect x="15" y="10" width="30" height="30" fill="#60a5fa" rx="2"/>
        <rect x="55" y="10" width="30" height="30" fill="#3b82f6" rx="2"/>
        <text x="50" y="65" fill="#666" text-anchor="middle">Objects</text>
      </g>
      <g transform="translate(115, 0)">
        <rect x="0" y="0" width="100" height="50" fill="#d1fae5" rx="4"/>
        <rect x="10" y="35" width="80" height="10" fill="#22c55e"/>
        <ellipse cx="30" cy="25" rx="12" ry="15" fill="#15803d"/>
        <ellipse cx="70" cy="20" rx="10" ry="12" fill="#15803d"/>
        <text x="50" y="65" fill="#666" text-anchor="middle">Scenes</text>
      </g>

      <g transform="translate(0, 80)">
        <rect x="0" y="0" width="100" height="50" fill="#fef3c7" rx="4"/>
        <text x="50" y="30" fill="#f97316" font-size="24" text-anchor="middle">Aa</text>
        <text x="50" y="65" fill="#666" text-anchor="middle">Text/Fonts</text>
      </g>
      <g transform="translate(115, 80)">
        <rect x="0" y="0" width="100" height="50" fill="#f5f3ff" rx="4"/>
        <rect x="20" y="8" width="60" height="35" fill="#7c3aed" rx="2"/>
        <rect x="30" y="15" width="40" height="8" fill="white" rx="1"/>
        <rect x="30" y="28" width="40" height="8" fill="white" rx="1"/>
        <text x="50" y="65" fill="#666" text-anchor="middle">UI/Layouts</text>
      </g>
    </g>
  </g>

  <!-- Quality metrics -->
  <g transform="translate(30, 235)">
    <rect x="0" y="0" width="790" height="140" fill="white" rx="8" stroke="#1a3a6e" stroke-width="2"/>
    <text x="395" y="22" fill="#1a3a6e" font-family="Segoe UI, sans-serif" font-size="13" font-weight="600" text-anchor="middle">Evaluating Generated Image Quality</text>

    <g transform="translate(20, 40)">
      <g transform="translate(0, 0)">
        <rect x="0" y="0" width="180" height="80" fill="#dbeafe" rx="4"/>
        <text x="90" y="20" fill="#3b82f6" font-family="Segoe UI, sans-serif" font-size="11" font-weight="600" text-anchor="middle">FID Score</text>
        <text x="90" y="40" fill="#666" font-family="Segoe UI, sans-serif" font-size="9" text-anchor="middle">Fréchet Inception Distance</text>
        <text x="90" y="55" fill="#666" font-family="Segoe UI, sans-serif" font-size="9" text-anchor="middle">Lower = more realistic</text>
        <text x="90" y="70" fill="#10b981" font-family="Segoe UI, sans-serif" font-size="9" text-anchor="middle">Best: &lt; 10</text>
      </g>

      <g transform="translate(200, 0)">
        <rect x="0" y="0" width="180" height="80" fill="#d1fae5" rx="4"/>
        <text x="90" y="20" fill="#10b981" font-family="Segoe UI, sans-serif" font-size="11" font-weight="600" text-anchor="middle">Inception Score</text>
        <text x="90" y="40" fill="#666" font-family="Segoe UI, sans-serif" font-size="9" text-anchor="middle">Measures quality + diversity</text>
        <text x="90" y="55" fill="#666" font-family="Segoe UI, sans-serif" font-size="9" text-anchor="middle">Higher = better</text>
        <text x="90" y="70" fill="#10b981" font-family="Segoe UI, sans-serif" font-size="9" text-anchor="middle">Good: &gt; 7</text>
      </g>

      <g transform="translate(400, 0)">
        <rect x="0" y="0" width="180" height="80" fill="#f5f3ff" rx="4"/>
        <text x="90" y="20" fill="#7c3aed" font-family="Segoe UI, sans-serif" font-size="11" font-weight="600" text-anchor="middle">LPIPS</text>
        <text x="90" y="40" fill="#666" font-family="Segoe UI, sans-serif" font-size="9" text-anchor="middle">Perceptual similarity</text>
        <text x="90" y="55" fill="#666" font-family="Segoe UI, sans-serif" font-size="9" text-anchor="middle">Measures diversity</text>
        <text x="90" y="70" fill="#10b981" font-family="Segoe UI, sans-serif" font-size="9" text-anchor="middle">Higher = more diverse</text>
      </g>

      <g transform="translate(600, 0)">
        <rect x="0" y="0" width="150" height="80" fill="#fef3c7" rx="4"/>
        <text x="75" y="20" fill="#f97316" font-family="Segoe UI, sans-serif" font-size="11" font-weight="600" text-anchor="middle">Human Eval</text>
        <text x="75" y="40" fill="#666" font-family="Segoe UI, sans-serif" font-size="9" text-anchor="middle">A/B testing</text>
        <text x="75" y="55" fill="#666" font-family="Segoe UI, sans-serif" font-size="9" text-anchor="middle">Real vs Generated</text>
        <text x="75" y="70" fill="#666" font-family="Segoe UI, sans-serif" font-size="9" text-anchor="middle">Gold standard!</text>
      </g>
    </g>
  </g>
</svg>
