<svg xmlns="http://www.w3.org/2000/svg" viewBox="0 0 800 500" role="img" aria-label="Fourier Transform Properties">
  <title>Properties of Fourier Transform</title>
  <desc>Key properties of the 2D Fourier Transform including linearity, shift, rotation, scaling, and separability</desc>

  <!-- Background -->
  <rect width="800" height="500" fill="#f8f9fa"/>

  <!-- Title -->
  <text x="400" y="30" text-anchor="middle" font-family="Segoe UI, sans-serif" font-size="20" font-weight="600" fill="#1a3a6e">Properties of the Fourier Transform</text>

  <!-- Property 1: Linearity -->
  <g transform="translate(30, 55)">
    <rect x="0" y="0" width="230" height="115" rx="6" fill="#e3f2fd" stroke="#1a3a6e" stroke-width="2"/>
    <rect x="0" y="0" width="230" height="30" rx="6" fill="#1a3a6e"/>
    <rect x="0" y="22" width="230" height="8" fill="#1a3a6e"/>
    <text x="115" y="21" text-anchor="middle" font-family="Segoe UI, sans-serif" font-size="14" font-weight="600" fill="white">1. Linearity</text>

    <text x="115" y="55" text-anchor="middle" font-family="serif" font-size="14" fill="#333">ℱ{af + bg} = aF + bG</text>
    <text x="115" y="80" text-anchor="middle" font-family="Segoe UI, sans-serif" font-size="11" fill="#666">Sum of images → sum of spectra</text>
    <text x="115" y="100" text-anchor="middle" font-family="Segoe UI, sans-serif" font-size="10" fill="#888">Scaling factors preserved</text>
  </g>

  <!-- Property 2: Translation/Shift -->
  <g transform="translate(285, 55)">
    <rect x="0" y="0" width="230" height="115" rx="6" fill="#e8f5e9" stroke="#43a047" stroke-width="2"/>
    <rect x="0" y="0" width="230" height="30" rx="6" fill="#43a047"/>
    <rect x="0" y="22" width="230" height="8" fill="#43a047"/>
    <text x="115" y="21" text-anchor="middle" font-family="Segoe UI, sans-serif" font-size="14" font-weight="600" fill="white">2. Shift Property</text>

    <text x="115" y="55" text-anchor="middle" font-family="serif" font-size="13" fill="#333">ℱ{f(x-x₀, y-y₀)}</text>
    <text x="115" y="75" text-anchor="middle" font-family="serif" font-size="13" fill="#333">= F(u,v) · e^(-j2π(ux₀+vy₀))</text>
    <text x="115" y="100" text-anchor="middle" font-family="Segoe UI, sans-serif" font-size="11" fill="#666">Shift in space → phase change</text>
  </g>

  <!-- Property 3: Rotation -->
  <g transform="translate(540, 55)">
    <rect x="0" y="0" width="230" height="115" rx="6" fill="#fff3e0" stroke="#e65100" stroke-width="2"/>
    <rect x="0" y="0" width="230" height="30" rx="6" fill="#e65100"/>
    <rect x="0" y="22" width="230" height="8" fill="#e65100"/>
    <text x="115" y="21" text-anchor="middle" font-family="Segoe UI, sans-serif" font-size="14" font-weight="600" fill="white">3. Rotation</text>

    <text x="115" y="55" text-anchor="middle" font-family="serif" font-size="14" fill="#333">f(r, θ+θ₀) ↔ F(ρ, φ+θ₀)</text>
    <text x="115" y="80" text-anchor="middle" font-family="Segoe UI, sans-serif" font-size="11" fill="#666">Rotate image → rotate spectrum</text>
    <text x="115" y="100" text-anchor="middle" font-family="Segoe UI, sans-serif" font-size="10" fill="#888">Same angle in both domains</text>
  </g>

  <!-- Property 4: Scaling -->
  <g transform="translate(30, 185)">
    <rect x="0" y="0" width="230" height="115" rx="6" fill="#fce4ec" stroke="#c2185b" stroke-width="2"/>
    <rect x="0" y="0" width="230" height="30" rx="6" fill="#c2185b"/>
    <rect x="0" y="22" width="230" height="8" fill="#c2185b"/>
    <text x="115" y="21" text-anchor="middle" font-family="Segoe UI, sans-serif" font-size="14" font-weight="600" fill="white">4. Scaling</text>

    <text x="115" y="55" text-anchor="middle" font-family="serif" font-size="13" fill="#333">ℱ{f(ax, by)}</text>
    <text x="115" y="75" text-anchor="middle" font-family="serif" font-size="13" fill="#333">= (1/|ab|)F(u/a, v/b)</text>
    <text x="115" y="100" text-anchor="middle" font-family="Segoe UI, sans-serif" font-size="11" fill="#666">Compress space → expand freq</text>
  </g>

  <!-- Property 5: Conjugate Symmetry -->
  <g transform="translate(285, 185)">
    <rect x="0" y="0" width="230" height="115" rx="6" fill="#e1f5fe" stroke="#0288d1" stroke-width="2"/>
    <rect x="0" y="0" width="230" height="30" rx="6" fill="#0288d1"/>
    <rect x="0" y="22" width="230" height="8" fill="#0288d1"/>
    <text x="115" y="21" text-anchor="middle" font-family="Segoe UI, sans-serif" font-size="14" font-weight="600" fill="white">5. Conjugate Symmetry</text>

    <text x="115" y="55" text-anchor="middle" font-family="serif" font-size="14" fill="#333">F(-u, -v) = F*(u, v)</text>
    <text x="115" y="80" text-anchor="middle" font-family="Segoe UI, sans-serif" font-size="11" fill="#666">For real images:</text>
    <text x="115" y="100" text-anchor="middle" font-family="Segoe UI, sans-serif" font-size="10" fill="#888">|F(-u,-v)| = |F(u,v)|</text>
  </g>

  <!-- Property 6: Convolution Theorem -->
  <g transform="translate(540, 185)">
    <rect x="0" y="0" width="230" height="115" rx="6" fill="#f3e5f5" stroke="#7b1fa2" stroke-width="2"/>
    <rect x="0" y="0" width="230" height="30" rx="6" fill="#7b1fa2"/>
    <rect x="0" y="22" width="230" height="8" fill="#7b1fa2"/>
    <text x="115" y="21" text-anchor="middle" font-family="Segoe UI, sans-serif" font-size="14" font-weight="600" fill="white">6. Convolution Theorem</text>

    <text x="115" y="55" text-anchor="middle" font-family="serif" font-size="14" fill="#333">f ⊛ h ↔ F · H</text>
    <text x="115" y="80" text-anchor="middle" font-family="Segoe UI, sans-serif" font-size="11" fill="#666">Convolution ↔ multiplication</text>
    <text x="115" y="100" text-anchor="middle" font-family="Segoe UI, sans-serif" font-size="10" fill="#888">Works both directions!</text>
  </g>

  <!-- Property 7: Separability -->
  <g transform="translate(30, 315)">
    <rect x="0" y="0" width="230" height="115" rx="6" fill="#e0f2f1" stroke="#00897b" stroke-width="2"/>
    <rect x="0" y="0" width="230" height="30" rx="6" fill="#00897b"/>
    <rect x="0" y="22" width="230" height="8" fill="#00897b"/>
    <text x="115" y="21" text-anchor="middle" font-family="Segoe UI, sans-serif" font-size="14" font-weight="600" fill="white">7. Separability</text>

    <text x="115" y="55" text-anchor="middle" font-family="serif" font-size="13" fill="#333">ℱ₂D{f(x,y)}</text>
    <text x="115" y="75" text-anchor="middle" font-family="serif" font-size="13" fill="#333">= ℱ₁D{ℱ₁D{f}}</text>
    <text x="115" y="100" text-anchor="middle" font-family="Segoe UI, sans-serif" font-size="11" fill="#666">2D FFT = Two 1D FFTs</text>
  </g>

  <!-- Property 8: Parseval's Theorem -->
  <g transform="translate(285, 315)">
    <rect x="0" y="0" width="230" height="115" rx="6" fill="#fff8e1" stroke="#ffa000" stroke-width="2"/>
    <rect x="0" y="0" width="230" height="30" rx="6" fill="#ffa000"/>
    <rect x="0" y="22" width="230" height="8" fill="#ffa000"/>
    <text x="115" y="21" text-anchor="middle" font-family="Segoe UI, sans-serif" font-size="14" font-weight="600" fill="white">8. Parseval's Theorem</text>

    <text x="115" y="55" text-anchor="middle" font-family="serif" font-size="13" fill="#333">∑|f(x,y)|² = ∑|F(u,v)|²</text>
    <text x="115" y="80" text-anchor="middle" font-family="Segoe UI, sans-serif" font-size="11" fill="#666">Energy preserved</text>
    <text x="115" y="100" text-anchor="middle" font-family="Segoe UI, sans-serif" font-size="10" fill="#888">Total power is same</text>
  </g>

  <!-- Property 9: DC Component -->
  <g transform="translate(540, 315)">
    <rect x="0" y="0" width="230" height="115" rx="6" fill="#efebe9" stroke="#6d4c41" stroke-width="2"/>
    <rect x="0" y="0" width="230" height="30" rx="6" fill="#6d4c41"/>
    <rect x="0" y="22" width="230" height="8" fill="#6d4c41"/>
    <text x="115" y="21" text-anchor="middle" font-family="Segoe UI, sans-serif" font-size="14" font-weight="600" fill="white">9. DC Component</text>

    <text x="115" y="55" text-anchor="middle" font-family="serif" font-size="13" fill="#333">F(0,0) = ∑∑f(x,y)</text>
    <text x="115" y="80" text-anchor="middle" font-family="Segoe UI, sans-serif" font-size="11" fill="#666">Center = average intensity</text>
    <text x="115" y="100" text-anchor="middle" font-family="Segoe UI, sans-serif" font-size="10" fill="#888">(sum of all pixel values)</text>
  </g>

  <!-- Footer -->
  <text x="400" y="460" text-anchor="middle" font-family="Segoe UI, sans-serif" font-size="12" fill="#666">ℱ = Fourier Transform | F* = Complex Conjugate | ⊛ = Convolution</text>
  <text x="400" y="480" text-anchor="middle" font-family="Segoe UI, sans-serif" font-size="11" fill="#888">These properties enable efficient image filtering and analysis in the frequency domain</text>
</svg>