<?xml version="1.0" encoding="utf-8" standalone="no"?>
<!DOCTYPE svg PUBLIC "-//W3C//DTD SVG 1.1//EN"
  "http://www.w3.org/Graphics/SVG/1.1/DTD/svg11.dtd">
<svg xmlns:xlink="http://www.w3.org/1999/xlink" width="587.3575pt" height="379.75375pt" viewBox="0 0 587.3575 379.75375" xmlns="http://www.w3.org/2000/svg" version="1.1">
 <metadata>
  <rdf:RDF xmlns:dc="http://purl.org/dc/elements/1.1/" xmlns:cc="http://creativecommons.org/ns#" xmlns:rdf="http://www.w3.org/1999/02/22-rdf-syntax-ns#">
   <cc:Work>
    <dc:type rdf:resource="http://purl.org/dc/dcmitype/StillImage"/>
    <dc:date>2025-12-22T18:30:26.754373</dc:date>
    <dc:format>image/svg+xml</dc:format>
    <dc:creator>
     <cc:Agent>
      <dc:title>Matplotlib v3.10.7, https://matplotlib.org/</dc:title>
     </cc:Agent>
    </dc:creator>
   </cc:Work>
  </rdf:RDF>
 </metadata>
 <defs>
  <style type="text/css">*{stroke-linejoin: round; stroke-linecap: butt}</style>
 </defs>
 <g id="figure_1">
  <g id="patch_1">
   <path d="M 0 379.75375 
L 587.3575 379.75375 
L 587.3575 0 
L 0 0 
L 0 379.75375 
z
" style="fill: none"/>
  </g>
  <g id="axes_1">
   <g id="patch_2">
    <path d="M 22.1575 357.2925 
L 580.1575 357.2925 
L 580.1575 24.6525 
L 22.1575 24.6525 
L 22.1575 357.2925 
z
" style="fill: none"/>
   </g>
   <g id="matplotlib.axis_1">
    <g id="text_1">
     <!-- Model Complexity → -->
     <g style="fill: #262626" transform="translate(242.154063 370.028125) scale(0.12 -0.12)">
      <defs>
       <path id="Arial-BoldMT-4d" d="M 453 0 
L 453 4581 
L 1838 4581 
L 2669 1456 
L 3491 4581 
L 4878 4581 
L 4878 0 
L 4019 0 
L 4019 3606 
L 3109 0 
L 2219 0 
L 1313 3606 
L 1313 0 
L 453 0 
z
" transform="scale(0.015625)"/>
       <path id="Arial-BoldMT-6f" d="M 256 1706 
Q 256 2144 472 2553 
Q 688 2963 1083 3178 
Q 1478 3394 1966 3394 
Q 2719 3394 3200 2905 
Q 3681 2416 3681 1669 
Q 3681 916 3195 420 
Q 2709 -75 1972 -75 
Q 1516 -75 1102 131 
Q 688 338 472 736 
Q 256 1134 256 1706 
z
M 1156 1659 
Q 1156 1166 1390 903 
Q 1625 641 1969 641 
Q 2313 641 2545 903 
Q 2778 1166 2778 1666 
Q 2778 2153 2545 2415 
Q 2313 2678 1969 2678 
Q 1625 2678 1390 2415 
Q 1156 2153 1156 1659 
z
" transform="scale(0.015625)"/>
       <path id="Arial-BoldMT-64" d="M 3503 0 
L 2688 0 
L 2688 488 
Q 2484 203 2207 64 
Q 1931 -75 1650 -75 
Q 1078 -75 670 386 
Q 263 847 263 1672 
Q 263 2516 659 2955 
Q 1056 3394 1663 3394 
Q 2219 3394 2625 2931 
L 2625 4581 
L 3503 4581 
L 3503 0 
z
M 1159 1731 
Q 1159 1200 1306 963 
Q 1519 619 1900 619 
Q 2203 619 2415 876 
Q 2628 1134 2628 1647 
Q 2628 2219 2422 2470 
Q 2216 2722 1894 2722 
Q 1581 2722 1370 2473 
Q 1159 2225 1159 1731 
z
" transform="scale(0.015625)"/>
       <path id="Arial-BoldMT-65" d="M 2381 1056 
L 3256 909 
Q 3088 428 2723 176 
Q 2359 -75 1813 -75 
Q 947 -75 531 491 
Q 203 944 203 1634 
Q 203 2459 634 2926 
Q 1066 3394 1725 3394 
Q 2466 3394 2894 2905 
Q 3322 2416 3303 1406 
L 1103 1406 
Q 1113 1016 1316 798 
Q 1519 581 1822 581 
Q 2028 581 2168 693 
Q 2309 806 2381 1056 
z
M 2431 1944 
Q 2422 2325 2234 2523 
Q 2047 2722 1778 2722 
Q 1491 2722 1303 2513 
Q 1116 2303 1119 1944 
L 2431 1944 
z
" transform="scale(0.015625)"/>
       <path id="Arial-BoldMT-6c" d="M 459 0 
L 459 4581 
L 1338 4581 
L 1338 0 
L 459 0 
z
" transform="scale(0.015625)"/>
       <path id="Arial-BoldMT-20" transform="scale(0.015625)"/>
       <path id="Arial-BoldMT-43" d="M 3397 1684 
L 4294 1400 
Q 4088 650 3608 286 
Q 3128 -78 2391 -78 
Q 1478 -78 890 545 
Q 303 1169 303 2250 
Q 303 3394 893 4026 
Q 1484 4659 2447 4659 
Q 3288 4659 3813 4163 
Q 4125 3869 4281 3319 
L 3366 3100 
Q 3284 3456 3026 3662 
Q 2769 3869 2400 3869 
Q 1891 3869 1573 3503 
Q 1256 3138 1256 2319 
Q 1256 1450 1568 1081 
Q 1881 713 2381 713 
Q 2750 713 3015 947 
Q 3281 1181 3397 1684 
z
" transform="scale(0.015625)"/>
       <path id="Arial-BoldMT-6d" d="M 394 3319 
L 1203 3319 
L 1203 2866 
Q 1638 3394 2238 3394 
Q 2556 3394 2790 3262 
Q 3025 3131 3175 2866 
Q 3394 3131 3647 3262 
Q 3900 3394 4188 3394 
Q 4553 3394 4806 3245 
Q 5059 3097 5184 2809 
Q 5275 2597 5275 2122 
L 5275 0 
L 4397 0 
L 4397 1897 
Q 4397 2391 4306 2534 
Q 4184 2722 3931 2722 
Q 3747 2722 3584 2609 
Q 3422 2497 3350 2280 
Q 3278 2063 3278 1594 
L 3278 0 
L 2400 0 
L 2400 1819 
Q 2400 2303 2353 2443 
Q 2306 2584 2207 2653 
Q 2109 2722 1941 2722 
Q 1738 2722 1575 2612 
Q 1413 2503 1342 2297 
Q 1272 2091 1272 1613 
L 1272 0 
L 394 0 
L 394 3319 
z
" transform="scale(0.015625)"/>
       <path id="Arial-BoldMT-70" d="M 434 3319 
L 1253 3319 
L 1253 2831 
Q 1413 3081 1684 3237 
Q 1956 3394 2288 3394 
Q 2866 3394 3269 2941 
Q 3672 2488 3672 1678 
Q 3672 847 3265 386 
Q 2859 -75 2281 -75 
Q 2006 -75 1782 34 
Q 1559 144 1313 409 
L 1313 -1263 
L 434 -1263 
L 434 3319 
z
M 1303 1716 
Q 1303 1156 1525 889 
Q 1747 622 2066 622 
Q 2372 622 2575 867 
Q 2778 1113 2778 1672 
Q 2778 2194 2568 2447 
Q 2359 2700 2050 2700 
Q 1728 2700 1515 2451 
Q 1303 2203 1303 1716 
z
" transform="scale(0.015625)"/>
       <path id="Arial-BoldMT-78" d="M 38 0 
L 1234 1709 
L 88 3319 
L 1159 3319 
L 1747 2406 
L 2366 3319 
L 3397 3319 
L 2272 1747 
L 3500 0 
L 2422 0 
L 1747 1028 
L 1066 0 
L 38 0 
z
" transform="scale(0.015625)"/>
       <path id="Arial-BoldMT-69" d="M 459 3769 
L 459 4581 
L 1338 4581 
L 1338 3769 
L 459 3769 
z
M 459 0 
L 459 3319 
L 1338 3319 
L 1338 0 
L 459 0 
z
" transform="scale(0.015625)"/>
       <path id="Arial-BoldMT-74" d="M 1981 3319 
L 1981 2619 
L 1381 2619 
L 1381 1281 
Q 1381 875 1398 808 
Q 1416 741 1477 697 
Q 1538 653 1625 653 
Q 1747 653 1978 738 
L 2053 56 
Q 1747 -75 1359 -75 
Q 1122 -75 931 4 
Q 741 84 652 211 
Q 563 338 528 553 
Q 500 706 500 1172 
L 500 2619 
L 97 2619 
L 97 3319 
L 500 3319 
L 500 3978 
L 1381 4491 
L 1381 3319 
L 1981 3319 
z
" transform="scale(0.015625)"/>
       <path id="Arial-BoldMT-79" d="M 44 3319 
L 978 3319 
L 1772 963 
L 2547 3319 
L 3456 3319 
L 2284 125 
L 2075 -453 
Q 1959 -744 1854 -897 
Q 1750 -1050 1614 -1145 
Q 1478 -1241 1279 -1294 
Q 1081 -1347 831 -1347 
Q 578 -1347 334 -1294 
L 256 -606 
Q 463 -647 628 -647 
Q 934 -647 1081 -467 
Q 1228 -288 1306 -9 
L 44 3319 
z
" transform="scale(0.015625)"/>
       <path id="Arial-BoldMT-2192" d="M 4859 2738 
Q 5275 2284 5578 2048 
Q 5881 1813 6150 1697 
L 6150 1556 
Q 5841 1406 5550 1173 
Q 5259 941 4856 491 
L 4616 491 
Q 4909 1119 5231 1456 
L 247 1456 
L 247 1772 
L 5231 1772 
Q 4994 2072 4900 2220 
Q 4806 2369 4622 2738 
L 4859 2738 
z
" transform="scale(0.015625)"/>
      </defs>
      <use xlink:href="#Arial-BoldMT-4d"/>
      <use xlink:href="#Arial-BoldMT-6f" transform="translate(83.300781 0)"/>
      <use xlink:href="#Arial-BoldMT-64" transform="translate(144.384766 0)"/>
      <use xlink:href="#Arial-BoldMT-65" transform="translate(205.46875 0)"/>
      <use xlink:href="#Arial-BoldMT-6c" transform="translate(261.083984 0)"/>
      <use xlink:href="#Arial-BoldMT-20" transform="translate(288.867188 0)"/>
      <use xlink:href="#Arial-BoldMT-43" transform="translate(316.650391 0)"/>
      <use xlink:href="#Arial-BoldMT-6f" transform="translate(388.867188 0)"/>
      <use xlink:href="#Arial-BoldMT-6d" transform="translate(449.951172 0)"/>
      <use xlink:href="#Arial-BoldMT-70" transform="translate(538.867188 0)"/>
      <use xlink:href="#Arial-BoldMT-6c" transform="translate(599.951172 0)"/>
      <use xlink:href="#Arial-BoldMT-65" transform="translate(627.734375 0)"/>
      <use xlink:href="#Arial-BoldMT-78" transform="translate(683.349609 0)"/>
      <use xlink:href="#Arial-BoldMT-69" transform="translate(738.964844 0)"/>
      <use xlink:href="#Arial-BoldMT-74" transform="translate(766.748047 0)"/>
      <use xlink:href="#Arial-BoldMT-79" transform="translate(800.048828 0)"/>
      <use xlink:href="#Arial-BoldMT-20" transform="translate(855.664062 0)"/>
      <use xlink:href="#Arial-BoldMT-2192" transform="translate(883.447266 0)"/>
     </g>
    </g>
   </g>
   <g id="matplotlib.axis_2">
    <g id="text_2">
     <!-- Error -->
     <g style="fill: #262626" transform="translate(15.789375 205.645312) rotate(-90) scale(0.12 -0.12)">
      <defs>
       <path id="Arial-BoldMT-45" d="M 466 0 
L 466 4581 
L 3863 4581 
L 3863 3806 
L 1391 3806 
L 1391 2791 
L 3691 2791 
L 3691 2019 
L 1391 2019 
L 1391 772 
L 3950 772 
L 3950 0 
L 466 0 
z
" transform="scale(0.015625)"/>
       <path id="Arial-BoldMT-72" d="M 1300 0 
L 422 0 
L 422 3319 
L 1238 3319 
L 1238 2847 
Q 1447 3181 1614 3287 
Q 1781 3394 1994 3394 
Q 2294 3394 2572 3228 
L 2300 2463 
Q 2078 2606 1888 2606 
Q 1703 2606 1575 2504 
Q 1447 2403 1373 2137 
Q 1300 1872 1300 1025 
L 1300 0 
z
" transform="scale(0.015625)"/>
      </defs>
      <use xlink:href="#Arial-BoldMT-45"/>
      <use xlink:href="#Arial-BoldMT-72" transform="translate(66.699219 0)"/>
      <use xlink:href="#Arial-BoldMT-72" transform="translate(105.615234 0)"/>
      <use xlink:href="#Arial-BoldMT-6f" transform="translate(144.53125 0)"/>
      <use xlink:href="#Arial-BoldMT-72" transform="translate(205.615234 0)"/>
     </g>
    </g>
   </g>
   <g id="patch_3">
    <path d="M 22.1575 357.2925 
L 189.5575 357.2925 
L 189.5575 24.6525 
L 22.1575 24.6525 
z
" clip-path="url(#p8487d11d00)" style="fill: #8c2448; opacity: 0.1; stroke: #8c2448; stroke-linejoin: miter"/>
   </g>
   <g id="patch_4">
    <path d="M 412.7575 357.2925 
L 580.1575 357.2925 
L 580.1575 24.6525 
L 412.7575 24.6525 
z
" clip-path="url(#p8487d11d00)" style="fill: #1a6b5c; opacity: 0.1; stroke: #1a6b5c; stroke-linejoin: miter"/>
   </g>
   <g id="line2d_1">
    <path d="M 22.1575 128.6025 
L 27.793864 134.808002 
L 33.430227 140.82828 
L 39.066591 146.668861 
L 44.702955 152.33511 
L 50.339318 157.832229 
L 55.975682 163.165268 
L 61.612045 168.339124 
L 67.248409 173.358548 
L 72.884773 178.22815 
L 78.521136 182.952401 
L 84.1575 187.535641 
L 89.793864 191.982077 
L 95.430227 196.295795 
L 101.066591 200.480754 
L 106.702955 204.540799 
L 112.339318 208.479657 
L 117.975682 212.300946 
L 123.612045 216.008176 
L 129.248409 219.60475 
L 134.884773 223.093972 
L 140.521136 226.479046 
L 146.1575 229.763081 
L 151.793864 232.949092 
L 157.430227 236.040006 
L 163.066591 239.03866 
L 168.702955 241.947809 
L 174.339318 244.770124 
L 179.975682 247.508198 
L 185.612045 250.164544 
L 191.248409 252.741602 
L 196.884773 255.241739 
L 202.521136 257.667251 
L 208.1575 260.020364 
L 213.793864 262.303241 
L 219.430227 264.517977 
L 225.066591 266.666607 
L 230.702955 268.751103 
L 236.339318 270.773381 
L 241.975682 272.735296 
L 247.612045 274.638651 
L 253.248409 276.485194 
L 258.884773 278.27662 
L 264.521136 280.014575 
L 270.1575 281.700655 
L 275.793864 283.336408 
L 281.430227 284.923336 
L 287.066591 286.462896 
L 292.702955 287.956503 
L 298.339318 289.405528 
L 303.975682 290.811302 
L 309.612045 292.175115 
L 315.248409 293.498221 
L 320.884773 294.781834 
L 326.521136 296.027133 
L 332.1575 297.235262 
L 337.793864 298.40733 
L 343.430227 299.544414 
L 349.066591 300.647557 
L 354.702955 301.717773 
L 360.339318 302.756045 
L 365.975682 303.763326 
L 371.612045 304.740541 
L 377.248409 305.688588 
L 382.884773 306.608337 
L 388.521136 307.500632 
L 394.1575 308.366295 
L 399.793864 309.206118 
L 405.430227 310.020874 
L 411.066591 310.811311 
L 416.702955 311.578154 
L 422.339318 312.322108 
L 427.975682 313.043857 
L 433.612045 313.744062 
L 439.248409 314.423367 
L 444.884773 315.082396 
L 450.521136 315.721754 
L 456.1575 316.342028 
L 461.793864 316.943788 
L 467.430227 317.527586 
L 473.066591 318.093958 
L 478.702955 318.643426 
L 484.339318 319.176492 
L 489.975682 319.693648 
L 495.612045 320.195367 
L 501.248409 320.68211 
L 506.884773 321.154325 
L 512.521136 321.612445 
L 518.1575 322.05689 
L 523.793864 322.48807 
L 529.430227 322.90638 
L 535.066591 323.312204 
L 540.702955 323.705914 
L 546.339318 324.087873 
L 551.975682 324.458431 
L 557.612045 324.817928 
L 563.248409 325.166695 
L 568.884773 325.505052 
L 574.521136 325.833309 
L 580.1575 326.151768 
" clip-path="url(#p8487d11d00)" style="fill: none; stroke: #1a6b5c; stroke-width: 3; stroke-linecap: round"/>
   </g>
   <g id="line2d_2">
    <path d="M 22.1575 353.1345 
L 27.793864 352.685612 
L 33.430227 352.22057 
L 39.066591 351.738793 
L 44.702955 351.239679 
L 50.339318 350.722604 
L 55.975682 350.186922 
L 61.612045 349.631963 
L 67.248409 349.057033 
L 72.884773 348.461413 
L 78.521136 347.84436 
L 84.1575 347.205101 
L 89.793864 346.542838 
L 95.430227 345.856743 
L 101.066591 345.145958 
L 106.702955 344.409595 
L 112.339318 343.646734 
L 117.975682 342.85642 
L 123.612045 342.037666 
L 129.248409 341.189448 
L 134.884773 340.310706 
L 140.521136 339.400342 
L 146.1575 338.457218 
L 151.793864 337.480155 
L 157.430227 336.467931 
L 163.066591 335.419281 
L 168.702955 334.332895 
L 174.339318 333.207414 
L 179.975682 332.041432 
L 185.612045 330.833491 
L 191.248409 329.582081 
L 196.884773 328.285638 
L 202.521136 326.942541 
L 208.1575 325.551111 
L 213.793864 324.10961 
L 219.430227 322.616235 
L 225.066591 321.06912 
L 230.702955 319.46633 
L 236.339318 317.805862 
L 241.975682 316.085641 
L 247.612045 314.303516 
L 253.248409 312.45726 
L 258.884773 310.544565 
L 264.521136 308.56304 
L 270.1575 306.510207 
L 275.793864 304.383502 
L 281.430227 302.180265 
L 287.066591 299.897743 
L 292.702955 297.533082 
L 298.339318 295.083327 
L 303.975682 292.545415 
L 309.612045 289.916174 
L 315.248409 287.192317 
L 320.884773 284.37044 
L 326.521136 281.447016 
L 332.1575 278.418389 
L 337.793864 275.280774 
L 343.430227 272.030249 
L 349.066591 268.662751 
L 354.702955 265.174071 
L 360.339318 261.559848 
L 365.975682 257.815563 
L 371.612045 253.936537 
L 377.248409 249.917921 
L 382.884773 245.754691 
L 388.521136 241.441644 
L 394.1575 236.973387 
L 399.793864 232.344337 
L 405.430227 227.548706 
L 411.066591 222.5805 
L 416.702955 217.433508 
L 422.339318 212.101297 
L 427.975682 206.577202 
L 433.612045 200.854318 
L 439.248409 194.92549 
L 444.884773 188.783308 
L 450.521136 182.420094 
L 456.1575 175.827894 
L 461.793864 168.998468 
L 467.430227 161.923278 
L 473.066591 154.593482 
L 478.702955 146.999916 
L 484.339318 139.133089 
L 489.975682 130.983167 
L 495.612045 122.539963 
L 501.248409 113.792923 
L 506.884773 104.731112 
L 512.521136 95.343204 
L 518.1575 85.617464 
L 523.793864 75.541734 
L 529.430227 65.10342 
L 535.066591 54.289473 
L 540.702955 43.086378 
L 546.339318 31.480128 
L 551.975682 19.456217 
L 557.612045 6.999615 
L 561.105979 -1 
" clip-path="url(#p8487d11d00)" style="fill: none; stroke: #8c2448; stroke-width: 3; stroke-linecap: round"/>
   </g>
   <g id="line2d_3">
    <path d="M 22.1575 91.1805 
L 27.793864 96.937114 
L 33.430227 102.49235 
L 39.066591 107.851154 
L 44.702955 113.018289 
L 50.339318 117.998334 
L 55.975682 122.79569 
L 61.612045 127.414587 
L 67.248409 131.859081 
L 72.884773 136.133063 
L 78.521136 140.240261 
L 84.1575 144.184242 
L 89.793864 147.968416 
L 95.430227 151.596038 
L 101.066591 155.070212 
L 106.702955 158.393894 
L 112.339318 161.569891 
L 117.975682 164.600866 
L 123.612045 167.489342 
L 129.248409 170.237698 
L 134.884773 172.848179 
L 140.521136 175.322889 
L 146.1575 177.663799 
L 151.793864 179.872747 
L 157.430227 181.951437 
L 163.066591 183.901441 
L 168.702955 185.724204 
L 174.339318 187.421039 
L 179.975682 188.99313 
L 185.612045 190.441535 
L 191.248409 191.767183 
L 196.884773 192.970877 
L 202.521136 194.053291 
L 208.1575 195.014975 
L 213.793864 195.856351 
L 219.430227 196.577712 
L 225.066591 197.179227 
L 230.702955 197.660933 
L 236.339318 198.022743 
L 241.975682 198.264437 
L 247.612045 198.385668 
L 253.248409 198.385954 
L 258.884773 198.264686 
L 264.521136 198.021115 
L 270.1575 197.654362 
L 275.793864 197.16341 
L 281.430227 196.547101 
L 287.066591 195.804139 
L 292.702955 194.933085 
L 298.339318 193.932355 
L 303.975682 192.800217 
L 309.612045 191.534789 
L 315.248409 190.134039 
L 320.884773 188.595775 
L 326.521136 186.917649 
L 332.1575 185.097151 
L 337.793864 183.131604 
L 343.430227 181.018163 
L 349.066591 178.753808 
L 354.702955 176.335344 
L 360.339318 173.759393 
L 365.975682 171.022389 
L 371.612045 168.120578 
L 377.248409 165.050009 
L 382.884773 161.806528 
L 388.521136 158.385776 
L 394.1575 154.783182 
L 399.793864 150.993955 
L 405.430227 147.01308 
L 411.066591 142.83531 
L 416.702955 138.455162 
L 422.339318 133.866906 
L 427.975682 129.064559 
L 433.612045 124.04188 
L 439.248409 118.792357 
L 444.884773 113.309204 
L 450.521136 107.585348 
L 456.1575 101.613422 
L 461.793864 95.385755 
L 467.430227 88.894364 
L 473.066591 82.13094 
L 478.702955 75.086842 
L 484.339318 67.753082 
L 489.975682 60.120315 
L 495.612045 52.17883 
L 501.248409 43.918533 
L 506.884773 35.328937 
L 512.521136 26.399149 
L 518.1575 17.117854 
L 523.793864 7.473304 
L 528.560191 -1 
" clip-path="url(#p8487d11d00)" style="fill: none; stroke: #d4a017; stroke-width: 4; stroke-linecap: round"/>
   </g>
   <g id="line2d_4">
    <path d="M 253.248409 357.2925 
L 253.248409 24.6525 
" clip-path="url(#p8487d11d00)" style="fill: none; stroke-dasharray: 5.55,2.4; stroke-dashoffset: 0; stroke: #6b7280; stroke-opacity: 0.5; stroke-width: 1.5"/>
   </g>
   <g id="patch_5">
    <path d="M 22.1575 357.2925 
L 22.1575 24.6525 
" style="fill: none; stroke: #cccccc; stroke-linejoin: miter; stroke-linecap: square"/>
   </g>
   <g id="patch_6">
    <path d="M 580.1575 357.2925 
L 580.1575 24.6525 
" style="fill: none; stroke: #cccccc; stroke-linejoin: miter; stroke-linecap: square"/>
   </g>
   <g id="patch_7">
    <path d="M 22.1575 357.2925 
L 580.1575 357.2925 
" style="fill: none; stroke: #cccccc; stroke-linejoin: miter; stroke-linecap: square"/>
   </g>
   <g id="patch_8">
    <path d="M 22.1575 24.6525 
L 580.1575 24.6525 
" style="fill: none; stroke: #cccccc; stroke-linejoin: miter; stroke-linecap: square"/>
   </g>
   <g id="text_3">
    <!-- Optimal -->
    <g style="fill: #262626" transform="translate(309.048409 146.096892) scale(0.1 -0.1)">
     <defs>
      <path id="Arial-BoldMT-4f" d="M 278 2263 
Q 278 2963 488 3438 
Q 644 3788 914 4066 
Q 1184 4344 1506 4478 
Q 1934 4659 2494 4659 
Q 3506 4659 4114 4031 
Q 4722 3403 4722 2284 
Q 4722 1175 4119 548 
Q 3516 -78 2506 -78 
Q 1484 -78 881 545 
Q 278 1169 278 2263 
z
M 1231 2294 
Q 1231 1516 1590 1114 
Q 1950 713 2503 713 
Q 3056 713 3411 1111 
Q 3766 1509 3766 2306 
Q 3766 3094 3420 3481 
Q 3075 3869 2503 3869 
Q 1931 3869 1581 3476 
Q 1231 3084 1231 2294 
z
" transform="scale(0.015625)"/>
      <path id="Arial-BoldMT-61" d="M 1116 2306 
L 319 2450 
Q 453 2931 781 3162 
Q 1109 3394 1756 3394 
Q 2344 3394 2631 3255 
Q 2919 3116 3036 2902 
Q 3153 2688 3153 2116 
L 3144 1091 
Q 3144 653 3186 445 
Q 3228 238 3344 0 
L 2475 0 
Q 2441 88 2391 259 
Q 2369 338 2359 363 
Q 2134 144 1878 34 
Q 1622 -75 1331 -75 
Q 819 -75 523 203 
Q 228 481 228 906 
Q 228 1188 362 1408 
Q 497 1628 739 1745 
Q 981 1863 1438 1950 
Q 2053 2066 2291 2166 
L 2291 2253 
Q 2291 2506 2166 2614 
Q 2041 2722 1694 2722 
Q 1459 2722 1328 2630 
Q 1197 2538 1116 2306 
z
M 2291 1594 
Q 2122 1538 1756 1459 
Q 1391 1381 1278 1306 
Q 1106 1184 1106 997 
Q 1106 813 1243 678 
Q 1381 544 1594 544 
Q 1831 544 2047 700 
Q 2206 819 2256 991 
Q 2291 1103 2291 1419 
L 2291 1594 
z
" transform="scale(0.015625)"/>
     </defs>
     <use xlink:href="#Arial-BoldMT-4f"/>
     <use xlink:href="#Arial-BoldMT-70" transform="translate(77.783203 0)"/>
     <use xlink:href="#Arial-BoldMT-74" transform="translate(138.867188 0)"/>
     <use xlink:href="#Arial-BoldMT-69" transform="translate(172.167969 0)"/>
     <use xlink:href="#Arial-BoldMT-6d" transform="translate(199.951172 0)"/>
     <use xlink:href="#Arial-BoldMT-61" transform="translate(288.867188 0)"/>
     <use xlink:href="#Arial-BoldMT-6c" transform="translate(344.482422 0)"/>
    </g>
    <!-- Complexity -->
    <g style="fill: #262626" transform="translate(309.048409 156.805954) scale(0.1 -0.1)">
     <use xlink:href="#Arial-BoldMT-43"/>
     <use xlink:href="#Arial-BoldMT-6f" transform="translate(72.216797 0)"/>
     <use xlink:href="#Arial-BoldMT-6d" transform="translate(133.300781 0)"/>
     <use xlink:href="#Arial-BoldMT-70" transform="translate(222.216797 0)"/>
     <use xlink:href="#Arial-BoldMT-6c" transform="translate(283.300781 0)"/>
     <use xlink:href="#Arial-BoldMT-65" transform="translate(311.083984 0)"/>
     <use xlink:href="#Arial-BoldMT-78" transform="translate(366.699219 0)"/>
     <use xlink:href="#Arial-BoldMT-69" transform="translate(422.314453 0)"/>
     <use xlink:href="#Arial-BoldMT-74" transform="translate(450.097656 0)"/>
     <use xlink:href="#Arial-BoldMT-79" transform="translate(483.398438 0)"/>
    </g>
   </g>
   <g id="text_4">
    <!-- Underfitting -->
    <g style="fill: #8c2448" transform="translate(80.290312 325.662187) scale(0.1 -0.1)">
     <defs>
      <path id="ArialMT-55" d="M 3500 4581 
L 4106 4581 
L 4106 1934 
Q 4106 1244 3950 837 
Q 3794 431 3386 176 
Q 2978 -78 2316 -78 
Q 1672 -78 1262 144 
Q 853 366 678 786 
Q 503 1206 503 1934 
L 503 4581 
L 1109 4581 
L 1109 1938 
Q 1109 1341 1220 1058 
Q 1331 775 1601 622 
Q 1872 469 2263 469 
Q 2931 469 3215 772 
Q 3500 1075 3500 1938 
L 3500 4581 
z
" transform="scale(0.015625)"/>
      <path id="ArialMT-6e" d="M 422 0 
L 422 3319 
L 928 3319 
L 928 2847 
Q 1294 3394 1984 3394 
Q 2284 3394 2536 3286 
Q 2788 3178 2913 3003 
Q 3038 2828 3088 2588 
Q 3119 2431 3119 2041 
L 3119 0 
L 2556 0 
L 2556 2019 
Q 2556 2363 2490 2533 
Q 2425 2703 2258 2804 
Q 2091 2906 1866 2906 
Q 1506 2906 1245 2678 
Q 984 2450 984 1813 
L 984 0 
L 422 0 
z
" transform="scale(0.015625)"/>
      <path id="ArialMT-64" d="M 2575 0 
L 2575 419 
Q 2259 -75 1647 -75 
Q 1250 -75 917 144 
Q 584 363 401 755 
Q 219 1147 219 1656 
Q 219 2153 384 2558 
Q 550 2963 881 3178 
Q 1213 3394 1622 3394 
Q 1922 3394 2156 3267 
Q 2391 3141 2538 2938 
L 2538 4581 
L 3097 4581 
L 3097 0 
L 2575 0 
z
M 797 1656 
Q 797 1019 1065 703 
Q 1334 388 1700 388 
Q 2069 388 2326 689 
Q 2584 991 2584 1609 
Q 2584 2291 2321 2609 
Q 2059 2928 1675 2928 
Q 1300 2928 1048 2622 
Q 797 2316 797 1656 
z
" transform="scale(0.015625)"/>
      <path id="ArialMT-65" d="M 2694 1069 
L 3275 997 
Q 3138 488 2766 206 
Q 2394 -75 1816 -75 
Q 1088 -75 661 373 
Q 234 822 234 1631 
Q 234 2469 665 2931 
Q 1097 3394 1784 3394 
Q 2450 3394 2872 2941 
Q 3294 2488 3294 1666 
Q 3294 1616 3291 1516 
L 816 1516 
Q 847 969 1125 678 
Q 1403 388 1819 388 
Q 2128 388 2347 550 
Q 2566 713 2694 1069 
z
M 847 1978 
L 2700 1978 
Q 2663 2397 2488 2606 
Q 2219 2931 1791 2931 
Q 1403 2931 1139 2672 
Q 875 2413 847 1978 
z
" transform="scale(0.015625)"/>
      <path id="ArialMT-72" d="M 416 0 
L 416 3319 
L 922 3319 
L 922 2816 
Q 1116 3169 1280 3281 
Q 1444 3394 1641 3394 
Q 1925 3394 2219 3213 
L 2025 2691 
Q 1819 2813 1613 2813 
Q 1428 2813 1281 2702 
Q 1134 2591 1072 2394 
Q 978 2094 978 1738 
L 978 0 
L 416 0 
z
" transform="scale(0.015625)"/>
      <path id="ArialMT-66" d="M 556 0 
L 556 2881 
L 59 2881 
L 59 3319 
L 556 3319 
L 556 3672 
Q 556 4006 616 4169 
Q 697 4388 901 4523 
Q 1106 4659 1475 4659 
Q 1713 4659 2000 4603 
L 1916 4113 
Q 1741 4144 1584 4144 
Q 1328 4144 1222 4034 
Q 1116 3925 1116 3625 
L 1116 3319 
L 1763 3319 
L 1763 2881 
L 1116 2881 
L 1116 0 
L 556 0 
z
" transform="scale(0.015625)"/>
      <path id="ArialMT-69" d="M 425 3934 
L 425 4581 
L 988 4581 
L 988 3934 
L 425 3934 
z
M 425 0 
L 425 3319 
L 988 3319 
L 988 0 
L 425 0 
z
" transform="scale(0.015625)"/>
      <path id="ArialMT-74" d="M 1650 503 
L 1731 6 
Q 1494 -44 1306 -44 
Q 1000 -44 831 53 
Q 663 150 594 308 
Q 525 466 525 972 
L 525 2881 
L 113 2881 
L 113 3319 
L 525 3319 
L 525 4141 
L 1084 4478 
L 1084 3319 
L 1650 3319 
L 1650 2881 
L 1084 2881 
L 1084 941 
Q 1084 700 1114 631 
Q 1144 563 1211 522 
Q 1278 481 1403 481 
Q 1497 481 1650 503 
z
" transform="scale(0.015625)"/>
      <path id="ArialMT-67" d="M 319 -275 
L 866 -356 
Q 900 -609 1056 -725 
Q 1266 -881 1628 -881 
Q 2019 -881 2231 -725 
Q 2444 -569 2519 -288 
Q 2563 -116 2559 434 
Q 2191 0 1641 0 
Q 956 0 581 494 
Q 206 988 206 1678 
Q 206 2153 378 2554 
Q 550 2956 876 3175 
Q 1203 3394 1644 3394 
Q 2231 3394 2613 2919 
L 2613 3319 
L 3131 3319 
L 3131 450 
Q 3131 -325 2973 -648 
Q 2816 -972 2473 -1159 
Q 2131 -1347 1631 -1347 
Q 1038 -1347 672 -1080 
Q 306 -813 319 -275 
z
M 784 1719 
Q 784 1066 1043 766 
Q 1303 466 1694 466 
Q 2081 466 2343 764 
Q 2606 1063 2606 1700 
Q 2606 2309 2336 2618 
Q 2066 2928 1684 2928 
Q 1309 2928 1046 2623 
Q 784 2319 784 1719 
z
" transform="scale(0.015625)"/>
     </defs>
     <use xlink:href="#ArialMT-55"/>
     <use xlink:href="#ArialMT-6e" transform="translate(72.216797 0)"/>
     <use xlink:href="#ArialMT-64" transform="translate(127.832031 0)"/>
     <use xlink:href="#ArialMT-65" transform="translate(183.447266 0)"/>
     <use xlink:href="#ArialMT-72" transform="translate(239.0625 0)"/>
     <use xlink:href="#ArialMT-66" transform="translate(272.363281 0)"/>
     <use xlink:href="#ArialMT-69" transform="translate(300.146484 0)"/>
     <use xlink:href="#ArialMT-74" transform="translate(322.363281 0)"/>
     <use xlink:href="#ArialMT-74" transform="translate(350.146484 0)"/>
     <use xlink:href="#ArialMT-69" transform="translate(377.929688 0)"/>
     <use xlink:href="#ArialMT-6e" transform="translate(400.146484 0)"/>
     <use xlink:href="#ArialMT-67" transform="translate(455.761719 0)"/>
    </g>
    <!-- (High Bias) -->
    <g style="fill: #8c2448" transform="translate(81.129375 336.5025) scale(0.1 -0.1)">
     <defs>
      <path id="ArialMT-28" d="M 1497 -1347 
Q 1031 -759 709 28 
Q 388 816 388 1659 
Q 388 2403 628 3084 
Q 909 3875 1497 4659 
L 1900 4659 
Q 1522 4009 1400 3731 
Q 1209 3300 1100 2831 
Q 966 2247 966 1656 
Q 966 153 1900 -1347 
L 1497 -1347 
z
" transform="scale(0.015625)"/>
      <path id="ArialMT-48" d="M 513 0 
L 513 4581 
L 1119 4581 
L 1119 2700 
L 3500 2700 
L 3500 4581 
L 4106 4581 
L 4106 0 
L 3500 0 
L 3500 2159 
L 1119 2159 
L 1119 0 
L 513 0 
z
" transform="scale(0.015625)"/>
      <path id="ArialMT-68" d="M 422 0 
L 422 4581 
L 984 4581 
L 984 2938 
Q 1378 3394 1978 3394 
Q 2347 3394 2619 3248 
Q 2891 3103 3008 2847 
Q 3125 2591 3125 2103 
L 3125 0 
L 2563 0 
L 2563 2103 
Q 2563 2525 2380 2717 
Q 2197 2909 1863 2909 
Q 1613 2909 1392 2779 
Q 1172 2650 1078 2428 
Q 984 2206 984 1816 
L 984 0 
L 422 0 
z
" transform="scale(0.015625)"/>
      <path id="ArialMT-20" transform="scale(0.015625)"/>
      <path id="ArialMT-42" d="M 469 0 
L 469 4581 
L 2188 4581 
Q 2713 4581 3030 4442 
Q 3347 4303 3526 4014 
Q 3706 3725 3706 3409 
Q 3706 3116 3547 2856 
Q 3388 2597 3066 2438 
Q 3481 2316 3704 2022 
Q 3928 1728 3928 1328 
Q 3928 1006 3792 729 
Q 3656 453 3456 303 
Q 3256 153 2954 76 
Q 2653 0 2216 0 
L 469 0 
z
M 1075 2656 
L 2066 2656 
Q 2469 2656 2644 2709 
Q 2875 2778 2992 2937 
Q 3109 3097 3109 3338 
Q 3109 3566 3000 3739 
Q 2891 3913 2687 3977 
Q 2484 4041 1991 4041 
L 1075 4041 
L 1075 2656 
z
M 1075 541 
L 2216 541 
Q 2509 541 2628 563 
Q 2838 600 2978 687 
Q 3119 775 3209 942 
Q 3300 1109 3300 1328 
Q 3300 1584 3169 1773 
Q 3038 1963 2805 2039 
Q 2572 2116 2134 2116 
L 1075 2116 
L 1075 541 
z
" transform="scale(0.015625)"/>
      <path id="ArialMT-61" d="M 2588 409 
Q 2275 144 1986 34 
Q 1697 -75 1366 -75 
Q 819 -75 525 192 
Q 231 459 231 875 
Q 231 1119 342 1320 
Q 453 1522 633 1644 
Q 813 1766 1038 1828 
Q 1203 1872 1538 1913 
Q 2219 1994 2541 2106 
Q 2544 2222 2544 2253 
Q 2544 2597 2384 2738 
Q 2169 2928 1744 2928 
Q 1347 2928 1158 2789 
Q 969 2650 878 2297 
L 328 2372 
Q 403 2725 575 2942 
Q 747 3159 1072 3276 
Q 1397 3394 1825 3394 
Q 2250 3394 2515 3294 
Q 2781 3194 2906 3042 
Q 3031 2891 3081 2659 
Q 3109 2516 3109 2141 
L 3109 1391 
Q 3109 606 3145 398 
Q 3181 191 3288 0 
L 2700 0 
Q 2613 175 2588 409 
z
M 2541 1666 
Q 2234 1541 1622 1453 
Q 1275 1403 1131 1340 
Q 988 1278 909 1158 
Q 831 1038 831 891 
Q 831 666 1001 516 
Q 1172 366 1500 366 
Q 1825 366 2078 508 
Q 2331 650 2450 897 
Q 2541 1088 2541 1459 
L 2541 1666 
z
" transform="scale(0.015625)"/>
      <path id="ArialMT-73" d="M 197 991 
L 753 1078 
Q 800 744 1014 566 
Q 1228 388 1613 388 
Q 2000 388 2187 545 
Q 2375 703 2375 916 
Q 2375 1106 2209 1216 
Q 2094 1291 1634 1406 
Q 1016 1563 777 1677 
Q 538 1791 414 1992 
Q 291 2194 291 2438 
Q 291 2659 392 2848 
Q 494 3038 669 3163 
Q 800 3259 1026 3326 
Q 1253 3394 1513 3394 
Q 1903 3394 2198 3281 
Q 2494 3169 2634 2976 
Q 2775 2784 2828 2463 
L 2278 2388 
Q 2241 2644 2061 2787 
Q 1881 2931 1553 2931 
Q 1166 2931 1000 2803 
Q 834 2675 834 2503 
Q 834 2394 903 2306 
Q 972 2216 1119 2156 
Q 1203 2125 1616 2013 
Q 2213 1853 2448 1751 
Q 2684 1650 2818 1456 
Q 2953 1263 2953 975 
Q 2953 694 2789 445 
Q 2625 197 2315 61 
Q 2006 -75 1616 -75 
Q 969 -75 630 194 
Q 291 463 197 991 
z
" transform="scale(0.015625)"/>
      <path id="ArialMT-29" d="M 791 -1347 
L 388 -1347 
Q 1322 153 1322 1656 
Q 1322 2244 1188 2822 
Q 1081 3291 891 3722 
Q 769 4003 388 4659 
L 791 4659 
Q 1378 3875 1659 3084 
Q 1900 2403 1900 1659 
Q 1900 816 1576 28 
Q 1253 -759 791 -1347 
z
" transform="scale(0.015625)"/>
     </defs>
     <use xlink:href="#ArialMT-28"/>
     <use xlink:href="#ArialMT-48" transform="translate(33.300781 0)"/>
     <use xlink:href="#ArialMT-69" transform="translate(105.517578 0)"/>
     <use xlink:href="#ArialMT-67" transform="translate(127.734375 0)"/>
     <use xlink:href="#ArialMT-68" transform="translate(183.349609 0)"/>
     <use xlink:href="#ArialMT-20" transform="translate(238.964844 0)"/>
     <use xlink:href="#ArialMT-42" transform="translate(266.748047 0)"/>
     <use xlink:href="#ArialMT-69" transform="translate(333.447266 0)"/>
     <use xlink:href="#ArialMT-61" transform="translate(355.664062 0)"/>
     <use xlink:href="#ArialMT-73" transform="translate(411.279297 0)"/>
     <use xlink:href="#ArialMT-29" transform="translate(461.279297 0)"/>
    </g>
   </g>
   <g id="text_5">
    <!-- Overfitting -->
    <g style="fill: #1a6b5c" transform="translate(473.673125 325.662187) scale(0.1 -0.1)">
     <defs>
      <path id="ArialMT-4f" d="M 309 2231 
Q 309 3372 921 4017 
Q 1534 4663 2503 4663 
Q 3138 4663 3647 4359 
Q 4156 4056 4423 3514 
Q 4691 2972 4691 2284 
Q 4691 1588 4409 1038 
Q 4128 488 3612 205 
Q 3097 -78 2500 -78 
Q 1853 -78 1343 234 
Q 834 547 571 1087 
Q 309 1628 309 2231 
z
M 934 2222 
Q 934 1394 1379 917 
Q 1825 441 2497 441 
Q 3181 441 3623 922 
Q 4066 1403 4066 2288 
Q 4066 2847 3877 3264 
Q 3688 3681 3323 3911 
Q 2959 4141 2506 4141 
Q 1863 4141 1398 3698 
Q 934 3256 934 2222 
z
" transform="scale(0.015625)"/>
      <path id="ArialMT-76" d="M 1344 0 
L 81 3319 
L 675 3319 
L 1388 1331 
Q 1503 1009 1600 663 
Q 1675 925 1809 1294 
L 2547 3319 
L 3125 3319 
L 1869 0 
L 1344 0 
z
" transform="scale(0.015625)"/>
     </defs>
     <use xlink:href="#ArialMT-4f"/>
     <use xlink:href="#ArialMT-76" transform="translate(77.783203 0)"/>
     <use xlink:href="#ArialMT-65" transform="translate(127.783203 0)"/>
     <use xlink:href="#ArialMT-72" transform="translate(183.398438 0)"/>
     <use xlink:href="#ArialMT-66" transform="translate(216.699219 0)"/>
     <use xlink:href="#ArialMT-69" transform="translate(244.482422 0)"/>
     <use xlink:href="#ArialMT-74" transform="translate(266.699219 0)"/>
     <use xlink:href="#ArialMT-74" transform="translate(294.482422 0)"/>
     <use xlink:href="#ArialMT-69" transform="translate(322.265625 0)"/>
     <use xlink:href="#ArialMT-6e" transform="translate(344.482422 0)"/>
     <use xlink:href="#ArialMT-67" transform="translate(400.097656 0)"/>
    </g>
    <!-- (High Variance) -->
    <g style="fill: #1a6b5c" transform="translate(462.091875 336.5025) scale(0.1 -0.1)">
     <defs>
      <path id="ArialMT-56" d="M 1803 0 
L 28 4581 
L 684 4581 
L 1875 1253 
Q 2019 853 2116 503 
Q 2222 878 2363 1253 
L 3600 4581 
L 4219 4581 
L 2425 0 
L 1803 0 
z
" transform="scale(0.015625)"/>
      <path id="ArialMT-63" d="M 2588 1216 
L 3141 1144 
Q 3050 572 2676 248 
Q 2303 -75 1759 -75 
Q 1078 -75 664 370 
Q 250 816 250 1647 
Q 250 2184 428 2587 
Q 606 2991 970 3192 
Q 1334 3394 1763 3394 
Q 2303 3394 2647 3120 
Q 2991 2847 3088 2344 
L 2541 2259 
Q 2463 2594 2264 2762 
Q 2066 2931 1784 2931 
Q 1359 2931 1093 2626 
Q 828 2322 828 1663 
Q 828 994 1084 691 
Q 1341 388 1753 388 
Q 2084 388 2306 591 
Q 2528 794 2588 1216 
z
" transform="scale(0.015625)"/>
     </defs>
     <use xlink:href="#ArialMT-28"/>
     <use xlink:href="#ArialMT-48" transform="translate(33.300781 0)"/>
     <use xlink:href="#ArialMT-69" transform="translate(105.517578 0)"/>
     <use xlink:href="#ArialMT-67" transform="translate(127.734375 0)"/>
     <use xlink:href="#ArialMT-68" transform="translate(183.349609 0)"/>
     <use xlink:href="#ArialMT-20" transform="translate(238.964844 0)"/>
     <use xlink:href="#ArialMT-56" transform="translate(266.748047 0)"/>
     <use xlink:href="#ArialMT-61" transform="translate(326.072266 0)"/>
     <use xlink:href="#ArialMT-72" transform="translate(381.6875 0)"/>
     <use xlink:href="#ArialMT-69" transform="translate(414.988281 0)"/>
     <use xlink:href="#ArialMT-61" transform="translate(437.205078 0)"/>
     <use xlink:href="#ArialMT-6e" transform="translate(492.820312 0)"/>
     <use xlink:href="#ArialMT-63" transform="translate(548.435547 0)"/>
     <use xlink:href="#ArialMT-65" transform="translate(598.435547 0)"/>
     <use xlink:href="#ArialMT-29" transform="translate(654.050781 0)"/>
    </g>
   </g>
   <g id="text_6">
    <!-- Bias-Variance Tradeoff -->
    <g style="fill: #1f2937" transform="translate(214.9025 18.6525) scale(0.16 -0.16)">
     <defs>
      <path id="Arial-BoldMT-42" d="M 469 4581 
L 2300 4581 
Q 2844 4581 3111 4536 
Q 3378 4491 3589 4347 
Q 3800 4203 3940 3964 
Q 4081 3725 4081 3428 
Q 4081 3106 3907 2837 
Q 3734 2569 3438 2434 
Q 3856 2313 4081 2019 
Q 4306 1725 4306 1328 
Q 4306 1016 4161 720 
Q 4016 425 3764 248 
Q 3513 72 3144 31 
Q 2913 6 2028 0 
L 469 0 
L 469 4581 
z
M 1394 3819 
L 1394 2759 
L 2000 2759 
Q 2541 2759 2672 2775 
Q 2909 2803 3045 2939 
Q 3181 3075 3181 3297 
Q 3181 3509 3064 3642 
Q 2947 3775 2716 3803 
Q 2578 3819 1925 3819 
L 1394 3819 
z
M 1394 1997 
L 1394 772 
L 2250 772 
Q 2750 772 2884 800 
Q 3091 838 3220 983 
Q 3350 1128 3350 1372 
Q 3350 1578 3250 1722 
Q 3150 1866 2961 1931 
Q 2772 1997 2141 1997 
L 1394 1997 
z
" transform="scale(0.015625)"/>
      <path id="Arial-BoldMT-73" d="M 150 947 
L 1031 1081 
Q 1088 825 1259 692 
Q 1431 559 1741 559 
Q 2081 559 2253 684 
Q 2369 772 2369 919 
Q 2369 1019 2306 1084 
Q 2241 1147 2013 1200 
Q 950 1434 666 1628 
Q 272 1897 272 2375 
Q 272 2806 612 3100 
Q 953 3394 1669 3394 
Q 2350 3394 2681 3172 
Q 3013 2950 3138 2516 
L 2309 2363 
Q 2256 2556 2107 2659 
Q 1959 2763 1684 2763 
Q 1338 2763 1188 2666 
Q 1088 2597 1088 2488 
Q 1088 2394 1175 2328 
Q 1294 2241 1995 2081 
Q 2697 1922 2975 1691 
Q 3250 1456 3250 1038 
Q 3250 581 2869 253 
Q 2488 -75 1741 -75 
Q 1063 -75 667 200 
Q 272 475 150 947 
z
" transform="scale(0.015625)"/>
      <path id="Arial-BoldMT-2d" d="M 359 1222 
L 359 2100 
L 2084 2100 
L 2084 1222 
L 359 1222 
z
" transform="scale(0.015625)"/>
      <path id="Arial-BoldMT-56" d="M 1634 0 
L -3 4581 
L 1000 4581 
L 2159 1191 
L 3281 4581 
L 4263 4581 
L 2622 0 
L 1634 0 
z
" transform="scale(0.015625)"/>
      <path id="Arial-BoldMT-6e" d="M 3478 0 
L 2600 0 
L 2600 1694 
Q 2600 2231 2544 2389 
Q 2488 2547 2361 2634 
Q 2234 2722 2056 2722 
Q 1828 2722 1647 2597 
Q 1466 2472 1398 2265 
Q 1331 2059 1331 1503 
L 1331 0 
L 453 0 
L 453 3319 
L 1269 3319 
L 1269 2831 
Q 1703 3394 2363 3394 
Q 2653 3394 2893 3289 
Q 3134 3184 3257 3021 
Q 3381 2859 3429 2653 
Q 3478 2447 3478 2063 
L 3478 0 
z
" transform="scale(0.015625)"/>
      <path id="Arial-BoldMT-63" d="M 3353 2338 
L 2488 2181 
Q 2444 2441 2289 2572 
Q 2134 2703 1888 2703 
Q 1559 2703 1364 2476 
Q 1169 2250 1169 1719 
Q 1169 1128 1367 884 
Q 1566 641 1900 641 
Q 2150 641 2309 783 
Q 2469 925 2534 1272 
L 3397 1125 
Q 3263 531 2881 228 
Q 2500 -75 1859 -75 
Q 1131 -75 698 384 
Q 266 844 266 1656 
Q 266 2478 700 2936 
Q 1134 3394 1875 3394 
Q 2481 3394 2839 3133 
Q 3197 2872 3353 2338 
z
" transform="scale(0.015625)"/>
      <path id="Arial-BoldMT-54" d="M 1497 0 
L 1497 3806 
L 138 3806 
L 138 4581 
L 3778 4581 
L 3778 3806 
L 2422 3806 
L 2422 0 
L 1497 0 
z
" transform="scale(0.015625)"/>
      <path id="Arial-BoldMT-66" d="M 75 3319 
L 563 3319 
L 563 3569 
Q 563 3988 652 4194 
Q 741 4400 980 4529 
Q 1219 4659 1584 4659 
Q 1959 4659 2319 4547 
L 2200 3934 
Q 1991 3984 1797 3984 
Q 1606 3984 1523 3895 
Q 1441 3806 1441 3553 
L 1441 3319 
L 2097 3319 
L 2097 2628 
L 1441 2628 
L 1441 0 
L 563 0 
L 563 2628 
L 75 2628 
L 75 3319 
z
" transform="scale(0.015625)"/>
     </defs>
     <use xlink:href="#Arial-BoldMT-42"/>
     <use xlink:href="#Arial-BoldMT-69" transform="translate(72.216797 0)"/>
     <use xlink:href="#Arial-BoldMT-61" transform="translate(100 0)"/>
     <use xlink:href="#Arial-BoldMT-73" transform="translate(155.615234 0)"/>
     <use xlink:href="#Arial-BoldMT-2d" transform="translate(211.230469 0)"/>
     <use xlink:href="#Arial-BoldMT-56" transform="translate(244.53125 0)"/>
     <use xlink:href="#Arial-BoldMT-61" transform="translate(305.730469 0)"/>
     <use xlink:href="#Arial-BoldMT-72" transform="translate(361.345703 0)"/>
     <use xlink:href="#Arial-BoldMT-69" transform="translate(400.261719 0)"/>
     <use xlink:href="#Arial-BoldMT-61" transform="translate(428.044922 0)"/>
     <use xlink:href="#Arial-BoldMT-6e" transform="translate(483.660156 0)"/>
     <use xlink:href="#Arial-BoldMT-63" transform="translate(544.744141 0)"/>
     <use xlink:href="#Arial-BoldMT-65" transform="translate(600.359375 0)"/>
     <use xlink:href="#Arial-BoldMT-20" transform="translate(655.974609 0)"/>
     <use xlink:href="#Arial-BoldMT-54" transform="translate(683.757812 0)"/>
     <use xlink:href="#Arial-BoldMT-72" transform="translate(739.341797 0)"/>
     <use xlink:href="#Arial-BoldMT-61" transform="translate(778.257812 0)"/>
     <use xlink:href="#Arial-BoldMT-64" transform="translate(833.873047 0)"/>
     <use xlink:href="#Arial-BoldMT-65" transform="translate(894.957031 0)"/>
     <use xlink:href="#Arial-BoldMT-6f" transform="translate(950.572266 0)"/>
     <use xlink:href="#Arial-BoldMT-66" transform="translate(1011.65625 0)"/>
     <use xlink:href="#Arial-BoldMT-66" transform="translate(1044.957031 0)"/>
    </g>
   </g>
   <g id="PathCollection_1">
    <defs>
     <path id="mc7659d3034" d="M 0 6.123724 
C 1.624031 6.123724 3.181764 5.47849 4.330127 4.330127 
C 5.47849 3.181764 6.123724 1.624031 6.123724 0 
C 6.123724 -1.624031 5.47849 -3.181764 4.330127 -4.330127 
C 3.181764 -5.47849 1.624031 -6.123724 0 -6.123724 
C -1.624031 -6.123724 -3.181764 -5.47849 -4.330127 -4.330127 
C -5.47849 -3.181764 -6.123724 -1.624031 -6.123724 0 
C -6.123724 1.624031 -5.47849 3.181764 -4.330127 4.330127 
C -3.181764 5.47849 -1.624031 6.123724 0 6.123724 
z
" style="stroke: #ffffff; stroke-width: 2"/>
    </defs>
    <g clip-path="url(#p8487d11d00)">
     <use xlink:href="#mc7659d3034" x="253.248409" y="198.385954" style="fill: #d4a017; stroke: #ffffff; stroke-width: 2"/>
    </g>
   </g>
   <g id="legend_1">
    <g id="line2d_5">
     <path d="M 488.730312 38.576094 
L 499.730312 38.576094 
L 510.730312 38.576094 
" style="fill: none; stroke: #1a6b5c; stroke-width: 3; stroke-linecap: round"/>
    </g>
    <g id="text_7">
     <!-- Bias² -->
     <g style="fill: #262626" transform="translate(519.530312 42.426094) scale(0.11 -0.11)">
      <defs>
       <path id="ArialMT-b2" d="M 78 2291 
Q 97 2469 225 2647 
Q 422 2916 872 3242 
Q 1322 3569 1406 3663 
Q 1522 3791 1522 3925 
Q 1522 4075 1412 4172 
Q 1303 4269 1091 4269 
Q 884 4269 782 4195 
Q 681 4122 616 3913 
L 144 3963 
Q 234 4309 457 4473 
Q 681 4638 1100 4638 
Q 1572 4638 1792 4453 
Q 2013 4269 2013 4003 
Q 2013 3741 1828 3506 
Q 1688 3331 1188 2972 
Q 928 2781 819 2669 
L 2025 2669 
L 2025 2291 
L 78 2291 
z
" transform="scale(0.015625)"/>
      </defs>
      <use xlink:href="#ArialMT-42"/>
      <use xlink:href="#ArialMT-69" transform="translate(66.699219 0)"/>
      <use xlink:href="#ArialMT-61" transform="translate(88.916016 0)"/>
      <use xlink:href="#ArialMT-73" transform="translate(144.53125 0)"/>
      <use xlink:href="#ArialMT-b2" transform="translate(194.53125 0)"/>
     </g>
    </g>
    <g id="line2d_6">
     <path d="M 488.730312 54.135937 
L 499.730312 54.135937 
L 510.730312 54.135937 
" style="fill: none; stroke: #8c2448; stroke-width: 3; stroke-linecap: round"/>
    </g>
    <g id="text_8">
     <!-- Variance -->
     <g style="fill: #262626" transform="translate(519.530312 57.985937) scale(0.11 -0.11)">
      <use xlink:href="#ArialMT-56"/>
      <use xlink:href="#ArialMT-61" transform="translate(59.324219 0)"/>
      <use xlink:href="#ArialMT-72" transform="translate(114.939453 0)"/>
      <use xlink:href="#ArialMT-69" transform="translate(148.240234 0)"/>
      <use xlink:href="#ArialMT-61" transform="translate(170.457031 0)"/>
      <use xlink:href="#ArialMT-6e" transform="translate(226.072266 0)"/>
      <use xlink:href="#ArialMT-63" transform="translate(281.6875 0)"/>
      <use xlink:href="#ArialMT-65" transform="translate(331.6875 0)"/>
     </g>
    </g>
    <g id="line2d_7">
     <path d="M 488.730312 69.695781 
L 499.730312 69.695781 
L 510.730312 69.695781 
" style="fill: none; stroke: #d4a017; stroke-width: 4; stroke-linecap: round"/>
    </g>
    <g id="text_9">
     <!-- Total Error -->
     <g style="fill: #262626" transform="translate(519.530312 73.545781) scale(0.11 -0.11)">
      <defs>
       <path id="ArialMT-54" d="M 1659 0 
L 1659 4041 
L 150 4041 
L 150 4581 
L 3781 4581 
L 3781 4041 
L 2266 4041 
L 2266 0 
L 1659 0 
z
" transform="scale(0.015625)"/>
       <path id="ArialMT-6f" d="M 213 1659 
Q 213 2581 725 3025 
Q 1153 3394 1769 3394 
Q 2453 3394 2887 2945 
Q 3322 2497 3322 1706 
Q 3322 1066 3130 698 
Q 2938 331 2570 128 
Q 2203 -75 1769 -75 
Q 1072 -75 642 372 
Q 213 819 213 1659 
z
M 791 1659 
Q 791 1022 1069 705 
Q 1347 388 1769 388 
Q 2188 388 2466 706 
Q 2744 1025 2744 1678 
Q 2744 2294 2464 2611 
Q 2184 2928 1769 2928 
Q 1347 2928 1069 2612 
Q 791 2297 791 1659 
z
" transform="scale(0.015625)"/>
       <path id="ArialMT-6c" d="M 409 0 
L 409 4581 
L 972 4581 
L 972 0 
L 409 0 
z
" transform="scale(0.015625)"/>
       <path id="ArialMT-45" d="M 506 0 
L 506 4581 
L 3819 4581 
L 3819 4041 
L 1113 4041 
L 1113 2638 
L 3647 2638 
L 3647 2100 
L 1113 2100 
L 1113 541 
L 3925 541 
L 3925 0 
L 506 0 
z
" transform="scale(0.015625)"/>
      </defs>
      <use xlink:href="#ArialMT-54"/>
      <use xlink:href="#ArialMT-6f" transform="translate(49.958984 0)"/>
      <use xlink:href="#ArialMT-74" transform="translate(105.574219 0)"/>
      <use xlink:href="#ArialMT-61" transform="translate(133.357422 0)"/>
      <use xlink:href="#ArialMT-6c" transform="translate(188.972656 0)"/>
      <use xlink:href="#ArialMT-20" transform="translate(211.189453 0)"/>
      <use xlink:href="#ArialMT-45" transform="translate(238.972656 0)"/>
      <use xlink:href="#ArialMT-72" transform="translate(305.671875 0)"/>
      <use xlink:href="#ArialMT-72" transform="translate(338.972656 0)"/>
      <use xlink:href="#ArialMT-6f" transform="translate(372.273438 0)"/>
      <use xlink:href="#ArialMT-72" transform="translate(427.888672 0)"/>
     </g>
    </g>
   </g>
  </g>
 </g>
 <defs>
  <clipPath id="p8487d11d00">
   <rect x="22.1575" y="24.6525" width="558" height="332.64"/>
  </clipPath>
 </defs>
</svg>
