<?xml version="1.0" encoding="utf-8" standalone="no"?>
<!DOCTYPE svg PUBLIC "-//W3C//DTD SVG 1.1//EN"
  "http://www.w3.org/Graphics/SVG/1.1/DTD/svg11.dtd">
<svg xmlns:xlink="http://www.w3.org/1999/xlink" width="495.042656pt" height="389.936719pt" viewBox="0 0 495.042656 389.936719" xmlns="http://www.w3.org/2000/svg" version="1.1">
 <metadata>
  <rdf:RDF xmlns:dc="http://purl.org/dc/elements/1.1/" xmlns:cc="http://creativecommons.org/ns#" xmlns:rdf="http://www.w3.org/1999/02/22-rdf-syntax-ns#">
   <cc:Work>
    <dc:type rdf:resource="http://purl.org/dc/dcmitype/StillImage"/>
    <dc:date>2025-12-22T18:30:28.203990</dc:date>
    <dc:format>image/svg+xml</dc:format>
    <dc:creator>
     <cc:Agent>
      <dc:title>Matplotlib v3.10.7, https://matplotlib.org/</dc:title>
     </cc:Agent>
    </dc:creator>
   </cc:Work>
  </rdf:RDF>
 </metadata>
 <defs>
  <style type="text/css">*{stroke-linejoin: round; stroke-linecap: butt}</style>
 </defs>
 <g id="figure_1">
  <g id="patch_1">
   <path d="M 0 389.936719 
L 495.042656 389.936719 
L 495.042656 0 
L 0 0 
L 0 389.936719 
z
" style="fill: none"/>
  </g>
  <g id="axes_1">
   <g id="patch_2">
    <path d="M 35.881719 356.031562 
L 482.281719 356.031562 
L 482.281719 23.391562 
L 35.881719 23.391562 
L 35.881719 356.031562 
z
" style="fill: none"/>
   </g>
   <g id="matplotlib.axis_1">
    <g id="xtick_1">
     <g id="line2d_1">
      <path d="M 35.881719 356.031562 
L 35.881719 23.391562 
" clip-path="url(#p1985610660)" style="fill: none; stroke: #cccccc; stroke-width: 0.8; stroke-linecap: round"/>
     </g>
     <g id="line2d_2"/>
     <g id="text_1">
      <!-- 0 -->
      <g style="fill: #262626" transform="translate(33.10125 366.689375) scale(0.1 -0.1)">
       <defs>
        <path id="ArialMT-30" d="M 266 2259 
Q 266 3072 433 3567 
Q 600 4063 929 4331 
Q 1259 4600 1759 4600 
Q 2128 4600 2406 4451 
Q 2684 4303 2865 4023 
Q 3047 3744 3150 3342 
Q 3253 2941 3253 2259 
Q 3253 1453 3087 958 
Q 2922 463 2592 192 
Q 2263 -78 1759 -78 
Q 1097 -78 719 397 
Q 266 969 266 2259 
z
M 844 2259 
Q 844 1131 1108 757 
Q 1372 384 1759 384 
Q 2147 384 2411 759 
Q 2675 1134 2675 2259 
Q 2675 3391 2411 3762 
Q 2147 4134 1753 4134 
Q 1366 4134 1134 3806 
Q 844 3388 844 2259 
z
" transform="scale(0.015625)"/>
       </defs>
       <use xlink:href="#ArialMT-30"/>
      </g>
     </g>
    </g>
    <g id="xtick_2">
     <g id="line2d_3">
      <path d="M 125.161719 356.031562 
L 125.161719 23.391562 
" clip-path="url(#p1985610660)" style="fill: none; stroke: #cccccc; stroke-width: 0.8; stroke-linecap: round"/>
     </g>
     <g id="line2d_4"/>
     <g id="text_2">
      <!-- 2 -->
      <g style="fill: #262626" transform="translate(122.38125 366.689375) scale(0.1 -0.1)">
       <defs>
        <path id="ArialMT-32" d="M 3222 541 
L 3222 0 
L 194 0 
Q 188 203 259 391 
Q 375 700 629 1000 
Q 884 1300 1366 1694 
Q 2113 2306 2375 2664 
Q 2638 3022 2638 3341 
Q 2638 3675 2398 3904 
Q 2159 4134 1775 4134 
Q 1369 4134 1125 3890 
Q 881 3647 878 3216 
L 300 3275 
Q 359 3922 746 4261 
Q 1134 4600 1788 4600 
Q 2447 4600 2831 4234 
Q 3216 3869 3216 3328 
Q 3216 3053 3103 2787 
Q 2991 2522 2730 2228 
Q 2469 1934 1863 1422 
Q 1356 997 1212 845 
Q 1069 694 975 541 
L 3222 541 
z
" transform="scale(0.015625)"/>
       </defs>
       <use xlink:href="#ArialMT-32"/>
      </g>
     </g>
    </g>
    <g id="xtick_3">
     <g id="line2d_5">
      <path d="M 214.441719 356.031562 
L 214.441719 23.391562 
" clip-path="url(#p1985610660)" style="fill: none; stroke: #cccccc; stroke-width: 0.8; stroke-linecap: round"/>
     </g>
     <g id="line2d_6"/>
     <g id="text_3">
      <!-- 4 -->
      <g style="fill: #262626" transform="translate(211.66125 366.689375) scale(0.1 -0.1)">
       <defs>
        <path id="ArialMT-34" d="M 2069 0 
L 2069 1097 
L 81 1097 
L 81 1613 
L 2172 4581 
L 2631 4581 
L 2631 1613 
L 3250 1613 
L 3250 1097 
L 2631 1097 
L 2631 0 
L 2069 0 
z
M 2069 1613 
L 2069 3678 
L 634 1613 
L 2069 1613 
z
" transform="scale(0.015625)"/>
       </defs>
       <use xlink:href="#ArialMT-34"/>
      </g>
     </g>
    </g>
    <g id="xtick_4">
     <g id="line2d_7">
      <path d="M 303.721719 356.031562 
L 303.721719 23.391562 
" clip-path="url(#p1985610660)" style="fill: none; stroke: #cccccc; stroke-width: 0.8; stroke-linecap: round"/>
     </g>
     <g id="line2d_8"/>
     <g id="text_4">
      <!-- 6 -->
      <g style="fill: #262626" transform="translate(300.94125 366.689375) scale(0.1 -0.1)">
       <defs>
        <path id="ArialMT-36" d="M 3184 3459 
L 2625 3416 
Q 2550 3747 2413 3897 
Q 2184 4138 1850 4138 
Q 1581 4138 1378 3988 
Q 1113 3794 959 3422 
Q 806 3050 800 2363 
Q 1003 2672 1297 2822 
Q 1591 2972 1913 2972 
Q 2475 2972 2870 2558 
Q 3266 2144 3266 1488 
Q 3266 1056 3080 686 
Q 2894 316 2569 119 
Q 2244 -78 1831 -78 
Q 1128 -78 684 439 
Q 241 956 241 2144 
Q 241 3472 731 4075 
Q 1159 4600 1884 4600 
Q 2425 4600 2770 4297 
Q 3116 3994 3184 3459 
z
M 888 1484 
Q 888 1194 1011 928 
Q 1134 663 1356 523 
Q 1578 384 1822 384 
Q 2178 384 2434 671 
Q 2691 959 2691 1453 
Q 2691 1928 2437 2201 
Q 2184 2475 1800 2475 
Q 1419 2475 1153 2201 
Q 888 1928 888 1484 
z
" transform="scale(0.015625)"/>
       </defs>
       <use xlink:href="#ArialMT-36"/>
      </g>
     </g>
    </g>
    <g id="xtick_5">
     <g id="line2d_9">
      <path d="M 393.001719 356.031562 
L 393.001719 23.391562 
" clip-path="url(#p1985610660)" style="fill: none; stroke: #cccccc; stroke-width: 0.8; stroke-linecap: round"/>
     </g>
     <g id="line2d_10"/>
     <g id="text_5">
      <!-- 8 -->
      <g style="fill: #262626" transform="translate(390.22125 366.689375) scale(0.1 -0.1)">
       <defs>
        <path id="ArialMT-38" d="M 1131 2484 
Q 781 2613 612 2850 
Q 444 3088 444 3419 
Q 444 3919 803 4259 
Q 1163 4600 1759 4600 
Q 2359 4600 2725 4251 
Q 3091 3903 3091 3403 
Q 3091 3084 2923 2848 
Q 2756 2613 2416 2484 
Q 2838 2347 3058 2040 
Q 3278 1734 3278 1309 
Q 3278 722 2862 322 
Q 2447 -78 1769 -78 
Q 1091 -78 675 323 
Q 259 725 259 1325 
Q 259 1772 486 2073 
Q 713 2375 1131 2484 
z
M 1019 3438 
Q 1019 3113 1228 2906 
Q 1438 2700 1772 2700 
Q 2097 2700 2305 2904 
Q 2513 3109 2513 3406 
Q 2513 3716 2298 3927 
Q 2084 4138 1766 4138 
Q 1444 4138 1231 3931 
Q 1019 3725 1019 3438 
z
M 838 1322 
Q 838 1081 952 856 
Q 1066 631 1291 507 
Q 1516 384 1775 384 
Q 2178 384 2440 643 
Q 2703 903 2703 1303 
Q 2703 1709 2433 1975 
Q 2163 2241 1756 2241 
Q 1359 2241 1098 1978 
Q 838 1716 838 1322 
z
" transform="scale(0.015625)"/>
       </defs>
       <use xlink:href="#ArialMT-38"/>
      </g>
     </g>
    </g>
    <g id="xtick_6">
     <g id="line2d_11">
      <path d="M 482.281719 356.031562 
L 482.281719 23.391562 
" clip-path="url(#p1985610660)" style="fill: none; stroke: #cccccc; stroke-width: 0.8; stroke-linecap: round"/>
     </g>
     <g id="line2d_12"/>
     <g id="text_6">
      <!-- 10 -->
      <g style="fill: #262626" transform="translate(476.720781 366.689375) scale(0.1 -0.1)">
       <defs>
        <path id="ArialMT-31" d="M 2384 0 
L 1822 0 
L 1822 3584 
Q 1619 3391 1289 3197 
Q 959 3003 697 2906 
L 697 3450 
Q 1169 3672 1522 3987 
Q 1875 4303 2022 4600 
L 2384 4600 
L 2384 0 
z
" transform="scale(0.015625)"/>
       </defs>
       <use xlink:href="#ArialMT-31"/>
       <use xlink:href="#ArialMT-30" transform="translate(55.615234 0)"/>
      </g>
     </g>
    </g>
    <g id="text_7">
     <!-- Feature 1 -->
     <g style="fill: #262626" transform="translate(235.542578 380.550469) scale(0.11 -0.11)">
      <defs>
       <path id="ArialMT-46" d="M 525 0 
L 525 4581 
L 3616 4581 
L 3616 4041 
L 1131 4041 
L 1131 2622 
L 3281 2622 
L 3281 2081 
L 1131 2081 
L 1131 0 
L 525 0 
z
" transform="scale(0.015625)"/>
       <path id="ArialMT-65" d="M 2694 1069 
L 3275 997 
Q 3138 488 2766 206 
Q 2394 -75 1816 -75 
Q 1088 -75 661 373 
Q 234 822 234 1631 
Q 234 2469 665 2931 
Q 1097 3394 1784 3394 
Q 2450 3394 2872 2941 
Q 3294 2488 3294 1666 
Q 3294 1616 3291 1516 
L 816 1516 
Q 847 969 1125 678 
Q 1403 388 1819 388 
Q 2128 388 2347 550 
Q 2566 713 2694 1069 
z
M 847 1978 
L 2700 1978 
Q 2663 2397 2488 2606 
Q 2219 2931 1791 2931 
Q 1403 2931 1139 2672 
Q 875 2413 847 1978 
z
" transform="scale(0.015625)"/>
       <path id="ArialMT-61" d="M 2588 409 
Q 2275 144 1986 34 
Q 1697 -75 1366 -75 
Q 819 -75 525 192 
Q 231 459 231 875 
Q 231 1119 342 1320 
Q 453 1522 633 1644 
Q 813 1766 1038 1828 
Q 1203 1872 1538 1913 
Q 2219 1994 2541 2106 
Q 2544 2222 2544 2253 
Q 2544 2597 2384 2738 
Q 2169 2928 1744 2928 
Q 1347 2928 1158 2789 
Q 969 2650 878 2297 
L 328 2372 
Q 403 2725 575 2942 
Q 747 3159 1072 3276 
Q 1397 3394 1825 3394 
Q 2250 3394 2515 3294 
Q 2781 3194 2906 3042 
Q 3031 2891 3081 2659 
Q 3109 2516 3109 2141 
L 3109 1391 
Q 3109 606 3145 398 
Q 3181 191 3288 0 
L 2700 0 
Q 2613 175 2588 409 
z
M 2541 1666 
Q 2234 1541 1622 1453 
Q 1275 1403 1131 1340 
Q 988 1278 909 1158 
Q 831 1038 831 891 
Q 831 666 1001 516 
Q 1172 366 1500 366 
Q 1825 366 2078 508 
Q 2331 650 2450 897 
Q 2541 1088 2541 1459 
L 2541 1666 
z
" transform="scale(0.015625)"/>
       <path id="ArialMT-74" d="M 1650 503 
L 1731 6 
Q 1494 -44 1306 -44 
Q 1000 -44 831 53 
Q 663 150 594 308 
Q 525 466 525 972 
L 525 2881 
L 113 2881 
L 113 3319 
L 525 3319 
L 525 4141 
L 1084 4478 
L 1084 3319 
L 1650 3319 
L 1650 2881 
L 1084 2881 
L 1084 941 
Q 1084 700 1114 631 
Q 1144 563 1211 522 
Q 1278 481 1403 481 
Q 1497 481 1650 503 
z
" transform="scale(0.015625)"/>
       <path id="ArialMT-75" d="M 2597 0 
L 2597 488 
Q 2209 -75 1544 -75 
Q 1250 -75 995 37 
Q 741 150 617 320 
Q 494 491 444 738 
Q 409 903 409 1263 
L 409 3319 
L 972 3319 
L 972 1478 
Q 972 1038 1006 884 
Q 1059 663 1231 536 
Q 1403 409 1656 409 
Q 1909 409 2131 539 
Q 2353 669 2445 892 
Q 2538 1116 2538 1541 
L 2538 3319 
L 3100 3319 
L 3100 0 
L 2597 0 
z
" transform="scale(0.015625)"/>
       <path id="ArialMT-72" d="M 416 0 
L 416 3319 
L 922 3319 
L 922 2816 
Q 1116 3169 1280 3281 
Q 1444 3394 1641 3394 
Q 1925 3394 2219 3213 
L 2025 2691 
Q 1819 2813 1613 2813 
Q 1428 2813 1281 2702 
Q 1134 2591 1072 2394 
Q 978 2094 978 1738 
L 978 0 
L 416 0 
z
" transform="scale(0.015625)"/>
       <path id="ArialMT-20" transform="scale(0.015625)"/>
      </defs>
      <use xlink:href="#ArialMT-46"/>
      <use xlink:href="#ArialMT-65" transform="translate(61.083984 0)"/>
      <use xlink:href="#ArialMT-61" transform="translate(116.699219 0)"/>
      <use xlink:href="#ArialMT-74" transform="translate(172.314453 0)"/>
      <use xlink:href="#ArialMT-75" transform="translate(200.097656 0)"/>
      <use xlink:href="#ArialMT-72" transform="translate(255.712891 0)"/>
      <use xlink:href="#ArialMT-65" transform="translate(289.013672 0)"/>
      <use xlink:href="#ArialMT-20" transform="translate(344.628906 0)"/>
      <use xlink:href="#ArialMT-31" transform="translate(372.412109 0)"/>
     </g>
    </g>
   </g>
   <g id="matplotlib.axis_2">
    <g id="ytick_1">
     <g id="line2d_13">
      <path d="M 35.881719 356.031562 
L 482.281719 356.031562 
" clip-path="url(#p1985610660)" style="fill: none; stroke: #cccccc; stroke-width: 0.8; stroke-linecap: round"/>
     </g>
     <g id="line2d_14"/>
     <g id="text_8">
      <!-- 0 -->
      <g style="fill: #262626" transform="translate(26.820781 359.610469) scale(0.1 -0.1)">
       <use xlink:href="#ArialMT-30"/>
      </g>
     </g>
    </g>
    <g id="ytick_2">
     <g id="line2d_15">
      <path d="M 35.881719 289.503562 
L 482.281719 289.503562 
" clip-path="url(#p1985610660)" style="fill: none; stroke: #cccccc; stroke-width: 0.8; stroke-linecap: round"/>
     </g>
     <g id="line2d_16"/>
     <g id="text_9">
      <!-- 2 -->
      <g style="fill: #262626" transform="translate(26.820781 293.082469) scale(0.1 -0.1)">
       <use xlink:href="#ArialMT-32"/>
      </g>
     </g>
    </g>
    <g id="ytick_3">
     <g id="line2d_17">
      <path d="M 35.881719 222.975562 
L 482.281719 222.975562 
" clip-path="url(#p1985610660)" style="fill: none; stroke: #cccccc; stroke-width: 0.8; stroke-linecap: round"/>
     </g>
     <g id="line2d_18"/>
     <g id="text_10">
      <!-- 4 -->
      <g style="fill: #262626" transform="translate(26.820781 226.554469) scale(0.1 -0.1)">
       <use xlink:href="#ArialMT-34"/>
      </g>
     </g>
    </g>
    <g id="ytick_4">
     <g id="line2d_19">
      <path d="M 35.881719 156.447562 
L 482.281719 156.447562 
" clip-path="url(#p1985610660)" style="fill: none; stroke: #cccccc; stroke-width: 0.8; stroke-linecap: round"/>
     </g>
     <g id="line2d_20"/>
     <g id="text_11">
      <!-- 6 -->
      <g style="fill: #262626" transform="translate(26.820781 160.026469) scale(0.1 -0.1)">
       <use xlink:href="#ArialMT-36"/>
      </g>
     </g>
    </g>
    <g id="ytick_5">
     <g id="line2d_21">
      <path d="M 35.881719 89.919562 
L 482.281719 89.919562 
" clip-path="url(#p1985610660)" style="fill: none; stroke: #cccccc; stroke-width: 0.8; stroke-linecap: round"/>
     </g>
     <g id="line2d_22"/>
     <g id="text_12">
      <!-- 8 -->
      <g style="fill: #262626" transform="translate(26.820781 93.498469) scale(0.1 -0.1)">
       <use xlink:href="#ArialMT-38"/>
      </g>
     </g>
    </g>
    <g id="ytick_6">
     <g id="line2d_23">
      <path d="M 35.881719 23.391562 
L 482.281719 23.391562 
" clip-path="url(#p1985610660)" style="fill: none; stroke: #cccccc; stroke-width: 0.8; stroke-linecap: round"/>
     </g>
     <g id="line2d_24"/>
     <g id="text_13">
      <!-- 10 -->
      <g style="fill: #262626" transform="translate(21.259844 26.970469) scale(0.1 -0.1)">
       <use xlink:href="#ArialMT-31"/>
       <use xlink:href="#ArialMT-30" transform="translate(55.615234 0)"/>
      </g>
     </g>
    </g>
    <g id="text_14">
     <!-- Feature 2 -->
     <g style="fill: #262626" transform="translate(15.073594 213.250703) rotate(-90) scale(0.11 -0.11)">
      <use xlink:href="#ArialMT-46"/>
      <use xlink:href="#ArialMT-65" transform="translate(61.083984 0)"/>
      <use xlink:href="#ArialMT-61" transform="translate(116.699219 0)"/>
      <use xlink:href="#ArialMT-74" transform="translate(172.314453 0)"/>
      <use xlink:href="#ArialMT-75" transform="translate(200.097656 0)"/>
      <use xlink:href="#ArialMT-72" transform="translate(255.712891 0)"/>
      <use xlink:href="#ArialMT-65" transform="translate(289.013672 0)"/>
      <use xlink:href="#ArialMT-20" transform="translate(344.628906 0)"/>
      <use xlink:href="#ArialMT-32" transform="translate(372.412109 0)"/>
     </g>
    </g>
   </g>
   <g id="PathCollection_1">
    <defs>
     <path id="m6719ad3e72" d="M 0 4.472136 
C 1.186024 4.472136 2.323632 4.000923 3.162278 3.162278 
C 4.000923 2.323632 4.472136 1.186024 4.472136 0 
C 4.472136 -1.186024 4.000923 -2.323632 3.162278 -3.162278 
C 2.323632 -4.000923 1.186024 -4.472136 0 -4.472136 
C -1.186024 -4.472136 -2.323632 -4.000923 -3.162278 -3.162278 
C -4.000923 -2.323632 -4.472136 -1.186024 -4.472136 0 
C -4.472136 1.186024 -4.000923 2.323632 -3.162278 3.162278 
C -2.323632 4.000923 -1.186024 4.472136 0 4.472136 
z
" style="stroke: #ffffff; stroke-opacity: 0.8; stroke-width: 1.5"/>
    </defs>
    <g clip-path="url(#p1985610660)">
     <use xlink:href="#m6719ad3e72" x="136.248379" y="265.126892" style="fill: #1a6b5c; fill-opacity: 0.8; stroke: #ffffff; stroke-opacity: 0.8; stroke-width: 1.5"/>
     <use xlink:href="#m6719ad3e72" x="122.07566" y="293.258674" style="fill: #1a6b5c; fill-opacity: 0.8; stroke: #ffffff; stroke-opacity: 0.8; stroke-width: 1.5"/>
     <use xlink:href="#m6719ad3e72" x="139.618127" y="288.380433" style="fill: #1a6b5c; fill-opacity: 0.8; stroke: #ffffff; stroke-opacity: 0.8; stroke-width: 1.5"/>
     <use xlink:href="#m6719ad3e72" x="159.155745" y="313.199974" style="fill: #1a6b5c; fill-opacity: 0.8; stroke: #ffffff; stroke-opacity: 0.8; stroke-width: 1.5"/>
     <use xlink:href="#m6719ad3e72" x="119.935415" y="298.557736" style="fill: #1a6b5c; fill-opacity: 0.8; stroke: #ffffff; stroke-opacity: 0.8; stroke-width: 1.5"/>
     <use xlink:href="#m6719ad3e72" x="119.935782" y="287.658698" style="fill: #1a6b5c; fill-opacity: 0.8; stroke: #ffffff; stroke-opacity: 0.8; stroke-width: 1.5"/>
     <use xlink:href="#m6719ad3e72" x="160.409749" y="308.646888" style="fill: #1a6b5c; fill-opacity: 0.8; stroke: #ffffff; stroke-opacity: 0.8; stroke-width: 1.5"/>
     <use xlink:href="#m6719ad3e72" x="142.290862" y="283.254953" style="fill: #1a6b5c; fill-opacity: 0.8; stroke: #ffffff; stroke-opacity: 0.8; stroke-width: 1.5"/>
     <use xlink:href="#m6719ad3e72" x="114.68305" y="299.493385" style="fill: #1a6b5c; fill-opacity: 0.8; stroke: #ffffff; stroke-opacity: 0.8; stroke-width: 1.5"/>
     <use xlink:href="#m6719ad3e72" x="137.271659" y="294.355013" style="fill: #1a6b5c; fill-opacity: 0.8; stroke: #ffffff; stroke-opacity: 0.8; stroke-width: 1.5"/>
     <use xlink:href="#m6719ad3e72" x="114.818236" y="299.511147" style="fill: #1a6b5c; fill-opacity: 0.8; stroke: #ffffff; stroke-opacity: 0.8; stroke-width: 1.5"/>
     <use xlink:href="#m6719ad3e72" x="114.766631" y="258.696472" style="fill: #1a6b5c; fill-opacity: 0.8; stroke: #ffffff; stroke-opacity: 0.8; stroke-width: 1.5"/>
     <use xlink:href="#m6719ad3e72" x="130.562317" y="289.728048" style="fill: #1a6b5c; fill-opacity: 0.8; stroke: #ffffff; stroke-opacity: 0.8; stroke-width: 1.5"/>
     <use xlink:href="#m6719ad3e72" x="82.457304" y="307.095411" style="fill: #1a6b5c; fill-opacity: 0.8; stroke: #ffffff; stroke-opacity: 0.8; stroke-width: 1.5"/>
     <use xlink:href="#m6719ad3e72" x="86.661553" y="275.822996" style="fill: #1a6b5c; fill-opacity: 0.8; stroke: #ffffff; stroke-opacity: 0.8; stroke-width: 1.5"/>
     <use xlink:href="#m6719ad3e72" x="112.611461" y="309.808634" style="fill: #1a6b5c; fill-opacity: 0.8; stroke: #ffffff; stroke-opacity: 0.8; stroke-width: 1.5"/>
     <use xlink:href="#m6719ad3e72" x="102.555328" y="286.029743" style="fill: #1a6b5c; fill-opacity: 0.8; stroke: #ffffff; stroke-opacity: 0.8; stroke-width: 1.5"/>
     <use xlink:href="#m6719ad3e72" x="132.175719" y="322.096796" style="fill: #1a6b5c; fill-opacity: 0.8; stroke: #ffffff; stroke-opacity: 0.8; stroke-width: 1.5"/>
     <use xlink:href="#m6719ad3e72" x="104.894621" y="311.593953" style="fill: #1a6b5c; fill-opacity: 0.8; stroke: #ffffff; stroke-opacity: 0.8; stroke-width: 1.5"/>
     <use xlink:href="#m6719ad3e72" x="93.6391" y="286.229366" style="fill: #1a6b5c; fill-opacity: 0.8; stroke: #ffffff; stroke-opacity: 0.8; stroke-width: 1.5"/>
    </g>
   </g>
   <g id="patch_3">
    <path d="M 121.338335 313.543196 
C 128.261883 313.543196 134.902792 311.476337 139.798479 307.797821 
C 144.694167 304.119306 147.444922 299.129467 147.444922 293.927261 
C 147.444922 288.725054 144.694167 283.735216 139.798479 280.0567 
C 134.902792 276.378184 128.261883 274.311326 121.338335 274.311326 
C 114.414787 274.311326 107.773878 276.378184 102.87819 280.0567 
C 97.982503 283.735216 95.231748 288.725054 95.231748 293.927261 
C 95.231748 299.129467 97.982503 304.119306 102.87819 307.797821 
C 107.773878 311.476337 114.414787 313.543196 121.338335 313.543196 
L 121.338335 313.543196 
z
" clip-path="url(#p1985610660)" style="fill: none; stroke-dasharray: 7.4,3.2; stroke-dashoffset: 0; stroke: #1a6b5c; stroke-width: 2; stroke-linejoin: miter"/>
   </g>
   <g id="PathCollection_2">
    <defs>
     <path id="m0e37e58c54" d="M 0 4.472136 
C 1.186024 4.472136 2.323632 4.000923 3.162278 3.162278 
C 4.000923 2.323632 4.472136 1.186024 4.472136 0 
C 4.472136 -1.186024 4.000923 -2.323632 3.162278 -3.162278 
C 2.323632 -4.000923 1.186024 -4.472136 0 -4.472136 
C -1.186024 -4.472136 -2.323632 -4.000923 -3.162278 -3.162278 
C -4.000923 -2.323632 -4.472136 -1.186024 -4.472136 0 
C -4.472136 1.186024 -4.000923 2.323632 -3.162278 3.162278 
C -2.323632 4.000923 -1.186024 4.472136 0 4.472136 
z
" style="stroke: #ffffff; stroke-opacity: 0.8; stroke-width: 1.5"/>
    </defs>
    <g clip-path="url(#p1985610660)">
     <use xlink:href="#m0e37e58c54" x="368.140808" y="265.803114" style="fill: #8c2448; fill-opacity: 0.8; stroke: #ffffff; stroke-opacity: 0.8; stroke-width: 1.5"/>
     <use xlink:href="#m0e37e58c54" x="352.951647" y="259.945019" style="fill: #8c2448; fill-opacity: 0.8; stroke: #ffffff; stroke-opacity: 0.8; stroke-width: 1.5"/>
     <use xlink:href="#m0e37e58c54" x="345.264195" y="278.320238" style="fill: #8c2448; fill-opacity: 0.8; stroke: #ffffff; stroke-opacity: 0.8; stroke-width: 1.5"/>
     <use xlink:href="#m0e37e58c54" x="340.296957" y="280.113933" style="fill: #8c2448; fill-opacity: 0.8; stroke: #ffffff; stroke-opacity: 0.8; stroke-width: 1.5"/>
     <use xlink:href="#m0e37e58c54" x="308.760986" y="240.022847" style="fill: #8c2448; fill-opacity: 0.8; stroke: #ffffff; stroke-opacity: 0.8; stroke-width: 1.5"/>
     <use xlink:href="#m0e37e58c54" x="329.081411" y="229.171182" style="fill: #8c2448; fill-opacity: 0.8; stroke: #ffffff; stroke-opacity: 0.8; stroke-width: 1.5"/>
     <use xlink:href="#m0e37e58c54" x="336.02397" y="257.676769" style="fill: #8c2448; fill-opacity: 0.8; stroke: #ffffff; stroke-opacity: 0.8; stroke-width: 1.5"/>
     <use xlink:href="#m0e37e58c54" x="376.67568" y="236.210652" style="fill: #8c2448; fill-opacity: 0.8; stroke: #ffffff; stroke-opacity: 0.8; stroke-width: 1.5"/>
     <use xlink:href="#m0e37e58c54" x="357.565191" y="249.021886" style="fill: #8c2448; fill-opacity: 0.8; stroke: #ffffff; stroke-opacity: 0.8; stroke-width: 1.5"/>
     <use xlink:href="#m0e37e58c54" x="301.140451" y="269.115121" style="fill: #8c2448; fill-opacity: 0.8; stroke: #ffffff; stroke-opacity: 0.8; stroke-width: 1.5"/>
     <use xlink:href="#m0e37e58c54" x="357.041984" y="249.026684" style="fill: #8c2448; fill-opacity: 0.8; stroke: #ffffff; stroke-opacity: 0.8; stroke-width: 1.5"/>
     <use xlink:href="#m0e37e58c54" x="338.047675" y="225.542813" style="fill: #8c2448; fill-opacity: 0.8; stroke: #ffffff; stroke-opacity: 0.8; stroke-width: 1.5"/>
     <use xlink:href="#m0e37e58c54" x="330.23104" y="256.954593" style="fill: #8c2448; fill-opacity: 0.8; stroke: #ffffff; stroke-opacity: 0.8; stroke-width: 1.5"/>
     <use xlink:href="#m0e37e58c54" x="364.744856" y="225.011779" style="fill: #8c2448; fill-opacity: 0.8; stroke: #ffffff; stroke-opacity: 0.8; stroke-width: 1.5"/>
     <use xlink:href="#m0e37e58c54" x="375.97601" y="308.525483" style="fill: #8c2448; fill-opacity: 0.8; stroke: #ffffff; stroke-opacity: 0.8; stroke-width: 1.5"/>
     <use xlink:href="#m0e37e58c54" x="373.305125" y="239.835704" style="fill: #8c2448; fill-opacity: 0.8; stroke: #ffffff; stroke-opacity: 0.8; stroke-width: 1.5"/>
     <use xlink:href="#m0e37e58c54" x="325.884117" y="254.502242" style="fill: #8c2448; fill-opacity: 0.8; stroke: #ffffff; stroke-opacity: 0.8; stroke-width: 1.5"/>
     <use xlink:href="#m0e37e58c54" x="340.079774" y="262.207271" style="fill: #8c2448; fill-opacity: 0.8; stroke: #ffffff; stroke-opacity: 0.8; stroke-width: 1.5"/>
     <use xlink:href="#m0e37e58c54" x="357.234278" y="254.408164" style="fill: #8c2448; fill-opacity: 0.8; stroke: #ffffff; stroke-opacity: 0.8; stroke-width: 1.5"/>
     <use xlink:href="#m0e37e58c54" x="374.490719" y="295.908258" style="fill: #8c2448; fill-opacity: 0.8; stroke: #ffffff; stroke-opacity: 0.8; stroke-width: 1.5"/>
    </g>
   </g>
   <g id="patch_4">
    <path d="M 347.646844 283.908045 
C 354.750606 283.908045 361.564373 281.058744 366.587492 275.987668 
C 371.610611 270.916592 374.432965 264.037772 374.432965 256.866188 
C 374.432965 249.694603 371.610611 242.815783 366.587492 237.744707 
C 361.564373 232.673631 354.750606 229.82433 347.646844 229.82433 
C 340.543081 229.82433 333.729314 232.673631 328.706196 237.744707 
C 323.683077 242.815783 320.860722 249.694603 320.860722 256.866188 
C 320.860722 264.037772 323.683077 270.916592 328.706196 275.987668 
C 333.729314 281.058744 340.543081 283.908045 347.646844 283.908045 
L 347.646844 283.908045 
z
" clip-path="url(#p1985610660)" style="fill: none; stroke-dasharray: 7.4,3.2; stroke-dashoffset: 0; stroke: #8c2448; stroke-width: 2; stroke-linejoin: miter"/>
   </g>
   <g id="PathCollection_3">
    <defs>
     <path id="mf135c7dc30" d="M 0 4.472136 
C 1.186024 4.472136 2.323632 4.000923 3.162278 3.162278 
C 4.000923 2.323632 4.472136 1.186024 4.472136 0 
C 4.472136 -1.186024 4.000923 -2.323632 3.162278 -3.162278 
C 2.323632 -4.000923 1.186024 -4.472136 0 -4.472136 
C -1.186024 -4.472136 -2.323632 -4.000923 -3.162278 -3.162278 
C -4.000923 -2.323632 -4.472136 -1.186024 -4.472136 0 
C -4.472136 1.186024 -4.000923 2.323632 -3.162278 3.162278 
C -2.323632 4.000923 -1.186024 4.472136 0 4.472136 
z
" style="stroke: #ffffff; stroke-opacity: 0.8; stroke-width: 1.5"/>
    </defs>
    <g clip-path="url(#p1985610660)">
     <use xlink:href="#mf135c7dc30" x="254.178642" y="146.724009" style="fill: #d4a017; fill-opacity: 0.8; stroke: #ffffff; stroke-opacity: 0.8; stroke-width: 1.5"/>
     <use xlink:href="#mf135c7dc30" x="267.052471" y="130.179736" style="fill: #d4a017; fill-opacity: 0.8; stroke: #ffffff; stroke-opacity: 0.8; stroke-width: 1.5"/>
     <use xlink:href="#mf135c7dc30" x="292.068314" y="128.88359" style="fill: #d4a017; fill-opacity: 0.8; stroke: #ffffff; stroke-opacity: 0.8; stroke-width: 1.5"/>
     <use xlink:href="#mf135c7dc30" x="247.513927" y="136.527038" style="fill: #d4a017; fill-opacity: 0.8; stroke: #ffffff; stroke-opacity: 0.8; stroke-width: 1.5"/>
     <use xlink:href="#mf135c7dc30" x="241.036142" y="125.866066" style="fill: #d4a017; fill-opacity: 0.8; stroke: #ffffff; stroke-opacity: 0.8; stroke-width: 1.5"/>
     <use xlink:href="#mf135c7dc30" x="247.882502" y="116.463389" style="fill: #d4a017; fill-opacity: 0.8; stroke: #ffffff; stroke-opacity: 0.8; stroke-width: 1.5"/>
     <use xlink:href="#mf135c7dc30" x="279.513494" y="91.812519" style="fill: #d4a017; fill-opacity: 0.8; stroke: #ffffff; stroke-opacity: 0.8; stroke-width: 1.5"/>
     <use xlink:href="#mf135c7dc30" x="266.419444" y="120.279984" style="fill: #d4a017; fill-opacity: 0.8; stroke: #ffffff; stroke-opacity: 0.8; stroke-width: 1.5"/>
     <use xlink:href="#mf135c7dc30" x="247.257471" y="118.899984" style="fill: #d4a017; fill-opacity: 0.8; stroke: #ffffff; stroke-opacity: 0.8; stroke-width: 1.5"/>
     <use xlink:href="#mf135c7dc30" x="270.537848" y="124.421747" style="fill: #d4a017; fill-opacity: 0.8; stroke: #ffffff; stroke-opacity: 0.8; stroke-width: 1.5"/>
     <use xlink:href="#mf135c7dc30" x="261.24849" y="155.096565" style="fill: #d4a017; fill-opacity: 0.8; stroke: #ffffff; stroke-opacity: 0.8; stroke-width: 1.5"/>
     <use xlink:href="#mf135c7dc30" x="280.701875" y="123.624541" style="fill: #d4a017; fill-opacity: 0.8; stroke: #ffffff; stroke-opacity: 0.8; stroke-width: 1.5"/>
     <use xlink:href="#mf135c7dc30" x="243.411894" y="122.181814" style="fill: #d4a017; fill-opacity: 0.8; stroke: #ffffff; stroke-opacity: 0.8; stroke-width: 1.5"/>
     <use xlink:href="#mf135c7dc30" x="251.7683" y="82.21492" style="fill: #d4a017; fill-opacity: 0.8; stroke: #ffffff; stroke-opacity: 0.8; stroke-width: 1.5"/>
     <use xlink:href="#mf135c7dc30" x="250.329865" y="126.38291" style="fill: #d4a017; fill-opacity: 0.8; stroke: #ffffff; stroke-opacity: 0.8; stroke-width: 1.5"/>
     <use xlink:href="#mf135c7dc30" x="226.416065" y="118.168227" style="fill: #d4a017; fill-opacity: 0.8; stroke: #ffffff; stroke-opacity: 0.8; stroke-width: 1.5"/>
     <use xlink:href="#mf135c7dc30" x="265.691123" y="123.760889" style="fill: #d4a017; fill-opacity: 0.8; stroke: #ffffff; stroke-opacity: 0.8; stroke-width: 1.5"/>
     <use xlink:href="#mf135c7dc30" x="264.908472" y="142.621016" style="fill: #d4a017; fill-opacity: 0.8; stroke: #ffffff; stroke-opacity: 0.8; stroke-width: 1.5"/>
     <use xlink:href="#mf135c7dc30" x="259.195851" y="104.176133" style="fill: #d4a017; fill-opacity: 0.8; stroke: #ffffff; stroke-opacity: 0.8; stroke-width: 1.5"/>
     <use xlink:href="#mf135c7dc30" x="253.845734" y="110.677412" style="fill: #d4a017; fill-opacity: 0.8; stroke: #ffffff; stroke-opacity: 0.8; stroke-width: 1.5"/>
    </g>
   </g>
   <g id="patch_5">
    <path d="M 258.548896 143.17123 
C 263.530896 143.17123 268.309516 140.987713 271.832321 137.101573 
C 275.355127 133.215433 277.334496 127.943956 277.334496 122.448124 
C 277.334496 116.952293 275.355127 111.680816 271.832321 107.794676 
C 268.309516 103.908536 263.530896 101.725019 258.548896 101.725019 
C 253.566897 101.725019 248.788276 103.908536 245.265471 107.794676 
C 241.742665 111.680816 239.763296 116.952293 239.763296 122.448124 
C 239.763296 127.943956 241.742665 133.215433 245.265471 137.101573 
C 248.788276 140.987713 253.566897 143.17123 258.548896 143.17123 
L 258.548896 143.17123 
z
" clip-path="url(#p1985610660)" style="fill: none; stroke-dasharray: 7.4,3.2; stroke-dashoffset: 0; stroke: #d4a017; stroke-width: 2; stroke-linejoin: miter"/>
   </g>
   <g id="patch_6">
    <path d="M 35.881719 356.031562 
L 35.881719 23.391562 
" style="fill: none; stroke: #cccccc; stroke-linejoin: miter; stroke-linecap: square"/>
   </g>
   <g id="patch_7">
    <path d="M 482.281719 356.031562 
L 482.281719 23.391562 
" style="fill: none; stroke: #cccccc; stroke-linejoin: miter; stroke-linecap: square"/>
   </g>
   <g id="patch_8">
    <path d="M 35.881719 356.031562 
L 482.281719 356.031562 
" style="fill: none; stroke: #cccccc; stroke-linejoin: miter; stroke-linecap: square"/>
   </g>
   <g id="patch_9">
    <path d="M 35.881719 23.391562 
L 482.281719 23.391562 
" style="fill: none; stroke: #cccccc; stroke-linejoin: miter; stroke-linecap: square"/>
   </g>
   <g id="text_15">
    <!-- Clustering: Group Similar Data Points -->
    <g style="fill: #262626" transform="translate(133.460156 17.391562) scale(0.14 -0.14)">
     <defs>
      <path id="Arial-BoldMT-43" d="M 3397 1684 
L 4294 1400 
Q 4088 650 3608 286 
Q 3128 -78 2391 -78 
Q 1478 -78 890 545 
Q 303 1169 303 2250 
Q 303 3394 893 4026 
Q 1484 4659 2447 4659 
Q 3288 4659 3813 4163 
Q 4125 3869 4281 3319 
L 3366 3100 
Q 3284 3456 3026 3662 
Q 2769 3869 2400 3869 
Q 1891 3869 1573 3503 
Q 1256 3138 1256 2319 
Q 1256 1450 1568 1081 
Q 1881 713 2381 713 
Q 2750 713 3015 947 
Q 3281 1181 3397 1684 
z
" transform="scale(0.015625)"/>
      <path id="Arial-BoldMT-6c" d="M 459 0 
L 459 4581 
L 1338 4581 
L 1338 0 
L 459 0 
z
" transform="scale(0.015625)"/>
      <path id="Arial-BoldMT-75" d="M 2644 0 
L 2644 497 
Q 2463 231 2167 78 
Q 1872 -75 1544 -75 
Q 1209 -75 943 72 
Q 678 219 559 484 
Q 441 750 441 1219 
L 441 3319 
L 1319 3319 
L 1319 1794 
Q 1319 1094 1367 936 
Q 1416 778 1544 686 
Q 1672 594 1869 594 
Q 2094 594 2272 717 
Q 2450 841 2515 1023 
Q 2581 1206 2581 1919 
L 2581 3319 
L 3459 3319 
L 3459 0 
L 2644 0 
z
" transform="scale(0.015625)"/>
      <path id="Arial-BoldMT-73" d="M 150 947 
L 1031 1081 
Q 1088 825 1259 692 
Q 1431 559 1741 559 
Q 2081 559 2253 684 
Q 2369 772 2369 919 
Q 2369 1019 2306 1084 
Q 2241 1147 2013 1200 
Q 950 1434 666 1628 
Q 272 1897 272 2375 
Q 272 2806 612 3100 
Q 953 3394 1669 3394 
Q 2350 3394 2681 3172 
Q 3013 2950 3138 2516 
L 2309 2363 
Q 2256 2556 2107 2659 
Q 1959 2763 1684 2763 
Q 1338 2763 1188 2666 
Q 1088 2597 1088 2488 
Q 1088 2394 1175 2328 
Q 1294 2241 1995 2081 
Q 2697 1922 2975 1691 
Q 3250 1456 3250 1038 
Q 3250 581 2869 253 
Q 2488 -75 1741 -75 
Q 1063 -75 667 200 
Q 272 475 150 947 
z
" transform="scale(0.015625)"/>
      <path id="Arial-BoldMT-74" d="M 1981 3319 
L 1981 2619 
L 1381 2619 
L 1381 1281 
Q 1381 875 1398 808 
Q 1416 741 1477 697 
Q 1538 653 1625 653 
Q 1747 653 1978 738 
L 2053 56 
Q 1747 -75 1359 -75 
Q 1122 -75 931 4 
Q 741 84 652 211 
Q 563 338 528 553 
Q 500 706 500 1172 
L 500 2619 
L 97 2619 
L 97 3319 
L 500 3319 
L 500 3978 
L 1381 4491 
L 1381 3319 
L 1981 3319 
z
" transform="scale(0.015625)"/>
      <path id="Arial-BoldMT-65" d="M 2381 1056 
L 3256 909 
Q 3088 428 2723 176 
Q 2359 -75 1813 -75 
Q 947 -75 531 491 
Q 203 944 203 1634 
Q 203 2459 634 2926 
Q 1066 3394 1725 3394 
Q 2466 3394 2894 2905 
Q 3322 2416 3303 1406 
L 1103 1406 
Q 1113 1016 1316 798 
Q 1519 581 1822 581 
Q 2028 581 2168 693 
Q 2309 806 2381 1056 
z
M 2431 1944 
Q 2422 2325 2234 2523 
Q 2047 2722 1778 2722 
Q 1491 2722 1303 2513 
Q 1116 2303 1119 1944 
L 2431 1944 
z
" transform="scale(0.015625)"/>
      <path id="Arial-BoldMT-72" d="M 1300 0 
L 422 0 
L 422 3319 
L 1238 3319 
L 1238 2847 
Q 1447 3181 1614 3287 
Q 1781 3394 1994 3394 
Q 2294 3394 2572 3228 
L 2300 2463 
Q 2078 2606 1888 2606 
Q 1703 2606 1575 2504 
Q 1447 2403 1373 2137 
Q 1300 1872 1300 1025 
L 1300 0 
z
" transform="scale(0.015625)"/>
      <path id="Arial-BoldMT-69" d="M 459 3769 
L 459 4581 
L 1338 4581 
L 1338 3769 
L 459 3769 
z
M 459 0 
L 459 3319 
L 1338 3319 
L 1338 0 
L 459 0 
z
" transform="scale(0.015625)"/>
      <path id="Arial-BoldMT-6e" d="M 3478 0 
L 2600 0 
L 2600 1694 
Q 2600 2231 2544 2389 
Q 2488 2547 2361 2634 
Q 2234 2722 2056 2722 
Q 1828 2722 1647 2597 
Q 1466 2472 1398 2265 
Q 1331 2059 1331 1503 
L 1331 0 
L 453 0 
L 453 3319 
L 1269 3319 
L 1269 2831 
Q 1703 3394 2363 3394 
Q 2653 3394 2893 3289 
Q 3134 3184 3257 3021 
Q 3381 2859 3429 2653 
Q 3478 2447 3478 2063 
L 3478 0 
z
" transform="scale(0.015625)"/>
      <path id="Arial-BoldMT-67" d="M 378 -219 
L 1381 -341 
Q 1406 -516 1497 -581 
Q 1622 -675 1891 -675 
Q 2234 -675 2406 -572 
Q 2522 -503 2581 -350 
Q 2622 -241 2622 53 
L 2622 538 
Q 2228 0 1628 0 
Q 959 0 569 566 
Q 263 1013 263 1678 
Q 263 2513 664 2953 
Q 1066 3394 1663 3394 
Q 2278 3394 2678 2853 
L 2678 3319 
L 3500 3319 
L 3500 341 
Q 3500 -247 3403 -537 
Q 3306 -828 3131 -993 
Q 2956 -1159 2664 -1253 
Q 2372 -1347 1925 -1347 
Q 1081 -1347 728 -1058 
Q 375 -769 375 -325 
Q 375 -281 378 -219 
z
M 1163 1728 
Q 1163 1200 1367 954 
Q 1572 709 1872 709 
Q 2194 709 2416 961 
Q 2638 1213 2638 1706 
Q 2638 2222 2425 2472 
Q 2213 2722 1888 2722 
Q 1572 2722 1367 2476 
Q 1163 2231 1163 1728 
z
" transform="scale(0.015625)"/>
      <path id="Arial-BoldMT-3a" d="M 628 2441 
L 628 3319 
L 1506 3319 
L 1506 2441 
L 628 2441 
z
M 628 0 
L 628 878 
L 1506 878 
L 1506 0 
L 628 0 
z
" transform="scale(0.015625)"/>
      <path id="Arial-BoldMT-20" transform="scale(0.015625)"/>
      <path id="Arial-BoldMT-47" d="M 2597 1684 
L 2597 2456 
L 4591 2456 
L 4591 631 
Q 4300 350 3748 136 
Q 3197 -78 2631 -78 
Q 1913 -78 1378 223 
Q 844 525 575 1086 
Q 306 1647 306 2306 
Q 306 3022 606 3578 
Q 906 4134 1484 4431 
Q 1925 4659 2581 4659 
Q 3434 4659 3914 4301 
Q 4394 3944 4531 3313 
L 3613 3141 
Q 3516 3478 3248 3673 
Q 2981 3869 2581 3869 
Q 1975 3869 1617 3484 
Q 1259 3100 1259 2344 
Q 1259 1528 1621 1120 
Q 1984 713 2572 713 
Q 2863 713 3155 827 
Q 3447 941 3656 1103 
L 3656 1684 
L 2597 1684 
z
" transform="scale(0.015625)"/>
      <path id="Arial-BoldMT-6f" d="M 256 1706 
Q 256 2144 472 2553 
Q 688 2963 1083 3178 
Q 1478 3394 1966 3394 
Q 2719 3394 3200 2905 
Q 3681 2416 3681 1669 
Q 3681 916 3195 420 
Q 2709 -75 1972 -75 
Q 1516 -75 1102 131 
Q 688 338 472 736 
Q 256 1134 256 1706 
z
M 1156 1659 
Q 1156 1166 1390 903 
Q 1625 641 1969 641 
Q 2313 641 2545 903 
Q 2778 1166 2778 1666 
Q 2778 2153 2545 2415 
Q 2313 2678 1969 2678 
Q 1625 2678 1390 2415 
Q 1156 2153 1156 1659 
z
" transform="scale(0.015625)"/>
      <path id="Arial-BoldMT-70" d="M 434 3319 
L 1253 3319 
L 1253 2831 
Q 1413 3081 1684 3237 
Q 1956 3394 2288 3394 
Q 2866 3394 3269 2941 
Q 3672 2488 3672 1678 
Q 3672 847 3265 386 
Q 2859 -75 2281 -75 
Q 2006 -75 1782 34 
Q 1559 144 1313 409 
L 1313 -1263 
L 434 -1263 
L 434 3319 
z
M 1303 1716 
Q 1303 1156 1525 889 
Q 1747 622 2066 622 
Q 2372 622 2575 867 
Q 2778 1113 2778 1672 
Q 2778 2194 2568 2447 
Q 2359 2700 2050 2700 
Q 1728 2700 1515 2451 
Q 1303 2203 1303 1716 
z
" transform="scale(0.015625)"/>
      <path id="Arial-BoldMT-53" d="M 231 1491 
L 1131 1578 
Q 1213 1125 1461 912 
Q 1709 700 2131 700 
Q 2578 700 2804 889 
Q 3031 1078 3031 1331 
Q 3031 1494 2936 1608 
Q 2841 1722 2603 1806 
Q 2441 1863 1863 2006 
Q 1119 2191 819 2459 
Q 397 2838 397 3381 
Q 397 3731 595 4036 
Q 794 4341 1167 4500 
Q 1541 4659 2069 4659 
Q 2931 4659 3367 4281 
Q 3803 3903 3825 3272 
L 2900 3231 
Q 2841 3584 2645 3739 
Q 2450 3894 2059 3894 
Q 1656 3894 1428 3728 
Q 1281 3622 1281 3444 
Q 1281 3281 1419 3166 
Q 1594 3019 2269 2859 
Q 2944 2700 3267 2529 
Q 3591 2359 3773 2064 
Q 3956 1769 3956 1334 
Q 3956 941 3737 597 
Q 3519 253 3119 86 
Q 2719 -81 2122 -81 
Q 1253 -81 787 320 
Q 322 722 231 1491 
z
" transform="scale(0.015625)"/>
      <path id="Arial-BoldMT-6d" d="M 394 3319 
L 1203 3319 
L 1203 2866 
Q 1638 3394 2238 3394 
Q 2556 3394 2790 3262 
Q 3025 3131 3175 2866 
Q 3394 3131 3647 3262 
Q 3900 3394 4188 3394 
Q 4553 3394 4806 3245 
Q 5059 3097 5184 2809 
Q 5275 2597 5275 2122 
L 5275 0 
L 4397 0 
L 4397 1897 
Q 4397 2391 4306 2534 
Q 4184 2722 3931 2722 
Q 3747 2722 3584 2609 
Q 3422 2497 3350 2280 
Q 3278 2063 3278 1594 
L 3278 0 
L 2400 0 
L 2400 1819 
Q 2400 2303 2353 2443 
Q 2306 2584 2207 2653 
Q 2109 2722 1941 2722 
Q 1738 2722 1575 2612 
Q 1413 2503 1342 2297 
Q 1272 2091 1272 1613 
L 1272 0 
L 394 0 
L 394 3319 
z
" transform="scale(0.015625)"/>
      <path id="Arial-BoldMT-61" d="M 1116 2306 
L 319 2450 
Q 453 2931 781 3162 
Q 1109 3394 1756 3394 
Q 2344 3394 2631 3255 
Q 2919 3116 3036 2902 
Q 3153 2688 3153 2116 
L 3144 1091 
Q 3144 653 3186 445 
Q 3228 238 3344 0 
L 2475 0 
Q 2441 88 2391 259 
Q 2369 338 2359 363 
Q 2134 144 1878 34 
Q 1622 -75 1331 -75 
Q 819 -75 523 203 
Q 228 481 228 906 
Q 228 1188 362 1408 
Q 497 1628 739 1745 
Q 981 1863 1438 1950 
Q 2053 2066 2291 2166 
L 2291 2253 
Q 2291 2506 2166 2614 
Q 2041 2722 1694 2722 
Q 1459 2722 1328 2630 
Q 1197 2538 1116 2306 
z
M 2291 1594 
Q 2122 1538 1756 1459 
Q 1391 1381 1278 1306 
Q 1106 1184 1106 997 
Q 1106 813 1243 678 
Q 1381 544 1594 544 
Q 1831 544 2047 700 
Q 2206 819 2256 991 
Q 2291 1103 2291 1419 
L 2291 1594 
z
" transform="scale(0.015625)"/>
      <path id="Arial-BoldMT-44" d="M 463 4581 
L 2153 4581 
Q 2725 4581 3025 4494 
Q 3428 4375 3715 4072 
Q 4003 3769 4153 3330 
Q 4303 2891 4303 2247 
Q 4303 1681 4163 1272 
Q 3991 772 3672 463 
Q 3431 228 3022 97 
Q 2716 0 2203 0 
L 463 0 
L 463 4581 
z
M 1388 3806 
L 1388 772 
L 2078 772 
Q 2466 772 2638 816 
Q 2863 872 3011 1006 
Q 3159 1141 3253 1448 
Q 3347 1756 3347 2288 
Q 3347 2819 3253 3103 
Q 3159 3388 2990 3547 
Q 2822 3706 2563 3763 
Q 2369 3806 1803 3806 
L 1388 3806 
z
" transform="scale(0.015625)"/>
      <path id="Arial-BoldMT-50" d="M 466 0 
L 466 4581 
L 1950 4581 
Q 2794 4581 3050 4513 
Q 3444 4409 3709 4064 
Q 3975 3719 3975 3172 
Q 3975 2750 3822 2462 
Q 3669 2175 3433 2011 
Q 3197 1847 2953 1794 
Q 2622 1728 1994 1728 
L 1391 1728 
L 1391 0 
L 466 0 
z
M 1391 3806 
L 1391 2506 
L 1897 2506 
Q 2444 2506 2628 2578 
Q 2813 2650 2917 2803 
Q 3022 2956 3022 3159 
Q 3022 3409 2875 3571 
Q 2728 3734 2503 3775 
Q 2338 3806 1838 3806 
L 1391 3806 
z
" transform="scale(0.015625)"/>
     </defs>
     <use xlink:href="#Arial-BoldMT-43"/>
     <use xlink:href="#Arial-BoldMT-6c" transform="translate(72.216797 0)"/>
     <use xlink:href="#Arial-BoldMT-75" transform="translate(100 0)"/>
     <use xlink:href="#Arial-BoldMT-73" transform="translate(161.083984 0)"/>
     <use xlink:href="#Arial-BoldMT-74" transform="translate(216.699219 0)"/>
     <use xlink:href="#Arial-BoldMT-65" transform="translate(250 0)"/>
     <use xlink:href="#Arial-BoldMT-72" transform="translate(305.615234 0)"/>
     <use xlink:href="#Arial-BoldMT-69" transform="translate(344.53125 0)"/>
     <use xlink:href="#Arial-BoldMT-6e" transform="translate(372.314453 0)"/>
     <use xlink:href="#Arial-BoldMT-67" transform="translate(433.398438 0)"/>
     <use xlink:href="#Arial-BoldMT-3a" transform="translate(494.482422 0)"/>
     <use xlink:href="#Arial-BoldMT-20" transform="translate(527.783203 0)"/>
     <use xlink:href="#Arial-BoldMT-47" transform="translate(555.566406 0)"/>
     <use xlink:href="#Arial-BoldMT-72" transform="translate(633.349609 0)"/>
     <use xlink:href="#Arial-BoldMT-6f" transform="translate(672.265625 0)"/>
     <use xlink:href="#Arial-BoldMT-75" transform="translate(733.349609 0)"/>
     <use xlink:href="#Arial-BoldMT-70" transform="translate(794.433594 0)"/>
     <use xlink:href="#Arial-BoldMT-20" transform="translate(855.517578 0)"/>
     <use xlink:href="#Arial-BoldMT-53" transform="translate(883.300781 0)"/>
     <use xlink:href="#Arial-BoldMT-69" transform="translate(950 0)"/>
     <use xlink:href="#Arial-BoldMT-6d" transform="translate(977.783203 0)"/>
     <use xlink:href="#Arial-BoldMT-69" transform="translate(1066.699219 0)"/>
     <use xlink:href="#Arial-BoldMT-6c" transform="translate(1094.482422 0)"/>
     <use xlink:href="#Arial-BoldMT-61" transform="translate(1122.265625 0)"/>
     <use xlink:href="#Arial-BoldMT-72" transform="translate(1177.880859 0)"/>
     <use xlink:href="#Arial-BoldMT-20" transform="translate(1216.796875 0)"/>
     <use xlink:href="#Arial-BoldMT-44" transform="translate(1244.580078 0)"/>
     <use xlink:href="#Arial-BoldMT-61" transform="translate(1316.796875 0)"/>
     <use xlink:href="#Arial-BoldMT-74" transform="translate(1372.412109 0)"/>
     <use xlink:href="#Arial-BoldMT-61" transform="translate(1405.712891 0)"/>
     <use xlink:href="#Arial-BoldMT-20" transform="translate(1461.328125 0)"/>
     <use xlink:href="#Arial-BoldMT-50" transform="translate(1489.111328 0)"/>
     <use xlink:href="#Arial-BoldMT-6f" transform="translate(1555.810547 0)"/>
     <use xlink:href="#Arial-BoldMT-69" transform="translate(1616.894531 0)"/>
     <use xlink:href="#Arial-BoldMT-6e" transform="translate(1644.677734 0)"/>
     <use xlink:href="#Arial-BoldMT-74" transform="translate(1705.761719 0)"/>
     <use xlink:href="#Arial-BoldMT-73" transform="translate(1739.0625 0)"/>
    </g>
   </g>
   <g id="legend_1">
    <g id="PathCollection_4">
     <g>
      <use xlink:href="#m6719ad3e72" x="415.269219" y="36.924375" style="fill: #1a6b5c; fill-opacity: 0.8; stroke: #ffffff; stroke-opacity: 0.8; stroke-width: 1.5"/>
     </g>
    </g>
    <g id="text_16">
     <!-- Cluster 1 -->
     <g style="fill: #262626" transform="translate(433.269219 39.549375) scale(0.1 -0.1)">
      <defs>
       <path id="ArialMT-43" d="M 3763 1606 
L 4369 1453 
Q 4178 706 3683 314 
Q 3188 -78 2472 -78 
Q 1731 -78 1267 223 
Q 803 525 561 1097 
Q 319 1669 319 2325 
Q 319 3041 592 3573 
Q 866 4106 1370 4382 
Q 1875 4659 2481 4659 
Q 3169 4659 3637 4309 
Q 4106 3959 4291 3325 
L 3694 3184 
Q 3534 3684 3231 3912 
Q 2928 4141 2469 4141 
Q 1941 4141 1586 3887 
Q 1231 3634 1087 3207 
Q 944 2781 944 2328 
Q 944 1744 1114 1308 
Q 1284 872 1643 656 
Q 2003 441 2422 441 
Q 2931 441 3284 734 
Q 3638 1028 3763 1606 
z
" transform="scale(0.015625)"/>
       <path id="ArialMT-6c" d="M 409 0 
L 409 4581 
L 972 4581 
L 972 0 
L 409 0 
z
" transform="scale(0.015625)"/>
       <path id="ArialMT-73" d="M 197 991 
L 753 1078 
Q 800 744 1014 566 
Q 1228 388 1613 388 
Q 2000 388 2187 545 
Q 2375 703 2375 916 
Q 2375 1106 2209 1216 
Q 2094 1291 1634 1406 
Q 1016 1563 777 1677 
Q 538 1791 414 1992 
Q 291 2194 291 2438 
Q 291 2659 392 2848 
Q 494 3038 669 3163 
Q 800 3259 1026 3326 
Q 1253 3394 1513 3394 
Q 1903 3394 2198 3281 
Q 2494 3169 2634 2976 
Q 2775 2784 2828 2463 
L 2278 2388 
Q 2241 2644 2061 2787 
Q 1881 2931 1553 2931 
Q 1166 2931 1000 2803 
Q 834 2675 834 2503 
Q 834 2394 903 2306 
Q 972 2216 1119 2156 
Q 1203 2125 1616 2013 
Q 2213 1853 2448 1751 
Q 2684 1650 2818 1456 
Q 2953 1263 2953 975 
Q 2953 694 2789 445 
Q 2625 197 2315 61 
Q 2006 -75 1616 -75 
Q 969 -75 630 194 
Q 291 463 197 991 
z
" transform="scale(0.015625)"/>
      </defs>
      <use xlink:href="#ArialMT-43"/>
      <use xlink:href="#ArialMT-6c" transform="translate(72.216797 0)"/>
      <use xlink:href="#ArialMT-75" transform="translate(94.433594 0)"/>
      <use xlink:href="#ArialMT-73" transform="translate(150.048828 0)"/>
      <use xlink:href="#ArialMT-74" transform="translate(200.048828 0)"/>
      <use xlink:href="#ArialMT-65" transform="translate(227.832031 0)"/>
      <use xlink:href="#ArialMT-72" transform="translate(283.447266 0)"/>
      <use xlink:href="#ArialMT-20" transform="translate(316.748047 0)"/>
      <use xlink:href="#ArialMT-31" transform="translate(344.53125 0)"/>
     </g>
    </g>
    <g id="PathCollection_5">
     <g>
      <use xlink:href="#m0e37e58c54" x="415.269219" y="51.069687" style="fill: #8c2448; fill-opacity: 0.8; stroke: #ffffff; stroke-opacity: 0.8; stroke-width: 1.5"/>
     </g>
    </g>
    <g id="text_17">
     <!-- Cluster 2 -->
     <g style="fill: #262626" transform="translate(433.269219 53.694687) scale(0.1 -0.1)">
      <use xlink:href="#ArialMT-43"/>
      <use xlink:href="#ArialMT-6c" transform="translate(72.216797 0)"/>
      <use xlink:href="#ArialMT-75" transform="translate(94.433594 0)"/>
      <use xlink:href="#ArialMT-73" transform="translate(150.048828 0)"/>
      <use xlink:href="#ArialMT-74" transform="translate(200.048828 0)"/>
      <use xlink:href="#ArialMT-65" transform="translate(227.832031 0)"/>
      <use xlink:href="#ArialMT-72" transform="translate(283.447266 0)"/>
      <use xlink:href="#ArialMT-20" transform="translate(316.748047 0)"/>
      <use xlink:href="#ArialMT-32" transform="translate(344.53125 0)"/>
     </g>
    </g>
    <g id="PathCollection_6">
     <g>
      <use xlink:href="#mf135c7dc30" x="415.269219" y="65.215" style="fill: #d4a017; fill-opacity: 0.8; stroke: #ffffff; stroke-opacity: 0.8; stroke-width: 1.5"/>
     </g>
    </g>
    <g id="text_18">
     <!-- Cluster 3 -->
     <g style="fill: #262626" transform="translate(433.269219 67.84) scale(0.1 -0.1)">
      <defs>
       <path id="ArialMT-33" d="M 269 1209 
L 831 1284 
Q 928 806 1161 595 
Q 1394 384 1728 384 
Q 2125 384 2398 659 
Q 2672 934 2672 1341 
Q 2672 1728 2419 1979 
Q 2166 2231 1775 2231 
Q 1616 2231 1378 2169 
L 1441 2663 
Q 1497 2656 1531 2656 
Q 1891 2656 2178 2843 
Q 2466 3031 2466 3422 
Q 2466 3731 2256 3934 
Q 2047 4138 1716 4138 
Q 1388 4138 1169 3931 
Q 950 3725 888 3313 
L 325 3413 
Q 428 3978 793 4289 
Q 1159 4600 1703 4600 
Q 2078 4600 2393 4439 
Q 2709 4278 2876 4000 
Q 3044 3722 3044 3409 
Q 3044 3113 2884 2869 
Q 2725 2625 2413 2481 
Q 2819 2388 3044 2092 
Q 3269 1797 3269 1353 
Q 3269 753 2831 336 
Q 2394 -81 1725 -81 
Q 1122 -81 723 278 
Q 325 638 269 1209 
z
" transform="scale(0.015625)"/>
      </defs>
      <use xlink:href="#ArialMT-43"/>
      <use xlink:href="#ArialMT-6c" transform="translate(72.216797 0)"/>
      <use xlink:href="#ArialMT-75" transform="translate(94.433594 0)"/>
      <use xlink:href="#ArialMT-73" transform="translate(150.048828 0)"/>
      <use xlink:href="#ArialMT-74" transform="translate(200.048828 0)"/>
      <use xlink:href="#ArialMT-65" transform="translate(227.832031 0)"/>
      <use xlink:href="#ArialMT-72" transform="translate(283.447266 0)"/>
      <use xlink:href="#ArialMT-20" transform="translate(316.748047 0)"/>
      <use xlink:href="#ArialMT-33" transform="translate(344.53125 0)"/>
     </g>
    </g>
   </g>
  </g>
 </g>
 <defs>
  <clipPath id="p1985610660">
   <rect x="35.881719" y="23.391562" width="446.4" height="332.64"/>
  </clipPath>
 </defs>
</svg>
