<?xml version="1.0" encoding="utf-8" standalone="no"?>
<!DOCTYPE svg PUBLIC "-//W3C//DTD SVG 1.1//EN"
  "http://www.w3.org/Graphics/SVG/1.1/DTD/svg11.dtd">
<svg xmlns:xlink="http://www.w3.org/1999/xlink" width="795.6pt" height="241.263562pt" viewBox="0 0 795.6 241.263562" xmlns="http://www.w3.org/2000/svg" version="1.1">
 <metadata>
  <rdf:RDF xmlns:dc="http://purl.org/dc/elements/1.1/" xmlns:cc="http://creativecommons.org/ns#" xmlns:rdf="http://www.w3.org/1999/02/22-rdf-syntax-ns#">
   <cc:Work>
    <dc:type rdf:resource="http://purl.org/dc/dcmitype/StillImage"/>
    <dc:date>2025-12-22T18:30:28.373447</dc:date>
    <dc:format>image/svg+xml</dc:format>
    <dc:creator>
     <cc:Agent>
      <dc:title>Matplotlib v3.10.7, https://matplotlib.org/</dc:title>
     </cc:Agent>
    </dc:creator>
   </cc:Work>
  </rdf:RDF>
 </metadata>
 <defs>
  <style type="text/css">*{stroke-linejoin: round; stroke-linecap: butt}</style>
 </defs>
 <g id="figure_1">
  <g id="patch_1">
   <path d="M 0 241.263562 
L 795.6 241.263562 
L 795.6 0 
L 0 0 
L 0 241.263562 
z
" style="fill: none"/>
  </g>
  <g id="axes_1">
   <g id="line2d_1">
    <path d="M 7.2 123.183562 
L 788.4 123.183562 
" clip-path="url(#pfae3bdda6a)" style="fill: none; stroke: #1a6b5c; stroke-opacity: 0.8; stroke-width: 4; stroke-linecap: round"/>
   </g>
   <g id="line2d_2">
    <path d="M 65.79 114.867562 
L 65.79 95.463562 
" clip-path="url(#pfae3bdda6a)" style="fill: none; stroke: #1a6b5c; stroke-opacity: 0.5; stroke-width: 1.5; stroke-linecap: round"/>
   </g>
   <g id="line2d_3">
    <path d="M 241.56 131.499562 
L 241.56 150.903562 
" clip-path="url(#pfae3bdda6a)" style="fill: none; stroke: #8c2448; stroke-opacity: 0.5; stroke-width: 1.5; stroke-linecap: round"/>
   </g>
   <g id="line2d_4">
    <path d="M 466.155 114.867562 
L 466.155 95.463562 
" clip-path="url(#pfae3bdda6a)" style="fill: none; stroke: #1a6b5c; stroke-opacity: 0.5; stroke-width: 1.5; stroke-linecap: round"/>
   </g>
   <g id="line2d_5">
    <path d="M 612.63 131.499562 
L 612.63 150.903562 
" clip-path="url(#pfae3bdda6a)" style="fill: none; stroke: #d4a017; stroke-opacity: 0.5; stroke-width: 1.5; stroke-linecap: round"/>
   </g>
   <g id="line2d_6">
    <path d="M 661.455 114.867562 
L 661.455 95.463562 
" clip-path="url(#pfae3bdda6a)" style="fill: none; stroke: #d4a017; stroke-opacity: 0.5; stroke-width: 1.5; stroke-linecap: round"/>
   </g>
   <g id="line2d_7">
    <path d="M 710.28 131.499562 
L 710.28 150.903562 
" clip-path="url(#pfae3bdda6a)" style="fill: none; stroke: #d4a017; stroke-opacity: 0.5; stroke-width: 1.5; stroke-linecap: round"/>
   </g>
   <g id="line2d_8">
    <path d="M 729.81 114.867562 
L 729.81 95.463562 
" clip-path="url(#pfae3bdda6a)" style="fill: none; stroke: #8c2448; stroke-opacity: 0.5; stroke-width: 1.5; stroke-linecap: round"/>
   </g>
   <g id="text_1">
    <!-- 1956 -->
    <g style="fill: #1a6b5c" transform="translate(55.780313 63.586406) scale(0.09 -0.09)">
     <defs>
      <path id="Arial-BoldMT-31" d="M 2519 0 
L 1641 0 
L 1641 3309 
Q 1159 2859 506 2644 
L 506 3441 
Q 850 3553 1253 3867 
Q 1656 4181 1806 4600 
L 2519 4600 
L 2519 0 
z
" transform="scale(0.015625)"/>
      <path id="Arial-BoldMT-39" d="M 291 1059 
L 1141 1153 
Q 1172 894 1303 769 
Q 1434 644 1650 644 
Q 1922 644 2112 894 
Q 2303 1144 2356 1931 
Q 2025 1547 1528 1547 
Q 988 1547 595 1964 
Q 203 2381 203 3050 
Q 203 3747 617 4173 
Q 1031 4600 1672 4600 
Q 2369 4600 2816 4061 
Q 3263 3522 3263 2288 
Q 3263 1031 2797 475 
Q 2331 -81 1584 -81 
Q 1047 -81 715 205 
Q 384 491 291 1059 
z
M 2278 2978 
Q 2278 3403 2083 3637 
Q 1888 3872 1631 3872 
Q 1388 3872 1227 3680 
Q 1066 3488 1066 3050 
Q 1066 2606 1241 2398 
Q 1416 2191 1678 2191 
Q 1931 2191 2104 2391 
Q 2278 2591 2278 2978 
z
" transform="scale(0.015625)"/>
      <path id="Arial-BoldMT-35" d="M 284 1178 
L 1159 1269 
Q 1197 972 1381 798 
Q 1566 625 1806 625 
Q 2081 625 2272 848 
Q 2463 1072 2463 1522 
Q 2463 1944 2273 2155 
Q 2084 2366 1781 2366 
Q 1403 2366 1103 2031 
L 391 2134 
L 841 4519 
L 3163 4519 
L 3163 3697 
L 1506 3697 
L 1369 2919 
Q 1663 3066 1969 3066 
Q 2553 3066 2959 2641 
Q 3366 2216 3366 1538 
Q 3366 972 3038 528 
Q 2591 -78 1797 -78 
Q 1163 -78 763 262 
Q 363 603 284 1178 
z
" transform="scale(0.015625)"/>
      <path id="Arial-BoldMT-36" d="M 3247 3459 
L 2397 3366 
Q 2366 3628 2234 3753 
Q 2103 3878 1894 3878 
Q 1616 3878 1423 3628 
Q 1231 3378 1181 2588 
Q 1509 2975 1997 2975 
Q 2547 2975 2939 2556 
Q 3331 2138 3331 1475 
Q 3331 772 2918 347 
Q 2506 -78 1859 -78 
Q 1166 -78 719 461 
Q 272 1000 272 2228 
Q 272 3488 737 4044 
Q 1203 4600 1947 4600 
Q 2469 4600 2811 4308 
Q 3153 4016 3247 3459 
z
M 1256 1544 
Q 1256 1116 1453 883 
Q 1650 650 1903 650 
Q 2147 650 2309 840 
Q 2472 1031 2472 1466 
Q 2472 1913 2297 2120 
Q 2122 2328 1859 2328 
Q 1606 2328 1431 2129 
Q 1256 1931 1256 1544 
z
" transform="scale(0.015625)"/>
     </defs>
     <use xlink:href="#Arial-BoldMT-31"/>
     <use xlink:href="#Arial-BoldMT-39" transform="translate(55.615234 0)"/>
     <use xlink:href="#Arial-BoldMT-35" transform="translate(111.230469 0)"/>
     <use xlink:href="#Arial-BoldMT-36" transform="translate(166.845703 0)"/>
    </g>
    <!-- AI coined -->
    <g style="fill: #1a6b5c" transform="translate(45.539297 73.092937) scale(0.09 -0.09)">
     <defs>
      <path id="Arial-BoldMT-41" d="M 4597 0 
L 3591 0 
L 3191 1041 
L 1359 1041 
L 981 0 
L 0 0 
L 1784 4581 
L 2763 4581 
L 4597 0 
z
M 2894 1813 
L 2263 3513 
L 1644 1813 
L 2894 1813 
z
" transform="scale(0.015625)"/>
      <path id="Arial-BoldMT-49" d="M 438 0 
L 438 4581 
L 1363 4581 
L 1363 0 
L 438 0 
z
" transform="scale(0.015625)"/>
      <path id="Arial-BoldMT-20" transform="scale(0.015625)"/>
      <path id="Arial-BoldMT-63" d="M 3353 2338 
L 2488 2181 
Q 2444 2441 2289 2572 
Q 2134 2703 1888 2703 
Q 1559 2703 1364 2476 
Q 1169 2250 1169 1719 
Q 1169 1128 1367 884 
Q 1566 641 1900 641 
Q 2150 641 2309 783 
Q 2469 925 2534 1272 
L 3397 1125 
Q 3263 531 2881 228 
Q 2500 -75 1859 -75 
Q 1131 -75 698 384 
Q 266 844 266 1656 
Q 266 2478 700 2936 
Q 1134 3394 1875 3394 
Q 2481 3394 2839 3133 
Q 3197 2872 3353 2338 
z
" transform="scale(0.015625)"/>
      <path id="Arial-BoldMT-6f" d="M 256 1706 
Q 256 2144 472 2553 
Q 688 2963 1083 3178 
Q 1478 3394 1966 3394 
Q 2719 3394 3200 2905 
Q 3681 2416 3681 1669 
Q 3681 916 3195 420 
Q 2709 -75 1972 -75 
Q 1516 -75 1102 131 
Q 688 338 472 736 
Q 256 1134 256 1706 
z
M 1156 1659 
Q 1156 1166 1390 903 
Q 1625 641 1969 641 
Q 2313 641 2545 903 
Q 2778 1166 2778 1666 
Q 2778 2153 2545 2415 
Q 2313 2678 1969 2678 
Q 1625 2678 1390 2415 
Q 1156 2153 1156 1659 
z
" transform="scale(0.015625)"/>
      <path id="Arial-BoldMT-69" d="M 459 3769 
L 459 4581 
L 1338 4581 
L 1338 3769 
L 459 3769 
z
M 459 0 
L 459 3319 
L 1338 3319 
L 1338 0 
L 459 0 
z
" transform="scale(0.015625)"/>
      <path id="Arial-BoldMT-6e" d="M 3478 0 
L 2600 0 
L 2600 1694 
Q 2600 2231 2544 2389 
Q 2488 2547 2361 2634 
Q 2234 2722 2056 2722 
Q 1828 2722 1647 2597 
Q 1466 2472 1398 2265 
Q 1331 2059 1331 1503 
L 1331 0 
L 453 0 
L 453 3319 
L 1269 3319 
L 1269 2831 
Q 1703 3394 2363 3394 
Q 2653 3394 2893 3289 
Q 3134 3184 3257 3021 
Q 3381 2859 3429 2653 
Q 3478 2447 3478 2063 
L 3478 0 
z
" transform="scale(0.015625)"/>
      <path id="Arial-BoldMT-65" d="M 2381 1056 
L 3256 909 
Q 3088 428 2723 176 
Q 2359 -75 1813 -75 
Q 947 -75 531 491 
Q 203 944 203 1634 
Q 203 2459 634 2926 
Q 1066 3394 1725 3394 
Q 2466 3394 2894 2905 
Q 3322 2416 3303 1406 
L 1103 1406 
Q 1113 1016 1316 798 
Q 1519 581 1822 581 
Q 2028 581 2168 693 
Q 2309 806 2381 1056 
z
M 2431 1944 
Q 2422 2325 2234 2523 
Q 2047 2722 1778 2722 
Q 1491 2722 1303 2513 
Q 1116 2303 1119 1944 
L 2431 1944 
z
" transform="scale(0.015625)"/>
      <path id="Arial-BoldMT-64" d="M 3503 0 
L 2688 0 
L 2688 488 
Q 2484 203 2207 64 
Q 1931 -75 1650 -75 
Q 1078 -75 670 386 
Q 263 847 263 1672 
Q 263 2516 659 2955 
Q 1056 3394 1663 3394 
Q 2219 3394 2625 2931 
L 2625 4581 
L 3503 4581 
L 3503 0 
z
M 1159 1731 
Q 1159 1200 1306 963 
Q 1519 619 1900 619 
Q 2203 619 2415 876 
Q 2628 1134 2628 1647 
Q 2628 2219 2422 2470 
Q 2216 2722 1894 2722 
Q 1581 2722 1370 2473 
Q 1159 2225 1159 1731 
z
" transform="scale(0.015625)"/>
     </defs>
     <use xlink:href="#Arial-BoldMT-41"/>
     <use xlink:href="#Arial-BoldMT-49" transform="translate(72.216797 0)"/>
     <use xlink:href="#Arial-BoldMT-20" transform="translate(100 0)"/>
     <use xlink:href="#Arial-BoldMT-63" transform="translate(127.783203 0)"/>
     <use xlink:href="#Arial-BoldMT-6f" transform="translate(183.398438 0)"/>
     <use xlink:href="#Arial-BoldMT-69" transform="translate(244.482422 0)"/>
     <use xlink:href="#Arial-BoldMT-6e" transform="translate(272.265625 0)"/>
     <use xlink:href="#Arial-BoldMT-65" transform="translate(333.349609 0)"/>
     <use xlink:href="#Arial-BoldMT-64" transform="translate(388.964844 0)"/>
    </g>
    <!-- at Dartmouth -->
    <g style="fill: #1a6b5c" transform="translate(37.791563 82.599469) scale(0.09 -0.09)">
     <defs>
      <path id="Arial-BoldMT-61" d="M 1116 2306 
L 319 2450 
Q 453 2931 781 3162 
Q 1109 3394 1756 3394 
Q 2344 3394 2631 3255 
Q 2919 3116 3036 2902 
Q 3153 2688 3153 2116 
L 3144 1091 
Q 3144 653 3186 445 
Q 3228 238 3344 0 
L 2475 0 
Q 2441 88 2391 259 
Q 2369 338 2359 363 
Q 2134 144 1878 34 
Q 1622 -75 1331 -75 
Q 819 -75 523 203 
Q 228 481 228 906 
Q 228 1188 362 1408 
Q 497 1628 739 1745 
Q 981 1863 1438 1950 
Q 2053 2066 2291 2166 
L 2291 2253 
Q 2291 2506 2166 2614 
Q 2041 2722 1694 2722 
Q 1459 2722 1328 2630 
Q 1197 2538 1116 2306 
z
M 2291 1594 
Q 2122 1538 1756 1459 
Q 1391 1381 1278 1306 
Q 1106 1184 1106 997 
Q 1106 813 1243 678 
Q 1381 544 1594 544 
Q 1831 544 2047 700 
Q 2206 819 2256 991 
Q 2291 1103 2291 1419 
L 2291 1594 
z
" transform="scale(0.015625)"/>
      <path id="Arial-BoldMT-74" d="M 1981 3319 
L 1981 2619 
L 1381 2619 
L 1381 1281 
Q 1381 875 1398 808 
Q 1416 741 1477 697 
Q 1538 653 1625 653 
Q 1747 653 1978 738 
L 2053 56 
Q 1747 -75 1359 -75 
Q 1122 -75 931 4 
Q 741 84 652 211 
Q 563 338 528 553 
Q 500 706 500 1172 
L 500 2619 
L 97 2619 
L 97 3319 
L 500 3319 
L 500 3978 
L 1381 4491 
L 1381 3319 
L 1981 3319 
z
" transform="scale(0.015625)"/>
      <path id="Arial-BoldMT-44" d="M 463 4581 
L 2153 4581 
Q 2725 4581 3025 4494 
Q 3428 4375 3715 4072 
Q 4003 3769 4153 3330 
Q 4303 2891 4303 2247 
Q 4303 1681 4163 1272 
Q 3991 772 3672 463 
Q 3431 228 3022 97 
Q 2716 0 2203 0 
L 463 0 
L 463 4581 
z
M 1388 3806 
L 1388 772 
L 2078 772 
Q 2466 772 2638 816 
Q 2863 872 3011 1006 
Q 3159 1141 3253 1448 
Q 3347 1756 3347 2288 
Q 3347 2819 3253 3103 
Q 3159 3388 2990 3547 
Q 2822 3706 2563 3763 
Q 2369 3806 1803 3806 
L 1388 3806 
z
" transform="scale(0.015625)"/>
      <path id="Arial-BoldMT-72" d="M 1300 0 
L 422 0 
L 422 3319 
L 1238 3319 
L 1238 2847 
Q 1447 3181 1614 3287 
Q 1781 3394 1994 3394 
Q 2294 3394 2572 3228 
L 2300 2463 
Q 2078 2606 1888 2606 
Q 1703 2606 1575 2504 
Q 1447 2403 1373 2137 
Q 1300 1872 1300 1025 
L 1300 0 
z
" transform="scale(0.015625)"/>
      <path id="Arial-BoldMT-6d" d="M 394 3319 
L 1203 3319 
L 1203 2866 
Q 1638 3394 2238 3394 
Q 2556 3394 2790 3262 
Q 3025 3131 3175 2866 
Q 3394 3131 3647 3262 
Q 3900 3394 4188 3394 
Q 4553 3394 4806 3245 
Q 5059 3097 5184 2809 
Q 5275 2597 5275 2122 
L 5275 0 
L 4397 0 
L 4397 1897 
Q 4397 2391 4306 2534 
Q 4184 2722 3931 2722 
Q 3747 2722 3584 2609 
Q 3422 2497 3350 2280 
Q 3278 2063 3278 1594 
L 3278 0 
L 2400 0 
L 2400 1819 
Q 2400 2303 2353 2443 
Q 2306 2584 2207 2653 
Q 2109 2722 1941 2722 
Q 1738 2722 1575 2612 
Q 1413 2503 1342 2297 
Q 1272 2091 1272 1613 
L 1272 0 
L 394 0 
L 394 3319 
z
" transform="scale(0.015625)"/>
      <path id="Arial-BoldMT-75" d="M 2644 0 
L 2644 497 
Q 2463 231 2167 78 
Q 1872 -75 1544 -75 
Q 1209 -75 943 72 
Q 678 219 559 484 
Q 441 750 441 1219 
L 441 3319 
L 1319 3319 
L 1319 1794 
Q 1319 1094 1367 936 
Q 1416 778 1544 686 
Q 1672 594 1869 594 
Q 2094 594 2272 717 
Q 2450 841 2515 1023 
Q 2581 1206 2581 1919 
L 2581 3319 
L 3459 3319 
L 3459 0 
L 2644 0 
z
" transform="scale(0.015625)"/>
      <path id="Arial-BoldMT-68" d="M 1334 4581 
L 1334 2897 
Q 1759 3394 2350 3394 
Q 2653 3394 2897 3281 
Q 3141 3169 3264 2994 
Q 3388 2819 3433 2606 
Q 3478 2394 3478 1947 
L 3478 0 
L 2600 0 
L 2600 1753 
Q 2600 2275 2550 2415 
Q 2500 2556 2373 2639 
Q 2247 2722 2056 2722 
Q 1838 2722 1666 2615 
Q 1494 2509 1414 2295 
Q 1334 2081 1334 1663 
L 1334 0 
L 456 0 
L 456 4581 
L 1334 4581 
z
" transform="scale(0.015625)"/>
     </defs>
     <use xlink:href="#Arial-BoldMT-61"/>
     <use xlink:href="#Arial-BoldMT-74" transform="translate(55.615234 0)"/>
     <use xlink:href="#Arial-BoldMT-20" transform="translate(88.916016 0)"/>
     <use xlink:href="#Arial-BoldMT-44" transform="translate(116.699219 0)"/>
     <use xlink:href="#Arial-BoldMT-61" transform="translate(188.916016 0)"/>
     <use xlink:href="#Arial-BoldMT-72" transform="translate(244.53125 0)"/>
     <use xlink:href="#Arial-BoldMT-74" transform="translate(283.447266 0)"/>
     <use xlink:href="#Arial-BoldMT-6d" transform="translate(316.748047 0)"/>
     <use xlink:href="#Arial-BoldMT-6f" transform="translate(405.664062 0)"/>
     <use xlink:href="#Arial-BoldMT-75" transform="translate(466.748047 0)"/>
     <use xlink:href="#Arial-BoldMT-74" transform="translate(527.832031 0)"/>
     <use xlink:href="#Arial-BoldMT-68" transform="translate(561.132812 0)"/>
    </g>
   </g>
   <g id="text_2">
    <!-- 1974 -->
    <g style="fill: #8c2448" transform="translate(231.550313 168.433594) scale(0.09 -0.09)">
     <defs>
      <path id="Arial-BoldMT-37" d="M 272 3703 
L 272 4519 
L 3275 4519 
L 3275 3881 
Q 2903 3516 2518 2831 
Q 2134 2147 1932 1376 
Q 1731 606 1734 0 
L 888 0 
Q 909 950 1279 1937 
Q 1650 2925 2269 3703 
L 272 3703 
z
" transform="scale(0.015625)"/>
      <path id="Arial-BoldMT-34" d="M 1994 0 
L 1994 922 
L 119 922 
L 119 1691 
L 2106 4600 
L 2844 4600 
L 2844 1694 
L 3413 1694 
L 3413 922 
L 2844 922 
L 2844 0 
L 1994 0 
z
M 1994 1694 
L 1994 3259 
L 941 1694 
L 1994 1694 
z
" transform="scale(0.015625)"/>
     </defs>
     <use xlink:href="#Arial-BoldMT-31"/>
     <use xlink:href="#Arial-BoldMT-39" transform="translate(55.615234 0)"/>
     <use xlink:href="#Arial-BoldMT-37" transform="translate(111.230469 0)"/>
     <use xlink:href="#Arial-BoldMT-34" transform="translate(166.845703 0)"/>
    </g>
    <!-- First -->
    <g style="fill: #8c2448" transform="translate(231.809063 177.940125) scale(0.09 -0.09)">
     <defs>
      <path id="Arial-BoldMT-46" d="M 472 0 
L 472 4581 
L 3613 4581 
L 3613 3806 
L 1397 3806 
L 1397 2722 
L 3309 2722 
L 3309 1947 
L 1397 1947 
L 1397 0 
L 472 0 
z
" transform="scale(0.015625)"/>
      <path id="Arial-BoldMT-73" d="M 150 947 
L 1031 1081 
Q 1088 825 1259 692 
Q 1431 559 1741 559 
Q 2081 559 2253 684 
Q 2369 772 2369 919 
Q 2369 1019 2306 1084 
Q 2241 1147 2013 1200 
Q 950 1434 666 1628 
Q 272 1897 272 2375 
Q 272 2806 612 3100 
Q 953 3394 1669 3394 
Q 2350 3394 2681 3172 
Q 3013 2950 3138 2516 
L 2309 2363 
Q 2256 2556 2107 2659 
Q 1959 2763 1684 2763 
Q 1338 2763 1188 2666 
Q 1088 2597 1088 2488 
Q 1088 2394 1175 2328 
Q 1294 2241 1995 2081 
Q 2697 1922 2975 1691 
Q 3250 1456 3250 1038 
Q 3250 581 2869 253 
Q 2488 -75 1741 -75 
Q 1063 -75 667 200 
Q 272 475 150 947 
z
" transform="scale(0.015625)"/>
     </defs>
     <use xlink:href="#Arial-BoldMT-46"/>
     <use xlink:href="#Arial-BoldMT-69" transform="translate(61.083984 0)"/>
     <use xlink:href="#Arial-BoldMT-72" transform="translate(88.867188 0)"/>
     <use xlink:href="#Arial-BoldMT-73" transform="translate(127.783203 0)"/>
     <use xlink:href="#Arial-BoldMT-74" transform="translate(183.398438 0)"/>
    </g>
    <!-- AI Winter -->
    <g style="fill: #8c2448" transform="translate(221.850703 187.446656) scale(0.09 -0.09)">
     <defs>
      <path id="Arial-BoldMT-57" d="M 1116 0 
L 22 4581 
L 969 4581 
L 1659 1434 
L 2497 4581 
L 3597 4581 
L 4400 1381 
L 5103 4581 
L 6034 4581 
L 4922 0 
L 3941 0 
L 3028 3425 
L 2119 0 
L 1116 0 
z
" transform="scale(0.015625)"/>
     </defs>
     <use xlink:href="#Arial-BoldMT-41"/>
     <use xlink:href="#Arial-BoldMT-49" transform="translate(72.216797 0)"/>
     <use xlink:href="#Arial-BoldMT-20" transform="translate(100 0)"/>
     <use xlink:href="#Arial-BoldMT-57" transform="translate(127.783203 0)"/>
     <use xlink:href="#Arial-BoldMT-69" transform="translate(221.292969 0)"/>
     <use xlink:href="#Arial-BoldMT-6e" transform="translate(249.076172 0)"/>
     <use xlink:href="#Arial-BoldMT-74" transform="translate(310.160156 0)"/>
     <use xlink:href="#Arial-BoldMT-65" transform="translate(343.460938 0)"/>
     <use xlink:href="#Arial-BoldMT-72" transform="translate(399.076172 0)"/>
    </g>
   </g>
   <g id="text_3">
    <!-- 1997 -->
    <g style="fill: #1a6b5c" transform="translate(456.145313 63.586406) scale(0.09 -0.09)">
     <use xlink:href="#Arial-BoldMT-31"/>
     <use xlink:href="#Arial-BoldMT-39" transform="translate(55.615234 0)"/>
     <use xlink:href="#Arial-BoldMT-39" transform="translate(111.230469 0)"/>
     <use xlink:href="#Arial-BoldMT-37" transform="translate(166.845703 0)"/>
    </g>
    <!-- Deep Blue -->
    <g style="fill: #1a6b5c" transform="translate(444.150703 73.092937) scale(0.09 -0.09)">
     <defs>
      <path id="Arial-BoldMT-70" d="M 434 3319 
L 1253 3319 
L 1253 2831 
Q 1413 3081 1684 3237 
Q 1956 3394 2288 3394 
Q 2866 3394 3269 2941 
Q 3672 2488 3672 1678 
Q 3672 847 3265 386 
Q 2859 -75 2281 -75 
Q 2006 -75 1782 34 
Q 1559 144 1313 409 
L 1313 -1263 
L 434 -1263 
L 434 3319 
z
M 1303 1716 
Q 1303 1156 1525 889 
Q 1747 622 2066 622 
Q 2372 622 2575 867 
Q 2778 1113 2778 1672 
Q 2778 2194 2568 2447 
Q 2359 2700 2050 2700 
Q 1728 2700 1515 2451 
Q 1303 2203 1303 1716 
z
" transform="scale(0.015625)"/>
      <path id="Arial-BoldMT-42" d="M 469 4581 
L 2300 4581 
Q 2844 4581 3111 4536 
Q 3378 4491 3589 4347 
Q 3800 4203 3940 3964 
Q 4081 3725 4081 3428 
Q 4081 3106 3907 2837 
Q 3734 2569 3438 2434 
Q 3856 2313 4081 2019 
Q 4306 1725 4306 1328 
Q 4306 1016 4161 720 
Q 4016 425 3764 248 
Q 3513 72 3144 31 
Q 2913 6 2028 0 
L 469 0 
L 469 4581 
z
M 1394 3819 
L 1394 2759 
L 2000 2759 
Q 2541 2759 2672 2775 
Q 2909 2803 3045 2939 
Q 3181 3075 3181 3297 
Q 3181 3509 3064 3642 
Q 2947 3775 2716 3803 
Q 2578 3819 1925 3819 
L 1394 3819 
z
M 1394 1997 
L 1394 772 
L 2250 772 
Q 2750 772 2884 800 
Q 3091 838 3220 983 
Q 3350 1128 3350 1372 
Q 3350 1578 3250 1722 
Q 3150 1866 2961 1931 
Q 2772 1997 2141 1997 
L 1394 1997 
z
" transform="scale(0.015625)"/>
      <path id="Arial-BoldMT-6c" d="M 459 0 
L 459 4581 
L 1338 4581 
L 1338 0 
L 459 0 
z
" transform="scale(0.015625)"/>
     </defs>
     <use xlink:href="#Arial-BoldMT-44"/>
     <use xlink:href="#Arial-BoldMT-65" transform="translate(72.216797 0)"/>
     <use xlink:href="#Arial-BoldMT-65" transform="translate(127.832031 0)"/>
     <use xlink:href="#Arial-BoldMT-70" transform="translate(183.447266 0)"/>
     <use xlink:href="#Arial-BoldMT-20" transform="translate(244.53125 0)"/>
     <use xlink:href="#Arial-BoldMT-42" transform="translate(272.314453 0)"/>
     <use xlink:href="#Arial-BoldMT-6c" transform="translate(344.53125 0)"/>
     <use xlink:href="#Arial-BoldMT-75" transform="translate(372.314453 0)"/>
     <use xlink:href="#Arial-BoldMT-65" transform="translate(433.398438 0)"/>
    </g>
    <!-- beats Kasparov -->
    <g style="fill: #1a6b5c" transform="translate(432.642656 82.599469) scale(0.09 -0.09)">
     <defs>
      <path id="Arial-BoldMT-62" d="M 422 0 
L 422 4581 
L 1300 4581 
L 1300 2931 
Q 1706 3394 2263 3394 
Q 2869 3394 3266 2955 
Q 3663 2516 3663 1694 
Q 3663 844 3258 384 
Q 2853 -75 2275 -75 
Q 1991 -75 1714 67 
Q 1438 209 1238 488 
L 1238 0 
L 422 0 
z
M 1294 1731 
Q 1294 1216 1456 969 
Q 1684 619 2063 619 
Q 2353 619 2558 867 
Q 2763 1116 2763 1650 
Q 2763 2219 2556 2470 
Q 2350 2722 2028 2722 
Q 1713 2722 1503 2476 
Q 1294 2231 1294 1731 
z
" transform="scale(0.015625)"/>
      <path id="Arial-BoldMT-4b" d="M 478 0 
L 478 4581 
L 1403 4581 
L 1403 2547 
L 3272 4581 
L 4516 4581 
L 2791 2797 
L 4609 0 
L 3413 0 
L 2153 2150 
L 1403 1384 
L 1403 0 
L 478 0 
z
" transform="scale(0.015625)"/>
      <path id="Arial-BoldMT-76" d="M 1372 0 
L 34 3319 
L 956 3319 
L 1581 1625 
L 1763 1059 
Q 1834 1275 1853 1344 
Q 1897 1484 1947 1625 
L 2578 3319 
L 3481 3319 
L 2163 0 
L 1372 0 
z
" transform="scale(0.015625)"/>
     </defs>
     <use xlink:href="#Arial-BoldMT-62"/>
     <use xlink:href="#Arial-BoldMT-65" transform="translate(61.083984 0)"/>
     <use xlink:href="#Arial-BoldMT-61" transform="translate(116.699219 0)"/>
     <use xlink:href="#Arial-BoldMT-74" transform="translate(172.314453 0)"/>
     <use xlink:href="#Arial-BoldMT-73" transform="translate(205.615234 0)"/>
     <use xlink:href="#Arial-BoldMT-20" transform="translate(261.230469 0)"/>
     <use xlink:href="#Arial-BoldMT-4b" transform="translate(289.013672 0)"/>
     <use xlink:href="#Arial-BoldMT-61" transform="translate(361.230469 0)"/>
     <use xlink:href="#Arial-BoldMT-73" transform="translate(416.845703 0)"/>
     <use xlink:href="#Arial-BoldMT-70" transform="translate(472.460938 0)"/>
     <use xlink:href="#Arial-BoldMT-61" transform="translate(533.544922 0)"/>
     <use xlink:href="#Arial-BoldMT-72" transform="translate(589.160156 0)"/>
     <use xlink:href="#Arial-BoldMT-6f" transform="translate(628.076172 0)"/>
     <use xlink:href="#Arial-BoldMT-76" transform="translate(689.160156 0)"/>
    </g>
   </g>
   <g id="text_4">
    <!-- 2012 -->
    <g style="fill: #d4a017" transform="translate(602.620313 168.433594) scale(0.09 -0.09)">
     <defs>
      <path id="Arial-BoldMT-32" d="M 3238 816 
L 3238 0 
L 159 0 
Q 209 463 459 877 
Q 709 1291 1447 1975 
Q 2041 2528 2175 2725 
Q 2356 2997 2356 3263 
Q 2356 3556 2198 3714 
Q 2041 3872 1763 3872 
Q 1488 3872 1325 3706 
Q 1163 3541 1138 3156 
L 263 3244 
Q 341 3969 753 4284 
Q 1166 4600 1784 4600 
Q 2463 4600 2850 4234 
Q 3238 3869 3238 3325 
Q 3238 3016 3127 2736 
Q 3016 2456 2775 2150 
Q 2616 1947 2200 1565 
Q 1784 1184 1673 1059 
Q 1563 934 1494 816 
L 3238 816 
z
" transform="scale(0.015625)"/>
      <path id="Arial-BoldMT-30" d="M 1756 4600 
Q 2422 4600 2797 4125 
Q 3244 3563 3244 2259 
Q 3244 959 2794 391 
Q 2422 -78 1756 -78 
Q 1088 -78 678 436 
Q 269 950 269 2269 
Q 269 3563 719 4131 
Q 1091 4600 1756 4600 
z
M 1756 3872 
Q 1597 3872 1472 3770 
Q 1347 3669 1278 3406 
Q 1188 3066 1188 2259 
Q 1188 1453 1269 1151 
Q 1350 850 1473 750 
Q 1597 650 1756 650 
Q 1916 650 2041 751 
Q 2166 853 2234 1116 
Q 2325 1453 2325 2259 
Q 2325 3066 2244 3367 
Q 2163 3669 2039 3770 
Q 1916 3872 1756 3872 
z
" transform="scale(0.015625)"/>
     </defs>
     <use xlink:href="#Arial-BoldMT-32"/>
     <use xlink:href="#Arial-BoldMT-30" transform="translate(55.615234 0)"/>
     <use xlink:href="#Arial-BoldMT-31" transform="translate(111.230469 0)"/>
     <use xlink:href="#Arial-BoldMT-32" transform="translate(166.845703 0)"/>
    </g>
    <!-- AlexNet -->
    <g style="fill: #d4a017" transform="translate(595.874531 177.940125) scale(0.09 -0.09)">
     <defs>
      <path id="Arial-BoldMT-78" d="M 38 0 
L 1234 1709 
L 88 3319 
L 1159 3319 
L 1747 2406 
L 2366 3319 
L 3397 3319 
L 2272 1747 
L 3500 0 
L 2422 0 
L 1747 1028 
L 1066 0 
L 38 0 
z
" transform="scale(0.015625)"/>
      <path id="Arial-BoldMT-4e" d="M 475 0 
L 475 4581 
L 1375 4581 
L 3250 1522 
L 3250 4581 
L 4109 4581 
L 4109 0 
L 3181 0 
L 1334 2988 
L 1334 0 
L 475 0 
z
" transform="scale(0.015625)"/>
     </defs>
     <use xlink:href="#Arial-BoldMT-41"/>
     <use xlink:href="#Arial-BoldMT-6c" transform="translate(72.216797 0)"/>
     <use xlink:href="#Arial-BoldMT-65" transform="translate(100 0)"/>
     <use xlink:href="#Arial-BoldMT-78" transform="translate(155.615234 0)"/>
     <use xlink:href="#Arial-BoldMT-4e" transform="translate(211.230469 0)"/>
     <use xlink:href="#Arial-BoldMT-65" transform="translate(283.447266 0)"/>
     <use xlink:href="#Arial-BoldMT-74" transform="translate(339.0625 0)"/>
    </g>
    <!-- Deep Learning -->
    <g style="fill: #d4a017" transform="translate(581.376094 187.446656) scale(0.09 -0.09)">
     <defs>
      <path id="Arial-BoldMT-4c" d="M 491 0 
L 491 4544 
L 1416 4544 
L 1416 772 
L 3716 772 
L 3716 0 
L 491 0 
z
" transform="scale(0.015625)"/>
      <path id="Arial-BoldMT-67" d="M 378 -219 
L 1381 -341 
Q 1406 -516 1497 -581 
Q 1622 -675 1891 -675 
Q 2234 -675 2406 -572 
Q 2522 -503 2581 -350 
Q 2622 -241 2622 53 
L 2622 538 
Q 2228 0 1628 0 
Q 959 0 569 566 
Q 263 1013 263 1678 
Q 263 2513 664 2953 
Q 1066 3394 1663 3394 
Q 2278 3394 2678 2853 
L 2678 3319 
L 3500 3319 
L 3500 341 
Q 3500 -247 3403 -537 
Q 3306 -828 3131 -993 
Q 2956 -1159 2664 -1253 
Q 2372 -1347 1925 -1347 
Q 1081 -1347 728 -1058 
Q 375 -769 375 -325 
Q 375 -281 378 -219 
z
M 1163 1728 
Q 1163 1200 1367 954 
Q 1572 709 1872 709 
Q 2194 709 2416 961 
Q 2638 1213 2638 1706 
Q 2638 2222 2425 2472 
Q 2213 2722 1888 2722 
Q 1572 2722 1367 2476 
Q 1163 2231 1163 1728 
z
" transform="scale(0.015625)"/>
     </defs>
     <use xlink:href="#Arial-BoldMT-44"/>
     <use xlink:href="#Arial-BoldMT-65" transform="translate(72.216797 0)"/>
     <use xlink:href="#Arial-BoldMT-65" transform="translate(127.832031 0)"/>
     <use xlink:href="#Arial-BoldMT-70" transform="translate(183.447266 0)"/>
     <use xlink:href="#Arial-BoldMT-20" transform="translate(244.53125 0)"/>
     <use xlink:href="#Arial-BoldMT-4c" transform="translate(272.314453 0)"/>
     <use xlink:href="#Arial-BoldMT-65" transform="translate(333.398438 0)"/>
     <use xlink:href="#Arial-BoldMT-61" transform="translate(389.013672 0)"/>
     <use xlink:href="#Arial-BoldMT-72" transform="translate(444.628906 0)"/>
     <use xlink:href="#Arial-BoldMT-6e" transform="translate(483.544922 0)"/>
     <use xlink:href="#Arial-BoldMT-69" transform="translate(544.628906 0)"/>
     <use xlink:href="#Arial-BoldMT-6e" transform="translate(572.412109 0)"/>
     <use xlink:href="#Arial-BoldMT-67" transform="translate(633.496094 0)"/>
    </g>
   </g>
   <g id="text_5">
    <!-- 2017 -->
    <g style="fill: #d4a017" transform="translate(651.445313 73.092937) scale(0.09 -0.09)">
     <use xlink:href="#Arial-BoldMT-32"/>
     <use xlink:href="#Arial-BoldMT-30" transform="translate(55.615234 0)"/>
     <use xlink:href="#Arial-BoldMT-31" transform="translate(111.230469 0)"/>
     <use xlink:href="#Arial-BoldMT-37" transform="translate(166.845703 0)"/>
    </g>
    <!-- Transformers -->
    <g style="fill: #d4a017" transform="translate(632.692969 82.599469) scale(0.09 -0.09)">
     <defs>
      <path id="Arial-BoldMT-54" d="M 1497 0 
L 1497 3806 
L 138 3806 
L 138 4581 
L 3778 4581 
L 3778 3806 
L 2422 3806 
L 2422 0 
L 1497 0 
z
" transform="scale(0.015625)"/>
      <path id="Arial-BoldMT-66" d="M 75 3319 
L 563 3319 
L 563 3569 
Q 563 3988 652 4194 
Q 741 4400 980 4529 
Q 1219 4659 1584 4659 
Q 1959 4659 2319 4547 
L 2200 3934 
Q 1991 3984 1797 3984 
Q 1606 3984 1523 3895 
Q 1441 3806 1441 3553 
L 1441 3319 
L 2097 3319 
L 2097 2628 
L 1441 2628 
L 1441 0 
L 563 0 
L 563 2628 
L 75 2628 
L 75 3319 
z
" transform="scale(0.015625)"/>
     </defs>
     <use xlink:href="#Arial-BoldMT-54"/>
     <use xlink:href="#Arial-BoldMT-72" transform="translate(55.583984 0)"/>
     <use xlink:href="#Arial-BoldMT-61" transform="translate(94.5 0)"/>
     <use xlink:href="#Arial-BoldMT-6e" transform="translate(150.115234 0)"/>
     <use xlink:href="#Arial-BoldMT-73" transform="translate(211.199219 0)"/>
     <use xlink:href="#Arial-BoldMT-66" transform="translate(266.814453 0)"/>
     <use xlink:href="#Arial-BoldMT-6f" transform="translate(300.115234 0)"/>
     <use xlink:href="#Arial-BoldMT-72" transform="translate(361.199219 0)"/>
     <use xlink:href="#Arial-BoldMT-6d" transform="translate(400.115234 0)"/>
     <use xlink:href="#Arial-BoldMT-65" transform="translate(489.03125 0)"/>
     <use xlink:href="#Arial-BoldMT-72" transform="translate(544.646484 0)"/>
     <use xlink:href="#Arial-BoldMT-73" transform="translate(583.5625 0)"/>
    </g>
   </g>
   <g id="text_6">
    <!-- 2022 -->
    <g style="fill: #d4a017" transform="translate(700.270313 168.433594) scale(0.09 -0.09)">
     <use xlink:href="#Arial-BoldMT-32"/>
     <use xlink:href="#Arial-BoldMT-30" transform="translate(55.615234 0)"/>
     <use xlink:href="#Arial-BoldMT-32" transform="translate(111.230469 0)"/>
     <use xlink:href="#Arial-BoldMT-32" transform="translate(166.845703 0)"/>
    </g>
    <!-- ChatGPT -->
    <g style="fill: #d4a017" transform="translate(691.030547 177.940125) scale(0.09 -0.09)">
     <defs>
      <path id="Arial-BoldMT-43" d="M 3397 1684 
L 4294 1400 
Q 4088 650 3608 286 
Q 3128 -78 2391 -78 
Q 1478 -78 890 545 
Q 303 1169 303 2250 
Q 303 3394 893 4026 
Q 1484 4659 2447 4659 
Q 3288 4659 3813 4163 
Q 4125 3869 4281 3319 
L 3366 3100 
Q 3284 3456 3026 3662 
Q 2769 3869 2400 3869 
Q 1891 3869 1573 3503 
Q 1256 3138 1256 2319 
Q 1256 1450 1568 1081 
Q 1881 713 2381 713 
Q 2750 713 3015 947 
Q 3281 1181 3397 1684 
z
" transform="scale(0.015625)"/>
      <path id="Arial-BoldMT-47" d="M 2597 1684 
L 2597 2456 
L 4591 2456 
L 4591 631 
Q 4300 350 3748 136 
Q 3197 -78 2631 -78 
Q 1913 -78 1378 223 
Q 844 525 575 1086 
Q 306 1647 306 2306 
Q 306 3022 606 3578 
Q 906 4134 1484 4431 
Q 1925 4659 2581 4659 
Q 3434 4659 3914 4301 
Q 4394 3944 4531 3313 
L 3613 3141 
Q 3516 3478 3248 3673 
Q 2981 3869 2581 3869 
Q 1975 3869 1617 3484 
Q 1259 3100 1259 2344 
Q 1259 1528 1621 1120 
Q 1984 713 2572 713 
Q 2863 713 3155 827 
Q 3447 941 3656 1103 
L 3656 1684 
L 2597 1684 
z
" transform="scale(0.015625)"/>
      <path id="Arial-BoldMT-50" d="M 466 0 
L 466 4581 
L 1950 4581 
Q 2794 4581 3050 4513 
Q 3444 4409 3709 4064 
Q 3975 3719 3975 3172 
Q 3975 2750 3822 2462 
Q 3669 2175 3433 2011 
Q 3197 1847 2953 1794 
Q 2622 1728 1994 1728 
L 1391 1728 
L 1391 0 
L 466 0 
z
M 1391 3806 
L 1391 2506 
L 1897 2506 
Q 2444 2506 2628 2578 
Q 2813 2650 2917 2803 
Q 3022 2956 3022 3159 
Q 3022 3409 2875 3571 
Q 2728 3734 2503 3775 
Q 2338 3806 1838 3806 
L 1391 3806 
z
" transform="scale(0.015625)"/>
     </defs>
     <use xlink:href="#Arial-BoldMT-43"/>
     <use xlink:href="#Arial-BoldMT-68" transform="translate(72.216797 0)"/>
     <use xlink:href="#Arial-BoldMT-61" transform="translate(133.300781 0)"/>
     <use xlink:href="#Arial-BoldMT-74" transform="translate(188.916016 0)"/>
     <use xlink:href="#Arial-BoldMT-47" transform="translate(222.216797 0)"/>
     <use xlink:href="#Arial-BoldMT-50" transform="translate(300 0)"/>
     <use xlink:href="#Arial-BoldMT-54" transform="translate(366.699219 0)"/>
    </g>
    <!-- Stable Diffusion -->
    <g style="fill: #d4a017" transform="translate(676.031484 187.446656) scale(0.09 -0.09)">
     <defs>
      <path id="Arial-BoldMT-53" d="M 231 1491 
L 1131 1578 
Q 1213 1125 1461 912 
Q 1709 700 2131 700 
Q 2578 700 2804 889 
Q 3031 1078 3031 1331 
Q 3031 1494 2936 1608 
Q 2841 1722 2603 1806 
Q 2441 1863 1863 2006 
Q 1119 2191 819 2459 
Q 397 2838 397 3381 
Q 397 3731 595 4036 
Q 794 4341 1167 4500 
Q 1541 4659 2069 4659 
Q 2931 4659 3367 4281 
Q 3803 3903 3825 3272 
L 2900 3231 
Q 2841 3584 2645 3739 
Q 2450 3894 2059 3894 
Q 1656 3894 1428 3728 
Q 1281 3622 1281 3444 
Q 1281 3281 1419 3166 
Q 1594 3019 2269 2859 
Q 2944 2700 3267 2529 
Q 3591 2359 3773 2064 
Q 3956 1769 3956 1334 
Q 3956 941 3737 597 
Q 3519 253 3119 86 
Q 2719 -81 2122 -81 
Q 1253 -81 787 320 
Q 322 722 231 1491 
z
" transform="scale(0.015625)"/>
     </defs>
     <use xlink:href="#Arial-BoldMT-53"/>
     <use xlink:href="#Arial-BoldMT-74" transform="translate(66.699219 0)"/>
     <use xlink:href="#Arial-BoldMT-61" transform="translate(100 0)"/>
     <use xlink:href="#Arial-BoldMT-62" transform="translate(155.615234 0)"/>
     <use xlink:href="#Arial-BoldMT-6c" transform="translate(216.699219 0)"/>
     <use xlink:href="#Arial-BoldMT-65" transform="translate(244.482422 0)"/>
     <use xlink:href="#Arial-BoldMT-20" transform="translate(300.097656 0)"/>
     <use xlink:href="#Arial-BoldMT-44" transform="translate(327.880859 0)"/>
     <use xlink:href="#Arial-BoldMT-69" transform="translate(400.097656 0)"/>
     <use xlink:href="#Arial-BoldMT-66" transform="translate(427.880859 0)"/>
     <use xlink:href="#Arial-BoldMT-66" transform="translate(461.181641 0)"/>
     <use xlink:href="#Arial-BoldMT-75" transform="translate(494.482422 0)"/>
     <use xlink:href="#Arial-BoldMT-73" transform="translate(555.566406 0)"/>
     <use xlink:href="#Arial-BoldMT-69" transform="translate(611.181641 0)"/>
     <use xlink:href="#Arial-BoldMT-6f" transform="translate(638.964844 0)"/>
     <use xlink:href="#Arial-BoldMT-6e" transform="translate(700.048828 0)"/>
    </g>
   </g>
   <g id="text_7">
    <!-- 2024 -->
    <g style="fill: #8c2448" transform="translate(719.800313 63.586406) scale(0.09 -0.09)">
     <use xlink:href="#Arial-BoldMT-32"/>
     <use xlink:href="#Arial-BoldMT-30" transform="translate(55.615234 0)"/>
     <use xlink:href="#Arial-BoldMT-32" transform="translate(111.230469 0)"/>
     <use xlink:href="#Arial-BoldMT-34" transform="translate(166.845703 0)"/>
    </g>
    <!-- GPT-4 -->
    <g style="fill: #8c2448" transform="translate(716.806406 73.092937) scale(0.09 -0.09)">
     <defs>
      <path id="Arial-BoldMT-2d" d="M 359 1222 
L 359 2100 
L 2084 2100 
L 2084 1222 
L 359 1222 
z
" transform="scale(0.015625)"/>
     </defs>
     <use xlink:href="#Arial-BoldMT-47"/>
     <use xlink:href="#Arial-BoldMT-50" transform="translate(77.783203 0)"/>
     <use xlink:href="#Arial-BoldMT-54" transform="translate(144.482422 0)"/>
     <use xlink:href="#Arial-BoldMT-2d" transform="translate(200.066406 0)"/>
     <use xlink:href="#Arial-BoldMT-34" transform="translate(233.367188 0)"/>
    </g>
    <!-- Claude -->
    <g style="fill: #8c2448" transform="translate(714.808125 82.599469) scale(0.09 -0.09)">
     <use xlink:href="#Arial-BoldMT-43"/>
     <use xlink:href="#Arial-BoldMT-6c" transform="translate(72.216797 0)"/>
     <use xlink:href="#Arial-BoldMT-61" transform="translate(100 0)"/>
     <use xlink:href="#Arial-BoldMT-75" transform="translate(155.615234 0)"/>
     <use xlink:href="#Arial-BoldMT-64" transform="translate(216.699219 0)"/>
     <use xlink:href="#Arial-BoldMT-65" transform="translate(277.783203 0)"/>
    </g>
   </g>
   <g id="text_8">
    <!-- Evolution of AI &amp; Machine Learning -->
    <g style="fill: #262626" transform="translate(280.232813 17.391562) scale(0.14 -0.14)">
     <defs>
      <path id="Arial-BoldMT-45" d="M 466 0 
L 466 4581 
L 3863 4581 
L 3863 3806 
L 1391 3806 
L 1391 2791 
L 3691 2791 
L 3691 2019 
L 1391 2019 
L 1391 772 
L 3950 772 
L 3950 0 
L 466 0 
z
" transform="scale(0.015625)"/>
      <path id="Arial-BoldMT-26" d="M 4519 559 
L 3988 -119 
Q 3597 72 3238 406 
Q 2959 156 2646 37 
Q 2334 -81 1903 -81 
Q 1047 -81 616 400 
Q 281 772 281 1256 
Q 281 1697 543 2048 
Q 806 2400 1328 2659 
Q 1094 2938 975 3189 
Q 856 3441 856 3666 
Q 856 4081 1189 4370 
Q 1522 4659 2138 4659 
Q 2731 4659 3065 4356 
Q 3400 4053 3400 3616 
Q 3400 3338 3234 3088 
Q 3069 2838 2566 2522 
L 3203 1681 
Q 3316 1881 3397 2203 
L 4191 2022 
Q 4072 1600 3984 1404 
Q 3897 1209 3797 1078 
Q 3944 941 4176 777 
Q 4409 613 4519 559 
z
M 2128 3050 
L 2366 3231 
Q 2628 3434 2628 3634 
Q 2628 3803 2501 3922 
Q 2375 4041 2159 4041 
Q 1950 4041 1831 3936 
Q 1713 3831 1713 3694 
Q 1713 3531 1913 3300 
L 2128 3050 
z
M 1784 2097 
Q 1481 1944 1331 1728 
Q 1181 1513 1181 1288 
Q 1181 1003 1367 823 
Q 1553 644 1866 644 
Q 2072 644 2262 725 
Q 2453 806 2678 994 
L 1784 2097 
z
" transform="scale(0.015625)"/>
      <path id="Arial-BoldMT-4d" d="M 453 0 
L 453 4581 
L 1838 4581 
L 2669 1456 
L 3491 4581 
L 4878 4581 
L 4878 0 
L 4019 0 
L 4019 3606 
L 3109 0 
L 2219 0 
L 1313 3606 
L 1313 0 
L 453 0 
z
" transform="scale(0.015625)"/>
     </defs>
     <use xlink:href="#Arial-BoldMT-45"/>
     <use xlink:href="#Arial-BoldMT-76" transform="translate(66.699219 0)"/>
     <use xlink:href="#Arial-BoldMT-6f" transform="translate(122.314453 0)"/>
     <use xlink:href="#Arial-BoldMT-6c" transform="translate(183.398438 0)"/>
     <use xlink:href="#Arial-BoldMT-75" transform="translate(211.181641 0)"/>
     <use xlink:href="#Arial-BoldMT-74" transform="translate(272.265625 0)"/>
     <use xlink:href="#Arial-BoldMT-69" transform="translate(305.566406 0)"/>
     <use xlink:href="#Arial-BoldMT-6f" transform="translate(333.349609 0)"/>
     <use xlink:href="#Arial-BoldMT-6e" transform="translate(394.433594 0)"/>
     <use xlink:href="#Arial-BoldMT-20" transform="translate(455.517578 0)"/>
     <use xlink:href="#Arial-BoldMT-6f" transform="translate(483.300781 0)"/>
     <use xlink:href="#Arial-BoldMT-66" transform="translate(544.384766 0)"/>
     <use xlink:href="#Arial-BoldMT-20" transform="translate(577.685547 0)"/>
     <use xlink:href="#Arial-BoldMT-41" transform="translate(601.71875 0)"/>
     <use xlink:href="#Arial-BoldMT-49" transform="translate(673.935547 0)"/>
     <use xlink:href="#Arial-BoldMT-20" transform="translate(701.71875 0)"/>
     <use xlink:href="#Arial-BoldMT-26" transform="translate(729.501953 0)"/>
     <use xlink:href="#Arial-BoldMT-20" transform="translate(801.71875 0)"/>
     <use xlink:href="#Arial-BoldMT-4d" transform="translate(829.501953 0)"/>
     <use xlink:href="#Arial-BoldMT-61" transform="translate(912.802734 0)"/>
     <use xlink:href="#Arial-BoldMT-63" transform="translate(968.417969 0)"/>
     <use xlink:href="#Arial-BoldMT-68" transform="translate(1024.033203 0)"/>
     <use xlink:href="#Arial-BoldMT-69" transform="translate(1085.117188 0)"/>
     <use xlink:href="#Arial-BoldMT-6e" transform="translate(1112.900391 0)"/>
     <use xlink:href="#Arial-BoldMT-65" transform="translate(1173.984375 0)"/>
     <use xlink:href="#Arial-BoldMT-20" transform="translate(1229.599609 0)"/>
     <use xlink:href="#Arial-BoldMT-4c" transform="translate(1257.382812 0)"/>
     <use xlink:href="#Arial-BoldMT-65" transform="translate(1318.466797 0)"/>
     <use xlink:href="#Arial-BoldMT-61" transform="translate(1374.082031 0)"/>
     <use xlink:href="#Arial-BoldMT-72" transform="translate(1429.697266 0)"/>
     <use xlink:href="#Arial-BoldMT-6e" transform="translate(1468.613281 0)"/>
     <use xlink:href="#Arial-BoldMT-69" transform="translate(1529.697266 0)"/>
     <use xlink:href="#Arial-BoldMT-6e" transform="translate(1557.480469 0)"/>
     <use xlink:href="#Arial-BoldMT-67" transform="translate(1618.564453 0)"/>
    </g>
   </g>
   <g id="PathCollection_1">
    <defs>
     <path id="ma2db158512" d="M 0 6.123724 
C 1.624031 6.123724 3.181764 5.47849 4.330127 4.330127 
C 5.47849 3.181764 6.123724 1.624031 6.123724 0 
C 6.123724 -1.624031 5.47849 -3.181764 4.330127 -4.330127 
C 3.181764 -5.47849 1.624031 -6.123724 0 -6.123724 
C -1.624031 -6.123724 -3.181764 -5.47849 -4.330127 -4.330127 
C -5.47849 -3.181764 -6.123724 -1.624031 -6.123724 0 
C -6.123724 1.624031 -5.47849 3.181764 -4.330127 4.330127 
C -3.181764 5.47849 -1.624031 6.123724 0 6.123724 
z
" style="stroke: #ffffff; stroke-width: 2"/>
    </defs>
    <g clip-path="url(#pfae3bdda6a)">
     <use xlink:href="#ma2db158512" x="65.79" y="123.183562" style="fill: #1a6b5c; stroke: #ffffff; stroke-width: 2"/>
    </g>
   </g>
   <g id="PathCollection_2">
    <defs>
     <path id="m0ecfff9096" d="M 0 6.123724 
C 1.624031 6.123724 3.181764 5.47849 4.330127 4.330127 
C 5.47849 3.181764 6.123724 1.624031 6.123724 0 
C 6.123724 -1.624031 5.47849 -3.181764 4.330127 -4.330127 
C 3.181764 -5.47849 1.624031 -6.123724 0 -6.123724 
C -1.624031 -6.123724 -3.181764 -5.47849 -4.330127 -4.330127 
C -5.47849 -3.181764 -6.123724 -1.624031 -6.123724 0 
C -6.123724 1.624031 -5.47849 3.181764 -4.330127 4.330127 
C -3.181764 5.47849 -1.624031 6.123724 0 6.123724 
z
" style="stroke: #ffffff; stroke-width: 2"/>
    </defs>
    <g clip-path="url(#pfae3bdda6a)">
     <use xlink:href="#m0ecfff9096" x="241.56" y="123.183562" style="fill: #8c2448; stroke: #ffffff; stroke-width: 2"/>
    </g>
   </g>
   <g id="PathCollection_3">
    <g clip-path="url(#pfae3bdda6a)">
     <use xlink:href="#ma2db158512" x="466.155" y="123.183562" style="fill: #1a6b5c; stroke: #ffffff; stroke-width: 2"/>
    </g>
   </g>
   <g id="PathCollection_4">
    <defs>
     <path id="m1defbb01e1" d="M 0 6.123724 
C 1.624031 6.123724 3.181764 5.47849 4.330127 4.330127 
C 5.47849 3.181764 6.123724 1.624031 6.123724 0 
C 6.123724 -1.624031 5.47849 -3.181764 4.330127 -4.330127 
C 3.181764 -5.47849 1.624031 -6.123724 0 -6.123724 
C -1.624031 -6.123724 -3.181764 -5.47849 -4.330127 -4.330127 
C -5.47849 -3.181764 -6.123724 -1.624031 -6.123724 0 
C -6.123724 1.624031 -5.47849 3.181764 -4.330127 4.330127 
C -3.181764 5.47849 -1.624031 6.123724 0 6.123724 
z
" style="stroke: #ffffff; stroke-width: 2"/>
    </defs>
    <g clip-path="url(#pfae3bdda6a)">
     <use xlink:href="#m1defbb01e1" x="612.63" y="123.183562" style="fill: #d4a017; stroke: #ffffff; stroke-width: 2"/>
    </g>
   </g>
   <g id="PathCollection_5">
    <g clip-path="url(#pfae3bdda6a)">
     <use xlink:href="#m1defbb01e1" x="661.455" y="123.183562" style="fill: #d4a017; stroke: #ffffff; stroke-width: 2"/>
    </g>
   </g>
   <g id="PathCollection_6">
    <g clip-path="url(#pfae3bdda6a)">
     <use xlink:href="#m1defbb01e1" x="710.28" y="123.183562" style="fill: #d4a017; stroke: #ffffff; stroke-width: 2"/>
    </g>
   </g>
   <g id="PathCollection_7">
    <g clip-path="url(#pfae3bdda6a)">
     <use xlink:href="#m0ecfff9096" x="729.81" y="123.183562" style="fill: #8c2448; stroke: #ffffff; stroke-width: 2"/>
    </g>
   </g>
  </g>
 </g>
 <defs>
  <clipPath id="pfae3bdda6a">
   <rect x="7.2" y="12.303562" width="781.2" height="221.76"/>
  </clipPath>
 </defs>
</svg>
