<?xml version="1.0" encoding="utf-8" standalone="no"?>
<!DOCTYPE svg PUBLIC "-//W3C//DTD SVG 1.1//EN"
  "http://www.w3.org/Graphics/SVG/1.1/DTD/svg11.dtd">
<svg xmlns:xlink="http://www.w3.org/1999/xlink" width="795.6pt" height="241.263562pt" viewBox="0 0 795.6 241.263562" xmlns="http://www.w3.org/2000/svg" version="1.1">
 <metadata>
  <rdf:RDF xmlns:dc="http://purl.org/dc/elements/1.1/" xmlns:cc="http://creativecommons.org/ns#" xmlns:rdf="http://www.w3.org/1999/02/22-rdf-syntax-ns#">
   <cc:Work>
    <dc:type rdf:resource="http://purl.org/dc/dcmitype/StillImage"/>
    <dc:date>2025-12-22T18:30:28.319877</dc:date>
    <dc:format>image/svg+xml</dc:format>
    <dc:creator>
     <cc:Agent>
      <dc:title>Matplotlib v3.10.7, https://matplotlib.org/</dc:title>
     </cc:Agent>
    </dc:creator>
   </cc:Work>
  </rdf:RDF>
 </metadata>
 <defs>
  <style type="text/css">*{stroke-linejoin: round; stroke-linecap: butt}</style>
 </defs>
 <g id="figure_1">
  <g id="patch_1">
   <path d="M 0 241.263562 
L 795.6 241.263562 
L 795.6 0 
L 0 0 
L 0 241.263562 
z
" style="fill: none"/>
  </g>
  <g id="axes_1">
   <g id="patch_2">
    <path d="M 43.47 159.219562 
L 127.17 159.219562 
Q 138.33 159.219562 138.33 148.131562 
L 138.33 98.235562 
Q 138.33 87.147562 127.17 87.147562 
L 43.47 87.147562 
Q 32.31 87.147562 32.31 98.235562 
L 32.31 148.131562 
Q 32.31 159.219562 43.47 159.219562 
z
" clip-path="url(#peb0d83d1f2)" style="fill: #1a6b5c; opacity: 0.9; stroke: #ffffff; stroke-width: 2; stroke-linejoin: miter"/>
   </g>
   <g id="patch_3">
    <path d="M 166.23 159.219562 
L 249.93 159.219562 
Q 261.09 159.219562 261.09 148.131562 
L 261.09 98.235562 
Q 261.09 87.147562 249.93 87.147562 
L 166.23 87.147562 
Q 155.07 87.147562 155.07 98.235562 
L 155.07 148.131562 
Q 155.07 159.219562 166.23 159.219562 
z
" clip-path="url(#peb0d83d1f2)" style="fill: #1a6b5c; opacity: 0.9; stroke: #ffffff; stroke-width: 2; stroke-linejoin: miter"/>
   </g>
   <g id="patch_4">
    <path d="M 288.99 159.219562 
L 372.69 159.219562 
Q 383.85 159.219562 383.85 148.131562 
L 383.85 98.235562 
Q 383.85 87.147562 372.69 87.147562 
L 288.99 87.147562 
Q 277.83 87.147562 277.83 98.235562 
L 277.83 148.131562 
Q 277.83 159.219562 288.99 159.219562 
z
" clip-path="url(#peb0d83d1f2)" style="fill: #d4a017; opacity: 0.9; stroke: #ffffff; stroke-width: 2; stroke-linejoin: miter"/>
   </g>
   <g id="patch_5">
    <path d="M 411.75 159.219562 
L 495.45 159.219562 
Q 506.61 159.219562 506.61 148.131562 
L 506.61 98.235562 
Q 506.61 87.147562 495.45 87.147562 
L 411.75 87.147562 
Q 400.59 87.147562 400.59 98.235562 
L 400.59 148.131562 
Q 400.59 159.219562 411.75 159.219562 
z
" clip-path="url(#peb0d83d1f2)" style="fill: #d4a017; opacity: 0.9; stroke: #ffffff; stroke-width: 2; stroke-linejoin: miter"/>
   </g>
   <g id="patch_6">
    <path d="M 534.51 159.219562 
L 618.21 159.219562 
Q 629.37 159.219562 629.37 148.131562 
L 629.37 98.235562 
Q 629.37 87.147562 618.21 87.147562 
L 534.51 87.147562 
Q 523.35 87.147562 523.35 98.235562 
L 523.35 148.131562 
Q 523.35 159.219562 534.51 159.219562 
z
" clip-path="url(#peb0d83d1f2)" style="fill: #8c2448; opacity: 0.9; stroke: #ffffff; stroke-width: 2; stroke-linejoin: miter"/>
   </g>
   <g id="patch_7">
    <path d="M 657.27 159.219562 
L 740.97 159.219562 
Q 752.13 159.219562 752.13 148.131562 
L 752.13 98.235562 
Q 752.13 87.147562 740.97 87.147562 
L 657.27 87.147562 
Q 646.11 87.147562 646.11 98.235562 
L 646.11 148.131562 
Q 646.11 159.219562 657.27 159.219562 
z
" clip-path="url(#peb0d83d1f2)" style="fill: #8c2448; opacity: 0.9; stroke: #ffffff; stroke-width: 2; stroke-linejoin: miter"/>
   </g>
   <g id="text_1">
    <!-- Problem -->
    <g style="fill: #ffffff" transform="translate(65.315312 120.494344) scale(0.1 -0.1)">
     <defs>
      <path id="Arial-BoldMT-50" d="M 466 0 
L 466 4581 
L 1950 4581 
Q 2794 4581 3050 4513 
Q 3444 4409 3709 4064 
Q 3975 3719 3975 3172 
Q 3975 2750 3822 2462 
Q 3669 2175 3433 2011 
Q 3197 1847 2953 1794 
Q 2622 1728 1994 1728 
L 1391 1728 
L 1391 0 
L 466 0 
z
M 1391 3806 
L 1391 2506 
L 1897 2506 
Q 2444 2506 2628 2578 
Q 2813 2650 2917 2803 
Q 3022 2956 3022 3159 
Q 3022 3409 2875 3571 
Q 2728 3734 2503 3775 
Q 2338 3806 1838 3806 
L 1391 3806 
z
" transform="scale(0.015625)"/>
      <path id="Arial-BoldMT-72" d="M 1300 0 
L 422 0 
L 422 3319 
L 1238 3319 
L 1238 2847 
Q 1447 3181 1614 3287 
Q 1781 3394 1994 3394 
Q 2294 3394 2572 3228 
L 2300 2463 
Q 2078 2606 1888 2606 
Q 1703 2606 1575 2504 
Q 1447 2403 1373 2137 
Q 1300 1872 1300 1025 
L 1300 0 
z
" transform="scale(0.015625)"/>
      <path id="Arial-BoldMT-6f" d="M 256 1706 
Q 256 2144 472 2553 
Q 688 2963 1083 3178 
Q 1478 3394 1966 3394 
Q 2719 3394 3200 2905 
Q 3681 2416 3681 1669 
Q 3681 916 3195 420 
Q 2709 -75 1972 -75 
Q 1516 -75 1102 131 
Q 688 338 472 736 
Q 256 1134 256 1706 
z
M 1156 1659 
Q 1156 1166 1390 903 
Q 1625 641 1969 641 
Q 2313 641 2545 903 
Q 2778 1166 2778 1666 
Q 2778 2153 2545 2415 
Q 2313 2678 1969 2678 
Q 1625 2678 1390 2415 
Q 1156 2153 1156 1659 
z
" transform="scale(0.015625)"/>
      <path id="Arial-BoldMT-62" d="M 422 0 
L 422 4581 
L 1300 4581 
L 1300 2931 
Q 1706 3394 2263 3394 
Q 2869 3394 3266 2955 
Q 3663 2516 3663 1694 
Q 3663 844 3258 384 
Q 2853 -75 2275 -75 
Q 1991 -75 1714 67 
Q 1438 209 1238 488 
L 1238 0 
L 422 0 
z
M 1294 1731 
Q 1294 1216 1456 969 
Q 1684 619 2063 619 
Q 2353 619 2558 867 
Q 2763 1116 2763 1650 
Q 2763 2219 2556 2470 
Q 2350 2722 2028 2722 
Q 1713 2722 1503 2476 
Q 1294 2231 1294 1731 
z
" transform="scale(0.015625)"/>
      <path id="Arial-BoldMT-6c" d="M 459 0 
L 459 4581 
L 1338 4581 
L 1338 0 
L 459 0 
z
" transform="scale(0.015625)"/>
      <path id="Arial-BoldMT-65" d="M 2381 1056 
L 3256 909 
Q 3088 428 2723 176 
Q 2359 -75 1813 -75 
Q 947 -75 531 491 
Q 203 944 203 1634 
Q 203 2459 634 2926 
Q 1066 3394 1725 3394 
Q 2466 3394 2894 2905 
Q 3322 2416 3303 1406 
L 1103 1406 
Q 1113 1016 1316 798 
Q 1519 581 1822 581 
Q 2028 581 2168 693 
Q 2309 806 2381 1056 
z
M 2431 1944 
Q 2422 2325 2234 2523 
Q 2047 2722 1778 2722 
Q 1491 2722 1303 2513 
Q 1116 2303 1119 1944 
L 2431 1944 
z
" transform="scale(0.015625)"/>
      <path id="Arial-BoldMT-6d" d="M 394 3319 
L 1203 3319 
L 1203 2866 
Q 1638 3394 2238 3394 
Q 2556 3394 2790 3262 
Q 3025 3131 3175 2866 
Q 3394 3131 3647 3262 
Q 3900 3394 4188 3394 
Q 4553 3394 4806 3245 
Q 5059 3097 5184 2809 
Q 5275 2597 5275 2122 
L 5275 0 
L 4397 0 
L 4397 1897 
Q 4397 2391 4306 2534 
Q 4184 2722 3931 2722 
Q 3747 2722 3584 2609 
Q 3422 2497 3350 2280 
Q 3278 2063 3278 1594 
L 3278 0 
L 2400 0 
L 2400 1819 
Q 2400 2303 2353 2443 
Q 2306 2584 2207 2653 
Q 2109 2722 1941 2722 
Q 1738 2722 1575 2612 
Q 1413 2503 1342 2297 
Q 1272 2091 1272 1613 
L 1272 0 
L 394 0 
L 394 3319 
z
" transform="scale(0.015625)"/>
     </defs>
     <use xlink:href="#Arial-BoldMT-50"/>
     <use xlink:href="#Arial-BoldMT-72" transform="translate(66.699219 0)"/>
     <use xlink:href="#Arial-BoldMT-6f" transform="translate(105.615234 0)"/>
     <use xlink:href="#Arial-BoldMT-62" transform="translate(166.699219 0)"/>
     <use xlink:href="#Arial-BoldMT-6c" transform="translate(227.783203 0)"/>
     <use xlink:href="#Arial-BoldMT-65" transform="translate(255.566406 0)"/>
     <use xlink:href="#Arial-BoldMT-6d" transform="translate(311.181641 0)"/>
    </g>
    <!-- Definition -->
    <g style="fill: #ffffff" transform="translate(62.27 131.057156) scale(0.1 -0.1)">
     <defs>
      <path id="Arial-BoldMT-44" d="M 463 4581 
L 2153 4581 
Q 2725 4581 3025 4494 
Q 3428 4375 3715 4072 
Q 4003 3769 4153 3330 
Q 4303 2891 4303 2247 
Q 4303 1681 4163 1272 
Q 3991 772 3672 463 
Q 3431 228 3022 97 
Q 2716 0 2203 0 
L 463 0 
L 463 4581 
z
M 1388 3806 
L 1388 772 
L 2078 772 
Q 2466 772 2638 816 
Q 2863 872 3011 1006 
Q 3159 1141 3253 1448 
Q 3347 1756 3347 2288 
Q 3347 2819 3253 3103 
Q 3159 3388 2990 3547 
Q 2822 3706 2563 3763 
Q 2369 3806 1803 3806 
L 1388 3806 
z
" transform="scale(0.015625)"/>
      <path id="Arial-BoldMT-66" d="M 75 3319 
L 563 3319 
L 563 3569 
Q 563 3988 652 4194 
Q 741 4400 980 4529 
Q 1219 4659 1584 4659 
Q 1959 4659 2319 4547 
L 2200 3934 
Q 1991 3984 1797 3984 
Q 1606 3984 1523 3895 
Q 1441 3806 1441 3553 
L 1441 3319 
L 2097 3319 
L 2097 2628 
L 1441 2628 
L 1441 0 
L 563 0 
L 563 2628 
L 75 2628 
L 75 3319 
z
" transform="scale(0.015625)"/>
      <path id="Arial-BoldMT-69" d="M 459 3769 
L 459 4581 
L 1338 4581 
L 1338 3769 
L 459 3769 
z
M 459 0 
L 459 3319 
L 1338 3319 
L 1338 0 
L 459 0 
z
" transform="scale(0.015625)"/>
      <path id="Arial-BoldMT-6e" d="M 3478 0 
L 2600 0 
L 2600 1694 
Q 2600 2231 2544 2389 
Q 2488 2547 2361 2634 
Q 2234 2722 2056 2722 
Q 1828 2722 1647 2597 
Q 1466 2472 1398 2265 
Q 1331 2059 1331 1503 
L 1331 0 
L 453 0 
L 453 3319 
L 1269 3319 
L 1269 2831 
Q 1703 3394 2363 3394 
Q 2653 3394 2893 3289 
Q 3134 3184 3257 3021 
Q 3381 2859 3429 2653 
Q 3478 2447 3478 2063 
L 3478 0 
z
" transform="scale(0.015625)"/>
      <path id="Arial-BoldMT-74" d="M 1981 3319 
L 1981 2619 
L 1381 2619 
L 1381 1281 
Q 1381 875 1398 808 
Q 1416 741 1477 697 
Q 1538 653 1625 653 
Q 1747 653 1978 738 
L 2053 56 
Q 1747 -75 1359 -75 
Q 1122 -75 931 4 
Q 741 84 652 211 
Q 563 338 528 553 
Q 500 706 500 1172 
L 500 2619 
L 97 2619 
L 97 3319 
L 500 3319 
L 500 3978 
L 1381 4491 
L 1381 3319 
L 1981 3319 
z
" transform="scale(0.015625)"/>
     </defs>
     <use xlink:href="#Arial-BoldMT-44"/>
     <use xlink:href="#Arial-BoldMT-65" transform="translate(72.216797 0)"/>
     <use xlink:href="#Arial-BoldMT-66" transform="translate(127.832031 0)"/>
     <use xlink:href="#Arial-BoldMT-69" transform="translate(161.132812 0)"/>
     <use xlink:href="#Arial-BoldMT-6e" transform="translate(188.916016 0)"/>
     <use xlink:href="#Arial-BoldMT-69" transform="translate(250 0)"/>
     <use xlink:href="#Arial-BoldMT-74" transform="translate(277.783203 0)"/>
     <use xlink:href="#Arial-BoldMT-69" transform="translate(311.083984 0)"/>
     <use xlink:href="#Arial-BoldMT-6f" transform="translate(338.867188 0)"/>
     <use xlink:href="#Arial-BoldMT-6e" transform="translate(399.951172 0)"/>
    </g>
   </g>
   <g id="patch_8">
    <path d="M 143.118501 123.183562 
Q 149.490528 123.183562 153.626488 123.183562 
" style="fill: none; stroke: #6b7280; stroke-width: 2; stroke-linecap: round"/>
    <path d="M 149.626488 121.183562 
L 153.626488 123.183562 
L 149.626488 125.183562 
" style="fill: none; stroke: #6b7280; stroke-width: 2; stroke-linecap: round"/>
   </g>
   <g id="text_2">
    <!-- Data -->
    <g style="fill: #ffffff" transform="translate(197.243281 120.494344) scale(0.1 -0.1)">
     <defs>
      <path id="Arial-BoldMT-61" d="M 1116 2306 
L 319 2450 
Q 453 2931 781 3162 
Q 1109 3394 1756 3394 
Q 2344 3394 2631 3255 
Q 2919 3116 3036 2902 
Q 3153 2688 3153 2116 
L 3144 1091 
Q 3144 653 3186 445 
Q 3228 238 3344 0 
L 2475 0 
Q 2441 88 2391 259 
Q 2369 338 2359 363 
Q 2134 144 1878 34 
Q 1622 -75 1331 -75 
Q 819 -75 523 203 
Q 228 481 228 906 
Q 228 1188 362 1408 
Q 497 1628 739 1745 
Q 981 1863 1438 1950 
Q 2053 2066 2291 2166 
L 2291 2253 
Q 2291 2506 2166 2614 
Q 2041 2722 1694 2722 
Q 1459 2722 1328 2630 
Q 1197 2538 1116 2306 
z
M 2291 1594 
Q 2122 1538 1756 1459 
Q 1391 1381 1278 1306 
Q 1106 1184 1106 997 
Q 1106 813 1243 678 
Q 1381 544 1594 544 
Q 1831 544 2047 700 
Q 2206 819 2256 991 
Q 2291 1103 2291 1419 
L 2291 1594 
z
" transform="scale(0.015625)"/>
     </defs>
     <use xlink:href="#Arial-BoldMT-44"/>
     <use xlink:href="#Arial-BoldMT-61" transform="translate(72.216797 0)"/>
     <use xlink:href="#Arial-BoldMT-74" transform="translate(127.832031 0)"/>
     <use xlink:href="#Arial-BoldMT-61" transform="translate(161.132812 0)"/>
    </g>
    <!-- Collection -->
    <g style="fill: #ffffff" transform="translate(183.914375 131.057156) scale(0.1 -0.1)">
     <defs>
      <path id="Arial-BoldMT-43" d="M 3397 1684 
L 4294 1400 
Q 4088 650 3608 286 
Q 3128 -78 2391 -78 
Q 1478 -78 890 545 
Q 303 1169 303 2250 
Q 303 3394 893 4026 
Q 1484 4659 2447 4659 
Q 3288 4659 3813 4163 
Q 4125 3869 4281 3319 
L 3366 3100 
Q 3284 3456 3026 3662 
Q 2769 3869 2400 3869 
Q 1891 3869 1573 3503 
Q 1256 3138 1256 2319 
Q 1256 1450 1568 1081 
Q 1881 713 2381 713 
Q 2750 713 3015 947 
Q 3281 1181 3397 1684 
z
" transform="scale(0.015625)"/>
      <path id="Arial-BoldMT-63" d="M 3353 2338 
L 2488 2181 
Q 2444 2441 2289 2572 
Q 2134 2703 1888 2703 
Q 1559 2703 1364 2476 
Q 1169 2250 1169 1719 
Q 1169 1128 1367 884 
Q 1566 641 1900 641 
Q 2150 641 2309 783 
Q 2469 925 2534 1272 
L 3397 1125 
Q 3263 531 2881 228 
Q 2500 -75 1859 -75 
Q 1131 -75 698 384 
Q 266 844 266 1656 
Q 266 2478 700 2936 
Q 1134 3394 1875 3394 
Q 2481 3394 2839 3133 
Q 3197 2872 3353 2338 
z
" transform="scale(0.015625)"/>
     </defs>
     <use xlink:href="#Arial-BoldMT-43"/>
     <use xlink:href="#Arial-BoldMT-6f" transform="translate(72.216797 0)"/>
     <use xlink:href="#Arial-BoldMT-6c" transform="translate(133.300781 0)"/>
     <use xlink:href="#Arial-BoldMT-6c" transform="translate(161.083984 0)"/>
     <use xlink:href="#Arial-BoldMT-65" transform="translate(188.867188 0)"/>
     <use xlink:href="#Arial-BoldMT-63" transform="translate(244.482422 0)"/>
     <use xlink:href="#Arial-BoldMT-74" transform="translate(300.097656 0)"/>
     <use xlink:href="#Arial-BoldMT-69" transform="translate(333.398438 0)"/>
     <use xlink:href="#Arial-BoldMT-6f" transform="translate(361.181641 0)"/>
     <use xlink:href="#Arial-BoldMT-6e" transform="translate(422.265625 0)"/>
    </g>
   </g>
   <g id="patch_9">
    <path d="M 265.878501 123.183562 
Q 272.250528 123.183562 276.386488 123.183562 
" style="fill: none; stroke: #6b7280; stroke-width: 2; stroke-linecap: round"/>
    <path d="M 272.386488 121.183562 
L 276.386488 123.183562 
L 272.386488 125.183562 
" style="fill: none; stroke: #6b7280; stroke-width: 2; stroke-linecap: round"/>
   </g>
   <g id="text_3">
    <!-- EDA &amp; -->
    <g style="fill: #ffffff" transform="translate(315.470469 120.494344) scale(0.1 -0.1)">
     <defs>
      <path id="Arial-BoldMT-45" d="M 466 0 
L 466 4581 
L 3863 4581 
L 3863 3806 
L 1391 3806 
L 1391 2791 
L 3691 2791 
L 3691 2019 
L 1391 2019 
L 1391 772 
L 3950 772 
L 3950 0 
L 466 0 
z
" transform="scale(0.015625)"/>
      <path id="Arial-BoldMT-41" d="M 4597 0 
L 3591 0 
L 3191 1041 
L 1359 1041 
L 981 0 
L 0 0 
L 1784 4581 
L 2763 4581 
L 4597 0 
z
M 2894 1813 
L 2263 3513 
L 1644 1813 
L 2894 1813 
z
" transform="scale(0.015625)"/>
      <path id="Arial-BoldMT-20" transform="scale(0.015625)"/>
      <path id="Arial-BoldMT-26" d="M 4519 559 
L 3988 -119 
Q 3597 72 3238 406 
Q 2959 156 2646 37 
Q 2334 -81 1903 -81 
Q 1047 -81 616 400 
Q 281 772 281 1256 
Q 281 1697 543 2048 
Q 806 2400 1328 2659 
Q 1094 2938 975 3189 
Q 856 3441 856 3666 
Q 856 4081 1189 4370 
Q 1522 4659 2138 4659 
Q 2731 4659 3065 4356 
Q 3400 4053 3400 3616 
Q 3400 3338 3234 3088 
Q 3069 2838 2566 2522 
L 3203 1681 
Q 3316 1881 3397 2203 
L 4191 2022 
Q 4072 1600 3984 1404 
Q 3897 1209 3797 1078 
Q 3944 941 4176 777 
Q 4409 613 4519 559 
z
M 2128 3050 
L 2366 3231 
Q 2628 3434 2628 3634 
Q 2628 3803 2501 3922 
Q 2375 4041 2159 4041 
Q 1950 4041 1831 3936 
Q 1713 3831 1713 3694 
Q 1713 3531 1913 3300 
L 2128 3050 
z
M 1784 2097 
Q 1481 1944 1331 1728 
Q 1181 1513 1181 1288 
Q 1181 1003 1367 823 
Q 1553 644 1866 644 
Q 2072 644 2262 725 
Q 2453 806 2678 994 
L 1784 2097 
z
" transform="scale(0.015625)"/>
     </defs>
     <use xlink:href="#Arial-BoldMT-45"/>
     <use xlink:href="#Arial-BoldMT-44" transform="translate(66.699219 0)"/>
     <use xlink:href="#Arial-BoldMT-41" transform="translate(138.916016 0)"/>
     <use xlink:href="#Arial-BoldMT-20" transform="translate(207.382812 0)"/>
     <use xlink:href="#Arial-BoldMT-26" transform="translate(235.166016 0)"/>
    </g>
    <!-- Preprocess -->
    <g style="fill: #ffffff" transform="translate(303.6025 131.057156) scale(0.1 -0.1)">
     <defs>
      <path id="Arial-BoldMT-70" d="M 434 3319 
L 1253 3319 
L 1253 2831 
Q 1413 3081 1684 3237 
Q 1956 3394 2288 3394 
Q 2866 3394 3269 2941 
Q 3672 2488 3672 1678 
Q 3672 847 3265 386 
Q 2859 -75 2281 -75 
Q 2006 -75 1782 34 
Q 1559 144 1313 409 
L 1313 -1263 
L 434 -1263 
L 434 3319 
z
M 1303 1716 
Q 1303 1156 1525 889 
Q 1747 622 2066 622 
Q 2372 622 2575 867 
Q 2778 1113 2778 1672 
Q 2778 2194 2568 2447 
Q 2359 2700 2050 2700 
Q 1728 2700 1515 2451 
Q 1303 2203 1303 1716 
z
" transform="scale(0.015625)"/>
      <path id="Arial-BoldMT-73" d="M 150 947 
L 1031 1081 
Q 1088 825 1259 692 
Q 1431 559 1741 559 
Q 2081 559 2253 684 
Q 2369 772 2369 919 
Q 2369 1019 2306 1084 
Q 2241 1147 2013 1200 
Q 950 1434 666 1628 
Q 272 1897 272 2375 
Q 272 2806 612 3100 
Q 953 3394 1669 3394 
Q 2350 3394 2681 3172 
Q 3013 2950 3138 2516 
L 2309 2363 
Q 2256 2556 2107 2659 
Q 1959 2763 1684 2763 
Q 1338 2763 1188 2666 
Q 1088 2597 1088 2488 
Q 1088 2394 1175 2328 
Q 1294 2241 1995 2081 
Q 2697 1922 2975 1691 
Q 3250 1456 3250 1038 
Q 3250 581 2869 253 
Q 2488 -75 1741 -75 
Q 1063 -75 667 200 
Q 272 475 150 947 
z
" transform="scale(0.015625)"/>
     </defs>
     <use xlink:href="#Arial-BoldMT-50"/>
     <use xlink:href="#Arial-BoldMT-72" transform="translate(66.699219 0)"/>
     <use xlink:href="#Arial-BoldMT-65" transform="translate(105.615234 0)"/>
     <use xlink:href="#Arial-BoldMT-70" transform="translate(161.230469 0)"/>
     <use xlink:href="#Arial-BoldMT-72" transform="translate(222.314453 0)"/>
     <use xlink:href="#Arial-BoldMT-6f" transform="translate(261.230469 0)"/>
     <use xlink:href="#Arial-BoldMT-63" transform="translate(322.314453 0)"/>
     <use xlink:href="#Arial-BoldMT-65" transform="translate(377.929688 0)"/>
     <use xlink:href="#Arial-BoldMT-73" transform="translate(433.544922 0)"/>
     <use xlink:href="#Arial-BoldMT-73" transform="translate(489.160156 0)"/>
    </g>
   </g>
   <g id="patch_10">
    <path d="M 388.638501 123.183562 
Q 395.010528 123.183562 399.146488 123.183562 
" style="fill: none; stroke: #6b7280; stroke-width: 2; stroke-linecap: round"/>
    <path d="M 395.146488 121.183562 
L 399.146488 123.183562 
L 395.146488 125.183562 
" style="fill: none; stroke: #6b7280; stroke-width: 2; stroke-linecap: round"/>
   </g>
   <g id="text_4">
    <!-- Model -->
    <g style="fill: #ffffff" transform="translate(439.157812 120.428719) scale(0.1 -0.1)">
     <defs>
      <path id="Arial-BoldMT-4d" d="M 453 0 
L 453 4581 
L 1838 4581 
L 2669 1456 
L 3491 4581 
L 4878 4581 
L 4878 0 
L 4019 0 
L 4019 3606 
L 3109 0 
L 2219 0 
L 1313 3606 
L 1313 0 
L 453 0 
z
" transform="scale(0.015625)"/>
      <path id="Arial-BoldMT-64" d="M 3503 0 
L 2688 0 
L 2688 488 
Q 2484 203 2207 64 
Q 1931 -75 1650 -75 
Q 1078 -75 670 386 
Q 263 847 263 1672 
Q 263 2516 659 2955 
Q 1056 3394 1663 3394 
Q 2219 3394 2625 2931 
L 2625 4581 
L 3503 4581 
L 3503 0 
z
M 1159 1731 
Q 1159 1200 1306 963 
Q 1519 619 1900 619 
Q 2203 619 2415 876 
Q 2628 1134 2628 1647 
Q 2628 2219 2422 2470 
Q 2216 2722 1894 2722 
Q 1581 2722 1370 2473 
Q 1159 2225 1159 1731 
z
" transform="scale(0.015625)"/>
     </defs>
     <use xlink:href="#Arial-BoldMT-4d"/>
     <use xlink:href="#Arial-BoldMT-6f" transform="translate(83.300781 0)"/>
     <use xlink:href="#Arial-BoldMT-64" transform="translate(144.384766 0)"/>
     <use xlink:href="#Arial-BoldMT-65" transform="translate(205.46875 0)"/>
     <use xlink:href="#Arial-BoldMT-6c" transform="translate(261.083984 0)"/>
    </g>
    <!-- Training -->
    <g style="fill: #ffffff" transform="translate(434.154687 130.991531) scale(0.1 -0.1)">
     <defs>
      <path id="Arial-BoldMT-54" d="M 1497 0 
L 1497 3806 
L 138 3806 
L 138 4581 
L 3778 4581 
L 3778 3806 
L 2422 3806 
L 2422 0 
L 1497 0 
z
" transform="scale(0.015625)"/>
      <path id="Arial-BoldMT-67" d="M 378 -219 
L 1381 -341 
Q 1406 -516 1497 -581 
Q 1622 -675 1891 -675 
Q 2234 -675 2406 -572 
Q 2522 -503 2581 -350 
Q 2622 -241 2622 53 
L 2622 538 
Q 2228 0 1628 0 
Q 959 0 569 566 
Q 263 1013 263 1678 
Q 263 2513 664 2953 
Q 1066 3394 1663 3394 
Q 2278 3394 2678 2853 
L 2678 3319 
L 3500 3319 
L 3500 341 
Q 3500 -247 3403 -537 
Q 3306 -828 3131 -993 
Q 2956 -1159 2664 -1253 
Q 2372 -1347 1925 -1347 
Q 1081 -1347 728 -1058 
Q 375 -769 375 -325 
Q 375 -281 378 -219 
z
M 1163 1728 
Q 1163 1200 1367 954 
Q 1572 709 1872 709 
Q 2194 709 2416 961 
Q 2638 1213 2638 1706 
Q 2638 2222 2425 2472 
Q 2213 2722 1888 2722 
Q 1572 2722 1367 2476 
Q 1163 2231 1163 1728 
z
" transform="scale(0.015625)"/>
     </defs>
     <use xlink:href="#Arial-BoldMT-54"/>
     <use xlink:href="#Arial-BoldMT-72" transform="translate(55.583984 0)"/>
     <use xlink:href="#Arial-BoldMT-61" transform="translate(94.5 0)"/>
     <use xlink:href="#Arial-BoldMT-69" transform="translate(150.115234 0)"/>
     <use xlink:href="#Arial-BoldMT-6e" transform="translate(177.898438 0)"/>
     <use xlink:href="#Arial-BoldMT-69" transform="translate(238.982422 0)"/>
     <use xlink:href="#Arial-BoldMT-6e" transform="translate(266.765625 0)"/>
     <use xlink:href="#Arial-BoldMT-67" transform="translate(327.849609 0)"/>
    </g>
   </g>
   <g id="patch_11">
    <path d="M 511.398501 123.183562 
Q 517.770528 123.183562 521.906488 123.183562 
" style="fill: none; stroke: #6b7280; stroke-width: 2; stroke-linecap: round"/>
    <path d="M 517.906488 121.183562 
L 521.906488 123.183562 
L 517.906488 125.183562 
" style="fill: none; stroke: #6b7280; stroke-width: 2; stroke-linecap: round"/>
   </g>
   <g id="text_5">
    <!-- Evaluate -->
    <g style="fill: #ffffff" transform="translate(555.795156 120.494344) scale(0.1 -0.1)">
     <defs>
      <path id="Arial-BoldMT-76" d="M 1372 0 
L 34 3319 
L 956 3319 
L 1581 1625 
L 1763 1059 
Q 1834 1275 1853 1344 
Q 1897 1484 1947 1625 
L 2578 3319 
L 3481 3319 
L 2163 0 
L 1372 0 
z
" transform="scale(0.015625)"/>
      <path id="Arial-BoldMT-75" d="M 2644 0 
L 2644 497 
Q 2463 231 2167 78 
Q 1872 -75 1544 -75 
Q 1209 -75 943 72 
Q 678 219 559 484 
Q 441 750 441 1219 
L 441 3319 
L 1319 3319 
L 1319 1794 
Q 1319 1094 1367 936 
Q 1416 778 1544 686 
Q 1672 594 1869 594 
Q 2094 594 2272 717 
Q 2450 841 2515 1023 
Q 2581 1206 2581 1919 
L 2581 3319 
L 3459 3319 
L 3459 0 
L 2644 0 
z
" transform="scale(0.015625)"/>
     </defs>
     <use xlink:href="#Arial-BoldMT-45"/>
     <use xlink:href="#Arial-BoldMT-76" transform="translate(66.699219 0)"/>
     <use xlink:href="#Arial-BoldMT-61" transform="translate(122.314453 0)"/>
     <use xlink:href="#Arial-BoldMT-6c" transform="translate(177.929688 0)"/>
     <use xlink:href="#Arial-BoldMT-75" transform="translate(205.712891 0)"/>
     <use xlink:href="#Arial-BoldMT-61" transform="translate(266.796875 0)"/>
     <use xlink:href="#Arial-BoldMT-74" transform="translate(322.412109 0)"/>
     <use xlink:href="#Arial-BoldMT-65" transform="translate(355.712891 0)"/>
    </g>
    <!-- &amp; Tune -->
    <g style="fill: #ffffff" transform="translate(559.786563 131.057156) scale(0.1 -0.1)">
     <use xlink:href="#Arial-BoldMT-26"/>
     <use xlink:href="#Arial-BoldMT-20" transform="translate(72.216797 0)"/>
     <use xlink:href="#Arial-BoldMT-54" transform="translate(100 0)"/>
     <use xlink:href="#Arial-BoldMT-75" transform="translate(153.708984 0)"/>
     <use xlink:href="#Arial-BoldMT-6e" transform="translate(214.792969 0)"/>
     <use xlink:href="#Arial-BoldMT-65" transform="translate(275.876953 0)"/>
    </g>
   </g>
   <g id="patch_12">
    <path d="M 634.158501 123.183562 
Q 640.530528 123.183562 644.666488 123.183562 
" style="fill: none; stroke: #6b7280; stroke-width: 2; stroke-linecap: round"/>
    <path d="M 640.666488 121.183562 
L 644.666488 123.183562 
L 640.666488 125.183562 
" style="fill: none; stroke: #6b7280; stroke-width: 2; stroke-linecap: round"/>
   </g>
   <g id="text_6">
    <!-- Deploy &amp; -->
    <g style="fill: #ffffff" transform="translate(677.45125 120.489656) scale(0.1 -0.1)">
     <defs>
      <path id="Arial-BoldMT-79" d="M 44 3319 
L 978 3319 
L 1772 963 
L 2547 3319 
L 3456 3319 
L 2284 125 
L 2075 -453 
Q 1959 -744 1854 -897 
Q 1750 -1050 1614 -1145 
Q 1478 -1241 1279 -1294 
Q 1081 -1347 831 -1347 
Q 578 -1347 334 -1294 
L 256 -606 
Q 463 -647 628 -647 
Q 934 -647 1081 -467 
Q 1228 -288 1306 -9 
L 44 3319 
z
" transform="scale(0.015625)"/>
     </defs>
     <use xlink:href="#Arial-BoldMT-44"/>
     <use xlink:href="#Arial-BoldMT-65" transform="translate(72.216797 0)"/>
     <use xlink:href="#Arial-BoldMT-70" transform="translate(127.832031 0)"/>
     <use xlink:href="#Arial-BoldMT-6c" transform="translate(188.916016 0)"/>
     <use xlink:href="#Arial-BoldMT-6f" transform="translate(216.699219 0)"/>
     <use xlink:href="#Arial-BoldMT-79" transform="translate(277.783203 0)"/>
     <use xlink:href="#Arial-BoldMT-20" transform="translate(333.398438 0)"/>
     <use xlink:href="#Arial-BoldMT-26" transform="translate(361.181641 0)"/>
    </g>
    <!-- Monitor -->
    <g style="fill: #ffffff" transform="translate(680.793437 131.183719) scale(0.1 -0.1)">
     <use xlink:href="#Arial-BoldMT-4d"/>
     <use xlink:href="#Arial-BoldMT-6f" transform="translate(83.300781 0)"/>
     <use xlink:href="#Arial-BoldMT-6e" transform="translate(144.384766 0)"/>
     <use xlink:href="#Arial-BoldMT-69" transform="translate(205.46875 0)"/>
     <use xlink:href="#Arial-BoldMT-74" transform="translate(233.251953 0)"/>
     <use xlink:href="#Arial-BoldMT-6f" transform="translate(266.552734 0)"/>
     <use xlink:href="#Arial-BoldMT-72" transform="translate(327.636719 0)"/>
    </g>
   </g>
   <g id="patch_13">
    <path d="M 701.095143 179.341382 
Q 378.269541 243.518832 53.799076 179.014202 
" style="fill: none; stroke-dasharray: 5.55,2.4; stroke-dashoffset: 0; stroke: #6b7280; stroke-width: 1.5; stroke-linecap: round"/>
    <path d="M 696.78195 178.159703 
L 701.095143 179.341382 
L 697.561884 182.082929 
" style="fill: none; stroke-dasharray: 5.55,2.4; stroke-dashoffset: 0; stroke: #6b7280; stroke-width: 1.5; stroke-linecap: round"/>
   </g>
   <g id="text_7">
    <!-- Iterate &amp; Improve -->
    <g style="fill: #6b7280" transform="translate(335.387812 200.799562) scale(0.09 -0.09)">
     <defs>
      <path id="Arial-ItalicMT-49" d="M 366 0 
L 1325 4581 
L 1934 4581 
L 978 0 
L 366 0 
z
" transform="scale(0.015625)"/>
      <path id="Arial-ItalicMT-74" d="M 1534 459 
L 1441 -3 
Q 1238 -56 1047 -56 
Q 709 -56 509 109 
Q 359 234 359 450 
Q 359 559 441 953 
L 844 2881 
L 397 2881 
L 488 3319 
L 934 3319 
L 1106 4134 
L 1753 4525 
L 1500 3319 
L 2056 3319 
L 1963 2881 
L 1409 2881 
L 1025 1047 
Q 953 697 953 628 
Q 953 528 1011 475 
Q 1069 422 1200 422 
Q 1388 422 1534 459 
z
" transform="scale(0.015625)"/>
      <path id="Arial-ItalicMT-65" d="M 2650 1128 
L 3200 1072 
Q 3081 663 2654 294 
Q 2228 -75 1638 -75 
Q 1269 -75 961 95 
Q 653 266 492 591 
Q 331 916 331 1331 
Q 331 1875 582 2386 
Q 834 2897 1234 3145 
Q 1634 3394 2100 3394 
Q 2694 3394 3048 3025 
Q 3403 2656 3403 2019 
Q 3403 1775 3359 1519 
L 916 1519 
Q 903 1422 903 1344 
Q 903 878 1117 633 
Q 1331 388 1641 388 
Q 1931 388 2212 578 
Q 2494 769 2650 1128 
z
M 1006 1950 
L 2869 1950 
Q 2872 2038 2872 2075 
Q 2872 2500 2659 2726 
Q 2447 2953 2113 2953 
Q 1750 2953 1451 2703 
Q 1153 2453 1006 1950 
z
" transform="scale(0.015625)"/>
      <path id="Arial-ItalicMT-72" d="M 213 0 
L 906 3319 
L 1406 3319 
L 1266 2641 
Q 1522 3025 1767 3209 
Q 2013 3394 2269 3394 
Q 2438 3394 2684 3272 
L 2453 2747 
Q 2306 2853 2131 2853 
Q 1834 2853 1521 2522 
Q 1209 2191 1031 1331 
L 750 0 
L 213 0 
z
" transform="scale(0.015625)"/>
      <path id="Arial-ItalicMT-61" d="M 2450 413 
Q 2156 159 1884 42 
Q 1613 -75 1303 -75 
Q 844 -75 562 195 
Q 281 466 281 888 
Q 281 1166 407 1380 
Q 534 1594 743 1723 
Q 953 1853 1256 1909 
Q 1447 1947 1980 1969 
Q 2513 1991 2744 2081 
Q 2809 2313 2809 2466 
Q 2809 2663 2666 2775 
Q 2469 2931 2091 2931 
Q 1734 2931 1507 2773 
Q 1281 2616 1178 2325 
L 606 2375 
Q 781 2869 1161 3131 
Q 1541 3394 2119 3394 
Q 2734 3394 3094 3100 
Q 3369 2881 3369 2531 
Q 3369 2266 3291 1916 
L 3106 1091 
Q 3019 697 3019 450 
Q 3019 294 3088 0 
L 2516 0 
Q 2469 163 2450 413 
z
M 2659 1681 
Q 2541 1634 2405 1609 
Q 2269 1584 1950 1556 
Q 1456 1513 1253 1445 
Q 1050 1378 947 1231 
Q 844 1084 844 906 
Q 844 669 1008 516 
Q 1172 363 1475 363 
Q 1756 363 2015 511 
Q 2275 659 2425 925 
Q 2575 1191 2659 1681 
z
" transform="scale(0.015625)"/>
      <path id="Arial-ItalicMT-20" transform="scale(0.015625)"/>
      <path id="Arial-ItalicMT-26" d="M 3175 447 
Q 2784 128 2506 14 
Q 2228 -100 1891 -100 
Q 1266 -100 884 267 
Q 503 634 503 1191 
Q 503 1553 645 1831 
Q 788 2109 1069 2334 
Q 1284 2503 1706 2694 
Q 1544 3053 1509 3175 
Q 1466 3350 1466 3550 
Q 1466 3813 1612 4083 
Q 1759 4353 2028 4506 
Q 2297 4659 2613 4659 
Q 3053 4659 3323 4403 
Q 3594 4147 3594 3781 
Q 3594 3472 3362 3167 
Q 3131 2863 2453 2522 
Q 2863 1781 3241 1306 
Q 3469 1584 3675 1959 
L 4169 1706 
Q 3963 1272 3597 856 
Q 3800 597 4125 231 
L 3700 -109 
Q 3381 163 3175 447 
z
M 2247 2944 
Q 2706 3178 2903 3425 
Q 3041 3594 3041 3769 
Q 3041 3953 2914 4079 
Q 2788 4206 2606 4206 
Q 2388 4206 2220 4029 
Q 2053 3853 2053 3609 
Q 2053 3313 2247 2944 
z
M 2847 881 
Q 2263 1647 1938 2253 
Q 1513 2053 1331 1866 
Q 1078 1603 1078 1256 
Q 1078 900 1320 654 
Q 1563 409 1913 409 
Q 2384 409 2847 881 
z
" transform="scale(0.015625)"/>
      <path id="Arial-ItalicMT-6d" d="M 209 0 
L 903 3319 
L 1469 3319 
L 1353 2772 
Q 1669 3125 1917 3259 
Q 2166 3394 2456 3394 
Q 2766 3394 2973 3230 
Q 3181 3066 3247 2772 
Q 3500 3084 3779 3239 
Q 4059 3394 4369 3394 
Q 4784 3394 4992 3197 
Q 5200 3000 5200 2644 
Q 5200 2491 5128 2138 
L 4681 0 
L 4116 0 
L 4572 2194 
Q 4631 2463 4631 2578 
Q 4631 2741 4528 2834 
Q 4425 2928 4238 2928 
Q 3984 2928 3721 2775 
Q 3459 2622 3314 2373 
Q 3169 2125 3059 1609 
L 2722 0 
L 2156 0 
L 2625 2241 
Q 2675 2469 2675 2566 
Q 2675 2728 2573 2828 
Q 2472 2928 2309 2928 
Q 2069 2928 1805 2775 
Q 1541 2622 1375 2348 
Q 1209 2075 1103 1569 
L 775 0 
L 209 0 
z
" transform="scale(0.015625)"/>
      <path id="Arial-ItalicMT-70" d="M -66 -1272 
L 894 3319 
L 1416 3319 
L 1319 2856 
Q 1609 3159 1839 3276 
Q 2069 3394 2325 3394 
Q 2800 3394 3112 3048 
Q 3425 2703 3425 2059 
Q 3425 1541 3253 1114 
Q 3081 688 2831 428 
Q 2581 169 2325 47 
Q 2069 -75 1800 -75 
Q 1203 -75 875 531 
L 500 -1272 
L -66 -1272 
z
M 1053 1356 
Q 1053 984 1106 841 
Q 1184 638 1362 513 
Q 1541 388 1775 388 
Q 2263 388 2563 936 
Q 2863 1484 2863 2056 
Q 2863 2478 2661 2708 
Q 2459 2938 2159 2938 
Q 1944 2938 1759 2823 
Q 1575 2709 1417 2482 
Q 1259 2256 1156 1928 
Q 1053 1600 1053 1356 
z
" transform="scale(0.015625)"/>
      <path id="Arial-ItalicMT-6f" d="M 313 1259 
Q 313 2231 884 2869 
Q 1356 3394 2122 3394 
Q 2722 3394 3089 3019 
Q 3456 2644 3456 2006 
Q 3456 1434 3225 942 
Q 2994 450 2567 187 
Q 2141 -75 1669 -75 
Q 1281 -75 964 90 
Q 647 256 480 559 
Q 313 863 313 1259 
z
M 878 1316 
Q 878 847 1103 605 
Q 1328 363 1675 363 
Q 1856 363 2034 436 
Q 2213 509 2366 659 
Q 2519 809 2626 1001 
Q 2734 1194 2800 1416 
Q 2897 1725 2897 2009 
Q 2897 2459 2670 2707 
Q 2444 2956 2100 2956 
Q 1834 2956 1615 2829 
Q 1397 2703 1220 2459 
Q 1044 2216 961 1892 
Q 878 1569 878 1316 
z
" transform="scale(0.015625)"/>
      <path id="Arial-ItalicMT-76" d="M 1050 0 
L 506 3319 
L 1056 3319 
L 1341 1491 
Q 1388 1191 1456 513 
Q 1619 866 1872 1322 
L 2981 3319 
L 3578 3319 
L 1678 0 
L 1050 0 
z
" transform="scale(0.015625)"/>
     </defs>
     <use xlink:href="#Arial-ItalicMT-49"/>
     <use xlink:href="#Arial-ItalicMT-74" transform="translate(27.783203 0)"/>
     <use xlink:href="#Arial-ItalicMT-65" transform="translate(55.566406 0)"/>
     <use xlink:href="#Arial-ItalicMT-72" transform="translate(111.181641 0)"/>
     <use xlink:href="#Arial-ItalicMT-61" transform="translate(144.482422 0)"/>
     <use xlink:href="#Arial-ItalicMT-74" transform="translate(200.097656 0)"/>
     <use xlink:href="#Arial-ItalicMT-65" transform="translate(227.880859 0)"/>
     <use xlink:href="#Arial-ItalicMT-20" transform="translate(283.496094 0)"/>
     <use xlink:href="#Arial-ItalicMT-26" transform="translate(311.279297 0)"/>
     <use xlink:href="#Arial-ItalicMT-20" transform="translate(377.978516 0)"/>
     <use xlink:href="#Arial-ItalicMT-49" transform="translate(405.761719 0)"/>
     <use xlink:href="#Arial-ItalicMT-6d" transform="translate(433.544922 0)"/>
     <use xlink:href="#Arial-ItalicMT-70" transform="translate(516.845703 0)"/>
     <use xlink:href="#Arial-ItalicMT-72" transform="translate(572.460938 0)"/>
     <use xlink:href="#Arial-ItalicMT-6f" transform="translate(605.761719 0)"/>
     <use xlink:href="#Arial-ItalicMT-76" transform="translate(661.376953 0)"/>
     <use xlink:href="#Arial-ItalicMT-65" transform="translate(711.376953 0)"/>
    </g>
   </g>
   <g id="text_8">
    <!-- Machine Learning Workflow -->
    <g style="fill: #262626" transform="translate(304.976719 17.391562) scale(0.14 -0.14)">
     <defs>
      <path id="Arial-BoldMT-68" d="M 1334 4581 
L 1334 2897 
Q 1759 3394 2350 3394 
Q 2653 3394 2897 3281 
Q 3141 3169 3264 2994 
Q 3388 2819 3433 2606 
Q 3478 2394 3478 1947 
L 3478 0 
L 2600 0 
L 2600 1753 
Q 2600 2275 2550 2415 
Q 2500 2556 2373 2639 
Q 2247 2722 2056 2722 
Q 1838 2722 1666 2615 
Q 1494 2509 1414 2295 
Q 1334 2081 1334 1663 
L 1334 0 
L 456 0 
L 456 4581 
L 1334 4581 
z
" transform="scale(0.015625)"/>
      <path id="Arial-BoldMT-4c" d="M 491 0 
L 491 4544 
L 1416 4544 
L 1416 772 
L 3716 772 
L 3716 0 
L 491 0 
z
" transform="scale(0.015625)"/>
      <path id="Arial-BoldMT-57" d="M 1116 0 
L 22 4581 
L 969 4581 
L 1659 1434 
L 2497 4581 
L 3597 4581 
L 4400 1381 
L 5103 4581 
L 6034 4581 
L 4922 0 
L 3941 0 
L 3028 3425 
L 2119 0 
L 1116 0 
z
" transform="scale(0.015625)"/>
      <path id="Arial-BoldMT-6b" d="M 428 0 
L 428 4581 
L 1306 4581 
L 1306 2150 
L 2334 3319 
L 3416 3319 
L 2281 2106 
L 3497 0 
L 2550 0 
L 1716 1491 
L 1306 1063 
L 1306 0 
L 428 0 
z
" transform="scale(0.015625)"/>
      <path id="Arial-BoldMT-77" d="M 1078 0 
L 28 3319 
L 881 3319 
L 1503 1144 
L 2075 3319 
L 2922 3319 
L 3475 1144 
L 4109 3319 
L 4975 3319 
L 3909 0 
L 3066 0 
L 2494 2134 
L 1931 0 
L 1078 0 
z
" transform="scale(0.015625)"/>
     </defs>
     <use xlink:href="#Arial-BoldMT-4d"/>
     <use xlink:href="#Arial-BoldMT-61" transform="translate(83.300781 0)"/>
     <use xlink:href="#Arial-BoldMT-63" transform="translate(138.916016 0)"/>
     <use xlink:href="#Arial-BoldMT-68" transform="translate(194.53125 0)"/>
     <use xlink:href="#Arial-BoldMT-69" transform="translate(255.615234 0)"/>
     <use xlink:href="#Arial-BoldMT-6e" transform="translate(283.398438 0)"/>
     <use xlink:href="#Arial-BoldMT-65" transform="translate(344.482422 0)"/>
     <use xlink:href="#Arial-BoldMT-20" transform="translate(400.097656 0)"/>
     <use xlink:href="#Arial-BoldMT-4c" transform="translate(427.880859 0)"/>
     <use xlink:href="#Arial-BoldMT-65" transform="translate(488.964844 0)"/>
     <use xlink:href="#Arial-BoldMT-61" transform="translate(544.580078 0)"/>
     <use xlink:href="#Arial-BoldMT-72" transform="translate(600.195312 0)"/>
     <use xlink:href="#Arial-BoldMT-6e" transform="translate(639.111328 0)"/>
     <use xlink:href="#Arial-BoldMT-69" transform="translate(700.195312 0)"/>
     <use xlink:href="#Arial-BoldMT-6e" transform="translate(727.978516 0)"/>
     <use xlink:href="#Arial-BoldMT-67" transform="translate(789.0625 0)"/>
     <use xlink:href="#Arial-BoldMT-20" transform="translate(850.146484 0)"/>
     <use xlink:href="#Arial-BoldMT-57" transform="translate(877.929688 0)"/>
     <use xlink:href="#Arial-BoldMT-6f" transform="translate(970.564453 0)"/>
     <use xlink:href="#Arial-BoldMT-72" transform="translate(1031.648438 0)"/>
     <use xlink:href="#Arial-BoldMT-6b" transform="translate(1070.564453 0)"/>
     <use xlink:href="#Arial-BoldMT-66" transform="translate(1126.179688 0)"/>
     <use xlink:href="#Arial-BoldMT-6c" transform="translate(1159.480469 0)"/>
     <use xlink:href="#Arial-BoldMT-6f" transform="translate(1187.263672 0)"/>
     <use xlink:href="#Arial-BoldMT-77" transform="translate(1248.347656 0)"/>
    </g>
   </g>
  </g>
 </g>
 <defs>
  <clipPath id="peb0d83d1f2">
   <rect x="7.2" y="12.303562" width="781.2" height="221.76"/>
  </clipPath>
 </defs>
</svg>
