<?xml version="1.0" encoding="utf-8" standalone="no"?>
<!DOCTYPE svg PUBLIC "-//W3C//DTD SVG 1.1//EN"
  "http://www.w3.org/Graphics/SVG/1.1/DTD/svg11.dtd">
<svg xmlns:xlink="http://www.w3.org/1999/xlink" width="1000.8pt" height="297.36pt" viewBox="0 0 1000.8 297.36" xmlns="http://www.w3.org/2000/svg" version="1.1">
 <metadata>
  <rdf:RDF xmlns:dc="http://purl.org/dc/elements/1.1/" xmlns:cc="http://creativecommons.org/ns#" xmlns:rdf="http://www.w3.org/1999/02/22-rdf-syntax-ns#">
   <cc:Work>
    <dc:type rdf:resource="http://purl.org/dc/dcmitype/StillImage"/>
    <dc:date>2025-12-22T18:30:27.990446</dc:date>
    <dc:format>image/svg+xml</dc:format>
    <dc:creator>
     <cc:Agent>
      <dc:title>Matplotlib v3.10.7, https://matplotlib.org/</dc:title>
     </cc:Agent>
    </dc:creator>
   </cc:Work>
  </rdf:RDF>
 </metadata>
 <defs>
  <style type="text/css">*{stroke-linejoin: round; stroke-linecap: butt}</style>
 </defs>
 <g id="figure_1">
  <g id="patch_1">
   <path d="M 0 297.36 
L 1000.8 297.36 
L 1000.8 0 
L 0 0 
L 0 297.36 
z
" style="fill: none"/>
  </g>
  <g id="axes_1">
   <g id="patch_2">
    <path d="M 7.2 290.16 
L 328.8 290.16 
L 328.8 76.902 
L 7.2 76.902 
L 7.2 290.16 
z
" style="fill: none"/>
   </g>
   <g id="matplotlib.axis_1"/>
   <g id="matplotlib.axis_2"/>
   <g id="line2d_1">
    <path d="M 21.818182 159.966322 
L 24.77135 160.264625 
L 27.724518 160.562928 
L 30.677686 160.861231 
L 33.630854 161.159534 
L 36.584022 161.457837 
L 39.53719 161.75614 
L 42.490358 162.054443 
L 45.443526 162.352746 
L 48.396694 162.651049 
L 51.349862 162.949352 
L 54.30303 163.247655 
L 57.256198 163.545958 
L 60.209366 163.844261 
L 63.162534 164.142564 
L 66.115702 164.440867 
L 69.068871 164.73917 
L 72.022039 165.037473 
L 74.975207 165.335776 
L 77.928375 165.634079 
L 80.881543 165.932382 
L 83.834711 166.230685 
L 86.787879 166.528988 
L 89.741047 166.827291 
L 92.694215 167.125594 
L 95.647383 167.423897 
L 98.600551 167.7222 
L 101.553719 168.020503 
L 104.506887 168.318806 
L 107.460055 168.617109 
L 110.413223 168.915412 
L 113.366391 169.213715 
L 116.319559 169.512018 
L 119.272727 169.810321 
L 122.225895 170.108624 
L 125.179063 170.406927 
L 128.132231 170.70523 
L 131.085399 171.003533 
L 134.038567 171.301836 
L 136.991736 171.600139 
L 139.944904 171.898442 
L 142.898072 172.196744 
L 145.85124 172.495047 
L 148.804408 172.79335 
L 151.757576 173.091653 
L 154.710744 173.389956 
L 157.663912 173.688259 
L 160.61708 173.986562 
L 163.570248 174.284865 
L 166.523416 174.583168 
L 169.476584 174.881471 
L 172.429752 175.179774 
L 175.38292 175.478077 
L 178.336088 175.77638 
L 181.289256 176.074683 
L 184.242424 176.372986 
L 187.195592 176.671289 
L 190.14876 176.969592 
L 193.101928 177.267895 
L 196.055096 177.566198 
L 199.008264 177.864501 
L 201.961433 178.162804 
L 204.914601 178.461107 
L 207.867769 178.75941 
L 210.820937 179.057713 
L 213.774105 179.356016 
L 216.727273 179.654319 
L 219.680441 179.952622 
L 222.633609 180.250925 
L 225.586777 180.549228 
L 228.539945 180.847531 
L 231.493113 181.145834 
L 234.446281 181.444137 
L 237.399449 181.74244 
L 240.352617 182.040743 
L 243.305785 182.339046 
L 246.258953 182.637349 
L 249.212121 182.935652 
L 252.165289 183.233955 
L 255.118457 183.532258 
L 258.071625 183.830561 
L 261.024793 184.128864 
L 263.977961 184.427167 
L 266.931129 184.72547 
L 269.884298 185.023773 
L 272.837466 185.322076 
L 275.790634 185.620379 
L 278.743802 185.918682 
L 281.69697 186.216985 
L 284.650138 186.515288 
L 287.603306 186.813591 
L 290.556474 187.111894 
L 293.509642 187.410197 
L 296.46281 187.7085 
L 299.415978 188.006803 
L 302.369146 188.305106 
L 305.322314 188.603409 
L 308.275482 188.901712 
L 311.22865 189.200015 
L 314.181818 189.498318 
" clip-path="url(#pa45da2a6ea)" style="fill: none; stroke: #8c2448; stroke-width: 3; stroke-linecap: round"/>
   </g>
   <g id="patch_3">
    <path d="M 7.2 290.16 
L 7.2 76.902 
" style="fill: none; stroke: #cccccc; stroke-linejoin: miter; stroke-linecap: square"/>
   </g>
   <g id="patch_4">
    <path d="M 328.8 290.16 
L 328.8 76.902 
" style="fill: none; stroke: #cccccc; stroke-linejoin: miter; stroke-linecap: square"/>
   </g>
   <g id="patch_5">
    <path d="M 7.2 290.16 
L 328.8 290.16 
" style="fill: none; stroke: #cccccc; stroke-linejoin: miter; stroke-linecap: square"/>
   </g>
   <g id="patch_6">
    <path d="M 7.2 76.902 
L 328.8 76.902 
" style="fill: none; stroke: #cccccc; stroke-linejoin: miter; stroke-linecap: square"/>
   </g>
   <g id="text_1">
    <!-- Underfitting -->
    <g style="fill: #8c2448" transform="translate(131.176484 56.809594) scale(0.13 -0.13)">
     <defs>
      <path id="Arial-BoldMT-55" d="M 459 4581 
L 1384 4581 
L 1384 2100 
Q 1384 1509 1419 1334 
Q 1478 1053 1701 883 
Q 1925 713 2313 713 
Q 2706 713 2906 873 
Q 3106 1034 3147 1268 
Q 3188 1503 3188 2047 
L 3188 4581 
L 4113 4581 
L 4113 2175 
Q 4113 1350 4038 1009 
Q 3963 669 3761 434 
Q 3559 200 3221 61 
Q 2884 -78 2341 -78 
Q 1684 -78 1345 73 
Q 1006 225 809 467 
Q 613 709 550 975 
Q 459 1369 459 2138 
L 459 4581 
z
" transform="scale(0.015625)"/>
      <path id="Arial-BoldMT-6e" d="M 3478 0 
L 2600 0 
L 2600 1694 
Q 2600 2231 2544 2389 
Q 2488 2547 2361 2634 
Q 2234 2722 2056 2722 
Q 1828 2722 1647 2597 
Q 1466 2472 1398 2265 
Q 1331 2059 1331 1503 
L 1331 0 
L 453 0 
L 453 3319 
L 1269 3319 
L 1269 2831 
Q 1703 3394 2363 3394 
Q 2653 3394 2893 3289 
Q 3134 3184 3257 3021 
Q 3381 2859 3429 2653 
Q 3478 2447 3478 2063 
L 3478 0 
z
" transform="scale(0.015625)"/>
      <path id="Arial-BoldMT-64" d="M 3503 0 
L 2688 0 
L 2688 488 
Q 2484 203 2207 64 
Q 1931 -75 1650 -75 
Q 1078 -75 670 386 
Q 263 847 263 1672 
Q 263 2516 659 2955 
Q 1056 3394 1663 3394 
Q 2219 3394 2625 2931 
L 2625 4581 
L 3503 4581 
L 3503 0 
z
M 1159 1731 
Q 1159 1200 1306 963 
Q 1519 619 1900 619 
Q 2203 619 2415 876 
Q 2628 1134 2628 1647 
Q 2628 2219 2422 2470 
Q 2216 2722 1894 2722 
Q 1581 2722 1370 2473 
Q 1159 2225 1159 1731 
z
" transform="scale(0.015625)"/>
      <path id="Arial-BoldMT-65" d="M 2381 1056 
L 3256 909 
Q 3088 428 2723 176 
Q 2359 -75 1813 -75 
Q 947 -75 531 491 
Q 203 944 203 1634 
Q 203 2459 634 2926 
Q 1066 3394 1725 3394 
Q 2466 3394 2894 2905 
Q 3322 2416 3303 1406 
L 1103 1406 
Q 1113 1016 1316 798 
Q 1519 581 1822 581 
Q 2028 581 2168 693 
Q 2309 806 2381 1056 
z
M 2431 1944 
Q 2422 2325 2234 2523 
Q 2047 2722 1778 2722 
Q 1491 2722 1303 2513 
Q 1116 2303 1119 1944 
L 2431 1944 
z
" transform="scale(0.015625)"/>
      <path id="Arial-BoldMT-72" d="M 1300 0 
L 422 0 
L 422 3319 
L 1238 3319 
L 1238 2847 
Q 1447 3181 1614 3287 
Q 1781 3394 1994 3394 
Q 2294 3394 2572 3228 
L 2300 2463 
Q 2078 2606 1888 2606 
Q 1703 2606 1575 2504 
Q 1447 2403 1373 2137 
Q 1300 1872 1300 1025 
L 1300 0 
z
" transform="scale(0.015625)"/>
      <path id="Arial-BoldMT-66" d="M 75 3319 
L 563 3319 
L 563 3569 
Q 563 3988 652 4194 
Q 741 4400 980 4529 
Q 1219 4659 1584 4659 
Q 1959 4659 2319 4547 
L 2200 3934 
Q 1991 3984 1797 3984 
Q 1606 3984 1523 3895 
Q 1441 3806 1441 3553 
L 1441 3319 
L 2097 3319 
L 2097 2628 
L 1441 2628 
L 1441 0 
L 563 0 
L 563 2628 
L 75 2628 
L 75 3319 
z
" transform="scale(0.015625)"/>
      <path id="Arial-BoldMT-69" d="M 459 3769 
L 459 4581 
L 1338 4581 
L 1338 3769 
L 459 3769 
z
M 459 0 
L 459 3319 
L 1338 3319 
L 1338 0 
L 459 0 
z
" transform="scale(0.015625)"/>
      <path id="Arial-BoldMT-74" d="M 1981 3319 
L 1981 2619 
L 1381 2619 
L 1381 1281 
Q 1381 875 1398 808 
Q 1416 741 1477 697 
Q 1538 653 1625 653 
Q 1747 653 1978 738 
L 2053 56 
Q 1747 -75 1359 -75 
Q 1122 -75 931 4 
Q 741 84 652 211 
Q 563 338 528 553 
Q 500 706 500 1172 
L 500 2619 
L 97 2619 
L 97 3319 
L 500 3319 
L 500 3978 
L 1381 4491 
L 1381 3319 
L 1981 3319 
z
" transform="scale(0.015625)"/>
      <path id="Arial-BoldMT-67" d="M 378 -219 
L 1381 -341 
Q 1406 -516 1497 -581 
Q 1622 -675 1891 -675 
Q 2234 -675 2406 -572 
Q 2522 -503 2581 -350 
Q 2622 -241 2622 53 
L 2622 538 
Q 2228 0 1628 0 
Q 959 0 569 566 
Q 263 1013 263 1678 
Q 263 2513 664 2953 
Q 1066 3394 1663 3394 
Q 2278 3394 2678 2853 
L 2678 3319 
L 3500 3319 
L 3500 341 
Q 3500 -247 3403 -537 
Q 3306 -828 3131 -993 
Q 2956 -1159 2664 -1253 
Q 2372 -1347 1925 -1347 
Q 1081 -1347 728 -1058 
Q 375 -769 375 -325 
Q 375 -281 378 -219 
z
M 1163 1728 
Q 1163 1200 1367 954 
Q 1572 709 1872 709 
Q 2194 709 2416 961 
Q 2638 1213 2638 1706 
Q 2638 2222 2425 2472 
Q 2213 2722 1888 2722 
Q 1572 2722 1367 2476 
Q 1163 2231 1163 1728 
z
" transform="scale(0.015625)"/>
     </defs>
     <use xlink:href="#Arial-BoldMT-55"/>
     <use xlink:href="#Arial-BoldMT-6e" transform="translate(72.216797 0)"/>
     <use xlink:href="#Arial-BoldMT-64" transform="translate(133.300781 0)"/>
     <use xlink:href="#Arial-BoldMT-65" transform="translate(194.384766 0)"/>
     <use xlink:href="#Arial-BoldMT-72" transform="translate(250 0)"/>
     <use xlink:href="#Arial-BoldMT-66" transform="translate(288.916016 0)"/>
     <use xlink:href="#Arial-BoldMT-69" transform="translate(322.216797 0)"/>
     <use xlink:href="#Arial-BoldMT-74" transform="translate(350 0)"/>
     <use xlink:href="#Arial-BoldMT-74" transform="translate(383.300781 0)"/>
     <use xlink:href="#Arial-BoldMT-69" transform="translate(416.601562 0)"/>
     <use xlink:href="#Arial-BoldMT-6e" transform="translate(444.384766 0)"/>
     <use xlink:href="#Arial-BoldMT-67" transform="translate(505.46875 0)"/>
    </g>
    <!-- (High Bias) -->
    <g style="fill: #8c2448" transform="translate(133.69625 70.902) scale(0.13 -0.13)">
     <defs>
      <path id="Arial-BoldMT-28" d="M 1916 -1347 
L 1313 -1347 
Q 834 -625 584 153 
Q 334 931 334 1659 
Q 334 2563 644 3369 
Q 913 4069 1325 4659 
L 1925 4659 
Q 1497 3713 1336 3048 
Q 1175 2384 1175 1641 
Q 1175 1128 1270 590 
Q 1366 53 1531 -431 
Q 1641 -750 1916 -1347 
z
" transform="scale(0.015625)"/>
      <path id="Arial-BoldMT-48" d="M 469 0 
L 469 4581 
L 1394 4581 
L 1394 2778 
L 3206 2778 
L 3206 4581 
L 4131 4581 
L 4131 0 
L 3206 0 
L 3206 2003 
L 1394 2003 
L 1394 0 
L 469 0 
z
" transform="scale(0.015625)"/>
      <path id="Arial-BoldMT-68" d="M 1334 4581 
L 1334 2897 
Q 1759 3394 2350 3394 
Q 2653 3394 2897 3281 
Q 3141 3169 3264 2994 
Q 3388 2819 3433 2606 
Q 3478 2394 3478 1947 
L 3478 0 
L 2600 0 
L 2600 1753 
Q 2600 2275 2550 2415 
Q 2500 2556 2373 2639 
Q 2247 2722 2056 2722 
Q 1838 2722 1666 2615 
Q 1494 2509 1414 2295 
Q 1334 2081 1334 1663 
L 1334 0 
L 456 0 
L 456 4581 
L 1334 4581 
z
" transform="scale(0.015625)"/>
      <path id="Arial-BoldMT-20" transform="scale(0.015625)"/>
      <path id="Arial-BoldMT-42" d="M 469 4581 
L 2300 4581 
Q 2844 4581 3111 4536 
Q 3378 4491 3589 4347 
Q 3800 4203 3940 3964 
Q 4081 3725 4081 3428 
Q 4081 3106 3907 2837 
Q 3734 2569 3438 2434 
Q 3856 2313 4081 2019 
Q 4306 1725 4306 1328 
Q 4306 1016 4161 720 
Q 4016 425 3764 248 
Q 3513 72 3144 31 
Q 2913 6 2028 0 
L 469 0 
L 469 4581 
z
M 1394 3819 
L 1394 2759 
L 2000 2759 
Q 2541 2759 2672 2775 
Q 2909 2803 3045 2939 
Q 3181 3075 3181 3297 
Q 3181 3509 3064 3642 
Q 2947 3775 2716 3803 
Q 2578 3819 1925 3819 
L 1394 3819 
z
M 1394 1997 
L 1394 772 
L 2250 772 
Q 2750 772 2884 800 
Q 3091 838 3220 983 
Q 3350 1128 3350 1372 
Q 3350 1578 3250 1722 
Q 3150 1866 2961 1931 
Q 2772 1997 2141 1997 
L 1394 1997 
z
" transform="scale(0.015625)"/>
      <path id="Arial-BoldMT-61" d="M 1116 2306 
L 319 2450 
Q 453 2931 781 3162 
Q 1109 3394 1756 3394 
Q 2344 3394 2631 3255 
Q 2919 3116 3036 2902 
Q 3153 2688 3153 2116 
L 3144 1091 
Q 3144 653 3186 445 
Q 3228 238 3344 0 
L 2475 0 
Q 2441 88 2391 259 
Q 2369 338 2359 363 
Q 2134 144 1878 34 
Q 1622 -75 1331 -75 
Q 819 -75 523 203 
Q 228 481 228 906 
Q 228 1188 362 1408 
Q 497 1628 739 1745 
Q 981 1863 1438 1950 
Q 2053 2066 2291 2166 
L 2291 2253 
Q 2291 2506 2166 2614 
Q 2041 2722 1694 2722 
Q 1459 2722 1328 2630 
Q 1197 2538 1116 2306 
z
M 2291 1594 
Q 2122 1538 1756 1459 
Q 1391 1381 1278 1306 
Q 1106 1184 1106 997 
Q 1106 813 1243 678 
Q 1381 544 1594 544 
Q 1831 544 2047 700 
Q 2206 819 2256 991 
Q 2291 1103 2291 1419 
L 2291 1594 
z
" transform="scale(0.015625)"/>
      <path id="Arial-BoldMT-73" d="M 150 947 
L 1031 1081 
Q 1088 825 1259 692 
Q 1431 559 1741 559 
Q 2081 559 2253 684 
Q 2369 772 2369 919 
Q 2369 1019 2306 1084 
Q 2241 1147 2013 1200 
Q 950 1434 666 1628 
Q 272 1897 272 2375 
Q 272 2806 612 3100 
Q 953 3394 1669 3394 
Q 2350 3394 2681 3172 
Q 3013 2950 3138 2516 
L 2309 2363 
Q 2256 2556 2107 2659 
Q 1959 2763 1684 2763 
Q 1338 2763 1188 2666 
Q 1088 2597 1088 2488 
Q 1088 2394 1175 2328 
Q 1294 2241 1995 2081 
Q 2697 1922 2975 1691 
Q 3250 1456 3250 1038 
Q 3250 581 2869 253 
Q 2488 -75 1741 -75 
Q 1063 -75 667 200 
Q 272 475 150 947 
z
" transform="scale(0.015625)"/>
      <path id="Arial-BoldMT-29" d="M 216 -1347 
Q 475 -791 581 -494 
Q 688 -197 778 190 
Q 869 578 912 926 
Q 956 1275 956 1641 
Q 956 2384 797 3048 
Q 638 3713 209 4659 
L 806 4659 
Q 1278 3988 1539 3234 
Q 1800 2481 1800 1706 
Q 1800 1053 1594 306 
Q 1359 -531 822 -1347 
L 216 -1347 
z
" transform="scale(0.015625)"/>
     </defs>
     <use xlink:href="#Arial-BoldMT-28"/>
     <use xlink:href="#Arial-BoldMT-48" transform="translate(33.300781 0)"/>
     <use xlink:href="#Arial-BoldMT-69" transform="translate(105.517578 0)"/>
     <use xlink:href="#Arial-BoldMT-67" transform="translate(133.300781 0)"/>
     <use xlink:href="#Arial-BoldMT-68" transform="translate(194.384766 0)"/>
     <use xlink:href="#Arial-BoldMT-20" transform="translate(255.46875 0)"/>
     <use xlink:href="#Arial-BoldMT-42" transform="translate(283.251953 0)"/>
     <use xlink:href="#Arial-BoldMT-69" transform="translate(355.46875 0)"/>
     <use xlink:href="#Arial-BoldMT-61" transform="translate(383.251953 0)"/>
     <use xlink:href="#Arial-BoldMT-73" transform="translate(438.867188 0)"/>
     <use xlink:href="#Arial-BoldMT-29" transform="translate(494.482422 0)"/>
    </g>
   </g>
   <g id="PathCollection_1">
    <defs>
     <path id="m93d691a755" d="M 0 4.472136 
C 1.186024 4.472136 2.323632 4.000923 3.162278 3.162278 
C 4.000923 2.323632 4.472136 1.186024 4.472136 0 
C 4.472136 -1.186024 4.000923 -2.323632 3.162278 -3.162278 
C 2.323632 -4.000923 1.186024 -4.472136 0 -4.472136 
C -1.186024 -4.472136 -2.323632 -4.000923 -3.162278 -3.162278 
C -4.000923 -2.323632 -4.472136 -1.186024 -4.472136 0 
C -4.472136 1.186024 -4.000923 2.323632 -3.162278 3.162278 
C -2.323632 4.000923 -1.186024 4.472136 0 4.472136 
z
" style="stroke: #ffffff; stroke-width: 1.5"/>
    </defs>
    <g clip-path="url(#pa45da2a6ea)">
     <use xlink:href="#m93d691a755" x="21.818182" y="178.234587" style="fill: #1a6b5c; stroke: #ffffff; stroke-width: 1.5"/>
     <use xlink:href="#m93d691a755" x="42.701299" y="156.170993" style="fill: #1a6b5c; stroke: #ffffff; stroke-width: 1.5"/>
     <use xlink:href="#m93d691a755" x="63.584416" y="128.118008" style="fill: #1a6b5c; stroke: #ffffff; stroke-width: 1.5"/>
     <use xlink:href="#m93d691a755" x="84.467532" y="114.524495" style="fill: #1a6b5c; stroke: #ffffff; stroke-width: 1.5"/>
     <use xlink:href="#m93d691a755" x="105.350649" y="145.767468" style="fill: #1a6b5c; stroke: #ffffff; stroke-width: 1.5"/>
     <use xlink:href="#m93d691a755" x="126.233766" y="171.065963" style="fill: #1a6b5c; stroke: #ffffff; stroke-width: 1.5"/>
     <use xlink:href="#m93d691a755" x="147.116883" y="181.782993" style="fill: #1a6b5c; stroke: #ffffff; stroke-width: 1.5"/>
     <use xlink:href="#m93d691a755" x="168" y="215.696467" style="fill: #1a6b5c; stroke: #ffffff; stroke-width: 1.5"/>
     <use xlink:href="#m93d691a755" x="188.883117" y="241.32266" style="fill: #1a6b5c; stroke: #ffffff; stroke-width: 1.5"/>
     <use xlink:href="#m93d691a755" x="209.766234" y="226.196381" style="fill: #1a6b5c; stroke: #ffffff; stroke-width: 1.5"/>
     <use xlink:href="#m93d691a755" x="230.649351" y="217.19318" style="fill: #1a6b5c; stroke: #ffffff; stroke-width: 1.5"/>
     <use xlink:href="#m93d691a755" x="251.532468" y="188.362199" style="fill: #1a6b5c; stroke: #ffffff; stroke-width: 1.5"/>
     <use xlink:href="#m93d691a755" x="272.415584" y="152.003357" style="fill: #1a6b5c; stroke: #ffffff; stroke-width: 1.5"/>
     <use xlink:href="#m93d691a755" x="293.298701" y="155.369563" style="fill: #1a6b5c; stroke: #ffffff; stroke-width: 1.5"/>
     <use xlink:href="#m93d691a755" x="314.181818" y="149.176486" style="fill: #1a6b5c; stroke: #ffffff; stroke-width: 1.5"/>
    </g>
   </g>
  </g>
  <g id="axes_2">
   <g id="patch_7">
    <path d="M 339.6 290.16 
L 661.2 290.16 
L 661.2 76.902 
L 339.6 76.902 
L 339.6 290.16 
z
" style="fill: none; opacity: 0.3"/>
   </g>
   <g id="matplotlib.axis_3"/>
   <g id="matplotlib.axis_4"/>
   <g id="line2d_2">
    <path d="M 354.218182 183.531 
L 357.17135 179.227445 
L 360.124518 174.951976 
L 363.077686 170.732498 
L 366.030854 166.596548 
L 368.984022 162.571118 
L 371.93719 158.682481 
L 374.890358 154.956015 
L 377.843526 151.416041 
L 380.796694 148.085662 
L 383.749862 144.986613 
L 386.70303 142.139119 
L 389.656198 139.561766 
L 392.609366 137.271372 
L 395.562534 135.282888 
L 398.515702 133.609289 
L 401.468871 132.2615 
L 404.422039 131.248315 
L 407.375207 130.576348 
L 410.328375 130.249983 
L 413.281543 130.271351 
L 416.234711 130.640313 
L 419.187879 131.35446 
L 422.141047 132.409132 
L 425.094215 133.797446 
L 428.047383 135.510339 
L 431.000551 137.536635 
L 433.953719 139.863108 
L 436.906887 142.474575 
L 439.860055 145.353992 
L 442.813223 148.482568 
L 445.766391 151.839883 
L 448.719559 155.404027 
L 451.672727 159.151739 
L 454.625895 163.058559 
L 457.579063 167.09899 
L 460.532231 171.246664 
L 463.485399 175.474509 
L 466.438567 179.754935 
L 469.391736 184.060004 
L 472.344904 188.361621 
L 475.298072 192.631712 
L 478.25124 196.842408 
L 481.204408 200.966228 
L 484.157576 204.976259 
L 487.110744 208.84633 
L 490.063912 212.551183 
L 493.01708 216.066639 
L 495.970248 219.369755 
L 498.923416 222.438972 
L 501.876584 225.254261 
L 504.829752 227.797248 
L 507.78292 230.051336 
L 510.736088 232.001813 
L 513.689256 233.635951 
L 516.642424 234.943085 
L 519.595592 235.914683 
L 522.54876 236.544404 
L 525.501928 236.828139 
L 528.455096 236.764036 
L 531.408264 236.352514 
L 534.361433 235.596257 
L 537.314601 234.500202 
L 540.267769 233.071502 
L 543.220937 231.319481 
L 546.174105 229.255574 
L 549.127273 226.89325 
L 552.080441 224.247927 
L 555.033609 221.336869 
L 557.986777 218.179076 
L 560.939945 214.795155 
L 563.893113 211.207192 
L 566.846281 207.438604 
L 569.799449 203.513985 
L 572.752617 199.458949 
L 575.705785 195.299961 
L 578.658953 191.064165 
L 581.612121 186.779204 
L 584.565289 182.473043 
L 587.518457 178.173788 
L 590.471625 173.909496 
L 593.424793 169.707997 
L 596.377961 165.596713 
L 599.331129 161.602475 
L 602.284298 157.751351 
L 605.237466 154.068476 
L 608.190634 150.577884 
L 611.143802 147.302358 
L 614.09697 144.263273 
L 617.050138 141.480466 
L 620.003306 138.972097 
L 622.956474 136.754536 
L 625.909642 134.842258 
L 628.86281 133.247741 
L 631.815978 131.981392 
L 634.769146 131.051477 
L 637.722314 130.464063 
L 640.675482 130.222985 
L 643.62865 130.329817 
L 646.581818 130.78386 
" clip-path="url(#p69a92ee2ac)" style="fill: none; stroke: #1a6b5c; stroke-width: 3; stroke-linecap: round"/>
   </g>
   <g id="patch_8">
    <path d="M 339.6 290.16 
L 339.6 76.902 
" style="fill: none; stroke: #cccccc; stroke-linejoin: miter; stroke-linecap: square"/>
   </g>
   <g id="patch_9">
    <path d="M 661.2 290.16 
L 661.2 76.902 
" style="fill: none; stroke: #cccccc; stroke-linejoin: miter; stroke-linecap: square"/>
   </g>
   <g id="patch_10">
    <path d="M 339.6 290.16 
L 661.2 290.16 
" style="fill: none; stroke: #cccccc; stroke-linejoin: miter; stroke-linecap: square"/>
   </g>
   <g id="patch_11">
    <path d="M 339.6 76.902 
L 661.2 76.902 
" style="fill: none; stroke: #cccccc; stroke-linejoin: miter; stroke-linecap: square"/>
   </g>
   <g id="text_2">
    <!-- Good Fit -->
    <g style="fill: #1a6b5c" transform="translate(473.688047 70.902) scale(0.13 -0.13)">
     <defs>
      <path id="Arial-BoldMT-47" d="M 2597 1684 
L 2597 2456 
L 4591 2456 
L 4591 631 
Q 4300 350 3748 136 
Q 3197 -78 2631 -78 
Q 1913 -78 1378 223 
Q 844 525 575 1086 
Q 306 1647 306 2306 
Q 306 3022 606 3578 
Q 906 4134 1484 4431 
Q 1925 4659 2581 4659 
Q 3434 4659 3914 4301 
Q 4394 3944 4531 3313 
L 3613 3141 
Q 3516 3478 3248 3673 
Q 2981 3869 2581 3869 
Q 1975 3869 1617 3484 
Q 1259 3100 1259 2344 
Q 1259 1528 1621 1120 
Q 1984 713 2572 713 
Q 2863 713 3155 827 
Q 3447 941 3656 1103 
L 3656 1684 
L 2597 1684 
z
" transform="scale(0.015625)"/>
      <path id="Arial-BoldMT-6f" d="M 256 1706 
Q 256 2144 472 2553 
Q 688 2963 1083 3178 
Q 1478 3394 1966 3394 
Q 2719 3394 3200 2905 
Q 3681 2416 3681 1669 
Q 3681 916 3195 420 
Q 2709 -75 1972 -75 
Q 1516 -75 1102 131 
Q 688 338 472 736 
Q 256 1134 256 1706 
z
M 1156 1659 
Q 1156 1166 1390 903 
Q 1625 641 1969 641 
Q 2313 641 2545 903 
Q 2778 1166 2778 1666 
Q 2778 2153 2545 2415 
Q 2313 2678 1969 2678 
Q 1625 2678 1390 2415 
Q 1156 2153 1156 1659 
z
" transform="scale(0.015625)"/>
      <path id="Arial-BoldMT-46" d="M 472 0 
L 472 4581 
L 3613 4581 
L 3613 3806 
L 1397 3806 
L 1397 2722 
L 3309 2722 
L 3309 1947 
L 1397 1947 
L 1397 0 
L 472 0 
z
" transform="scale(0.015625)"/>
     </defs>
     <use xlink:href="#Arial-BoldMT-47"/>
     <use xlink:href="#Arial-BoldMT-6f" transform="translate(77.783203 0)"/>
     <use xlink:href="#Arial-BoldMT-6f" transform="translate(138.867188 0)"/>
     <use xlink:href="#Arial-BoldMT-64" transform="translate(199.951172 0)"/>
     <use xlink:href="#Arial-BoldMT-20" transform="translate(261.035156 0)"/>
     <use xlink:href="#Arial-BoldMT-46" transform="translate(288.818359 0)"/>
     <use xlink:href="#Arial-BoldMT-69" transform="translate(349.902344 0)"/>
     <use xlink:href="#Arial-BoldMT-74" transform="translate(377.685547 0)"/>
    </g>
   </g>
   <g id="PathCollection_2">
    <g clip-path="url(#p69a92ee2ac)">
     <use xlink:href="#m93d691a755" x="354.218182" y="178.234587" style="fill: #1a6b5c; stroke: #ffffff; stroke-width: 1.5"/>
     <use xlink:href="#m93d691a755" x="375.101299" y="156.170993" style="fill: #1a6b5c; stroke: #ffffff; stroke-width: 1.5"/>
     <use xlink:href="#m93d691a755" x="395.984416" y="128.118008" style="fill: #1a6b5c; stroke: #ffffff; stroke-width: 1.5"/>
     <use xlink:href="#m93d691a755" x="416.867532" y="114.524495" style="fill: #1a6b5c; stroke: #ffffff; stroke-width: 1.5"/>
     <use xlink:href="#m93d691a755" x="437.750649" y="145.767468" style="fill: #1a6b5c; stroke: #ffffff; stroke-width: 1.5"/>
     <use xlink:href="#m93d691a755" x="458.633766" y="171.065963" style="fill: #1a6b5c; stroke: #ffffff; stroke-width: 1.5"/>
     <use xlink:href="#m93d691a755" x="479.516883" y="181.782993" style="fill: #1a6b5c; stroke: #ffffff; stroke-width: 1.5"/>
     <use xlink:href="#m93d691a755" x="500.4" y="215.696467" style="fill: #1a6b5c; stroke: #ffffff; stroke-width: 1.5"/>
     <use xlink:href="#m93d691a755" x="521.283117" y="241.32266" style="fill: #1a6b5c; stroke: #ffffff; stroke-width: 1.5"/>
     <use xlink:href="#m93d691a755" x="542.166234" y="226.196381" style="fill: #1a6b5c; stroke: #ffffff; stroke-width: 1.5"/>
     <use xlink:href="#m93d691a755" x="563.049351" y="217.19318" style="fill: #1a6b5c; stroke: #ffffff; stroke-width: 1.5"/>
     <use xlink:href="#m93d691a755" x="583.932468" y="188.362199" style="fill: #1a6b5c; stroke: #ffffff; stroke-width: 1.5"/>
     <use xlink:href="#m93d691a755" x="604.815584" y="152.003357" style="fill: #1a6b5c; stroke: #ffffff; stroke-width: 1.5"/>
     <use xlink:href="#m93d691a755" x="625.698701" y="155.369563" style="fill: #1a6b5c; stroke: #ffffff; stroke-width: 1.5"/>
     <use xlink:href="#m93d691a755" x="646.581818" y="149.176486" style="fill: #1a6b5c; stroke: #ffffff; stroke-width: 1.5"/>
    </g>
   </g>
  </g>
  <g id="axes_3">
   <g id="patch_12">
    <path d="M 672 290.16 
L 993.6 290.16 
L 993.6 76.902 
L 672 76.902 
L 672 290.16 
z
" style="fill: none"/>
   </g>
   <g id="matplotlib.axis_5"/>
   <g id="matplotlib.axis_6"/>
   <g id="line2d_3">
    <path d="M 686.618182 178.241634 
L 689.57135 115.160355 
L 692.524518 94.17928 
L 695.477686 96.97763 
L 698.430854 111.064846 
L 701.384022 128.349853 
L 704.33719 143.987348 
L 707.290358 155.45865 
L 710.243526 161.849728 
L 713.196694 163.293666 
L 716.149862 160.549016 
L 719.10303 154.689275 
L 722.056198 146.882145 
L 725.009366 138.240291 
L 727.962534 129.728058 
L 730.915702 122.111033 
L 733.868871 115.937526 
L 736.822039 111.542921 
L 739.775207 109.069532 
L 742.728375 108.49606 
L 745.681543 109.672011 
L 748.634711 112.353488 
L 751.587879 116.237741 
L 754.541047 120.994587 
L 757.494215 126.29349 
L 760.447383 131.8256 
L 763.400551 137.32049 
L 766.353719 142.557638 
L 769.306887 147.372994 
L 772.260055 151.66111 
L 775.213223 155.37347 
L 778.166391 158.513701 
L 781.119559 161.130408 
L 784.072727 163.308332 
L 787.025895 165.158536 
L 789.979063 166.80823 
L 792.932231 168.390811 
L 795.885399 170.036581 
L 798.838567 171.864539 
L 801.791736 173.975527 
L 804.744904 176.446944 
L 807.698072 179.329132 
L 810.65124 182.643459 
L 813.604408 186.382061 
L 816.557576 190.509116 
L 819.510744 194.963492 
L 822.463912 199.662538 
L 825.41708 204.506782 
L 828.370248 209.385255 
L 831.323416 214.181159 
L 834.276584 218.777598 
L 837.229752 223.063107 
L 840.18292 226.936716 
L 843.136088 230.31233 
L 846.089256 233.122251 
L 849.042424 235.319683 
L 851.995592 236.880133 
L 854.94876 237.801652 
L 857.901928 238.103933 
L 860.855096 237.82631 
L 863.808264 237.024762 
L 866.761433 235.768084 
L 869.714601 234.133395 
L 872.667769 232.201233 
L 875.620937 230.050466 
L 878.574105 227.753305 
L 881.527273 225.370691 
L 884.480441 222.948329 
L 887.433609 220.513635 
L 890.386777 218.073825 
L 893.339945 215.615354 
L 896.293113 213.104829 
L 899.246281 210.491502 
L 902.199449 207.711349 
L 905.152617 204.692646 
L 908.105785 201.362907 
L 911.058953 197.65691 
L 914.012121 193.525447 
L 916.965289 188.944351 
L 919.918457 183.923229 
L 922.871625 178.513251 
L 925.824793 172.81326 
L 928.777961 166.973395 
L 931.731129 161.195381 
L 934.684298 155.728624 
L 937.637466 150.861248 
L 940.590634 146.905291 
L 943.543802 144.175363 
L 946.49697 142.960262 
L 949.450138 143.487241 
L 952.403306 145.878985 
L 955.356474 150.1037 
L 958.309642 155.919293 
L 961.26281 162.813175 
L 964.215978 169.940034 
L 967.169146 176.060781 
L 970.122314 179.486948 
L 973.075482 178.036042 
L 976.02865 169.004809 
L 978.981818 149.168964 
" clip-path="url(#p3a6324ca28)" style="fill: none; stroke: #8c2448; stroke-width: 3; stroke-linecap: round"/>
   </g>
   <g id="patch_13">
    <path d="M 672 290.16 
L 672 76.902 
" style="fill: none; stroke: #cccccc; stroke-linejoin: miter; stroke-linecap: square"/>
   </g>
   <g id="patch_14">
    <path d="M 993.6 290.16 
L 993.6 76.902 
" style="fill: none; stroke: #cccccc; stroke-linejoin: miter; stroke-linecap: square"/>
   </g>
   <g id="patch_15">
    <path d="M 672 290.16 
L 993.6 290.16 
" style="fill: none; stroke: #cccccc; stroke-linejoin: miter; stroke-linecap: square"/>
   </g>
   <g id="patch_16">
    <path d="M 672 76.902 
L 993.6 76.902 
" style="fill: none; stroke: #cccccc; stroke-linejoin: miter; stroke-linecap: square"/>
   </g>
   <g id="text_3">
    <!-- Overfitting -->
    <g style="fill: #8c2448" transform="translate(799.940469 56.809594) scale(0.13 -0.13)">
     <defs>
      <path id="Arial-BoldMT-4f" d="M 278 2263 
Q 278 2963 488 3438 
Q 644 3788 914 4066 
Q 1184 4344 1506 4478 
Q 1934 4659 2494 4659 
Q 3506 4659 4114 4031 
Q 4722 3403 4722 2284 
Q 4722 1175 4119 548 
Q 3516 -78 2506 -78 
Q 1484 -78 881 545 
Q 278 1169 278 2263 
z
M 1231 2294 
Q 1231 1516 1590 1114 
Q 1950 713 2503 713 
Q 3056 713 3411 1111 
Q 3766 1509 3766 2306 
Q 3766 3094 3420 3481 
Q 3075 3869 2503 3869 
Q 1931 3869 1581 3476 
Q 1231 3084 1231 2294 
z
" transform="scale(0.015625)"/>
      <path id="Arial-BoldMT-76" d="M 1372 0 
L 34 3319 
L 956 3319 
L 1581 1625 
L 1763 1059 
Q 1834 1275 1853 1344 
Q 1897 1484 1947 1625 
L 2578 3319 
L 3481 3319 
L 2163 0 
L 1372 0 
z
" transform="scale(0.015625)"/>
     </defs>
     <use xlink:href="#Arial-BoldMT-4f"/>
     <use xlink:href="#Arial-BoldMT-76" transform="translate(77.783203 0)"/>
     <use xlink:href="#Arial-BoldMT-65" transform="translate(133.398438 0)"/>
     <use xlink:href="#Arial-BoldMT-72" transform="translate(189.013672 0)"/>
     <use xlink:href="#Arial-BoldMT-66" transform="translate(227.929688 0)"/>
     <use xlink:href="#Arial-BoldMT-69" transform="translate(261.230469 0)"/>
     <use xlink:href="#Arial-BoldMT-74" transform="translate(289.013672 0)"/>
     <use xlink:href="#Arial-BoldMT-74" transform="translate(322.314453 0)"/>
     <use xlink:href="#Arial-BoldMT-69" transform="translate(355.615234 0)"/>
     <use xlink:href="#Arial-BoldMT-6e" transform="translate(383.398438 0)"/>
     <use xlink:href="#Arial-BoldMT-67" transform="translate(444.482422 0)"/>
    </g>
    <!-- (High Variance) -->
    <g style="fill: #8c2448" transform="translate(785.483047 70.902) scale(0.13 -0.13)">
     <defs>
      <path id="Arial-BoldMT-56" d="M 1634 0 
L -3 4581 
L 1000 4581 
L 2159 1191 
L 3281 4581 
L 4263 4581 
L 2622 0 
L 1634 0 
z
" transform="scale(0.015625)"/>
      <path id="Arial-BoldMT-63" d="M 3353 2338 
L 2488 2181 
Q 2444 2441 2289 2572 
Q 2134 2703 1888 2703 
Q 1559 2703 1364 2476 
Q 1169 2250 1169 1719 
Q 1169 1128 1367 884 
Q 1566 641 1900 641 
Q 2150 641 2309 783 
Q 2469 925 2534 1272 
L 3397 1125 
Q 3263 531 2881 228 
Q 2500 -75 1859 -75 
Q 1131 -75 698 384 
Q 266 844 266 1656 
Q 266 2478 700 2936 
Q 1134 3394 1875 3394 
Q 2481 3394 2839 3133 
Q 3197 2872 3353 2338 
z
" transform="scale(0.015625)"/>
     </defs>
     <use xlink:href="#Arial-BoldMT-28"/>
     <use xlink:href="#Arial-BoldMT-48" transform="translate(33.300781 0)"/>
     <use xlink:href="#Arial-BoldMT-69" transform="translate(105.517578 0)"/>
     <use xlink:href="#Arial-BoldMT-67" transform="translate(133.300781 0)"/>
     <use xlink:href="#Arial-BoldMT-68" transform="translate(194.384766 0)"/>
     <use xlink:href="#Arial-BoldMT-20" transform="translate(255.46875 0)"/>
     <use xlink:href="#Arial-BoldMT-56" transform="translate(283.251953 0)"/>
     <use xlink:href="#Arial-BoldMT-61" transform="translate(344.451172 0)"/>
     <use xlink:href="#Arial-BoldMT-72" transform="translate(400.066406 0)"/>
     <use xlink:href="#Arial-BoldMT-69" transform="translate(438.982422 0)"/>
     <use xlink:href="#Arial-BoldMT-61" transform="translate(466.765625 0)"/>
     <use xlink:href="#Arial-BoldMT-6e" transform="translate(522.380859 0)"/>
     <use xlink:href="#Arial-BoldMT-63" transform="translate(583.464844 0)"/>
     <use xlink:href="#Arial-BoldMT-65" transform="translate(639.080078 0)"/>
     <use xlink:href="#Arial-BoldMT-29" transform="translate(694.695312 0)"/>
    </g>
   </g>
   <g id="PathCollection_3">
    <g clip-path="url(#p3a6324ca28)">
     <use xlink:href="#m93d691a755" x="686.618182" y="178.234587" style="fill: #1a6b5c; stroke: #ffffff; stroke-width: 1.5"/>
     <use xlink:href="#m93d691a755" x="707.501299" y="156.170993" style="fill: #1a6b5c; stroke: #ffffff; stroke-width: 1.5"/>
     <use xlink:href="#m93d691a755" x="728.384416" y="128.118008" style="fill: #1a6b5c; stroke: #ffffff; stroke-width: 1.5"/>
     <use xlink:href="#m93d691a755" x="749.267532" y="114.524495" style="fill: #1a6b5c; stroke: #ffffff; stroke-width: 1.5"/>
     <use xlink:href="#m93d691a755" x="770.150649" y="145.767468" style="fill: #1a6b5c; stroke: #ffffff; stroke-width: 1.5"/>
     <use xlink:href="#m93d691a755" x="791.033766" y="171.065963" style="fill: #1a6b5c; stroke: #ffffff; stroke-width: 1.5"/>
     <use xlink:href="#m93d691a755" x="811.916883" y="181.782993" style="fill: #1a6b5c; stroke: #ffffff; stroke-width: 1.5"/>
     <use xlink:href="#m93d691a755" x="832.8" y="215.696467" style="fill: #1a6b5c; stroke: #ffffff; stroke-width: 1.5"/>
     <use xlink:href="#m93d691a755" x="853.683117" y="241.32266" style="fill: #1a6b5c; stroke: #ffffff; stroke-width: 1.5"/>
     <use xlink:href="#m93d691a755" x="874.566234" y="226.196381" style="fill: #1a6b5c; stroke: #ffffff; stroke-width: 1.5"/>
     <use xlink:href="#m93d691a755" x="895.449351" y="217.19318" style="fill: #1a6b5c; stroke: #ffffff; stroke-width: 1.5"/>
     <use xlink:href="#m93d691a755" x="916.332468" y="188.362199" style="fill: #1a6b5c; stroke: #ffffff; stroke-width: 1.5"/>
     <use xlink:href="#m93d691a755" x="937.215584" y="152.003357" style="fill: #1a6b5c; stroke: #ffffff; stroke-width: 1.5"/>
     <use xlink:href="#m93d691a755" x="958.098701" y="155.369563" style="fill: #1a6b5c; stroke: #ffffff; stroke-width: 1.5"/>
     <use xlink:href="#m93d691a755" x="978.981818" y="149.176486" style="fill: #1a6b5c; stroke: #ffffff; stroke-width: 1.5"/>
    </g>
   </g>
  </g>
  <g id="text_4">
   <!-- Model Complexity Comparison -->
   <g style="fill: #262626" transform="translate(397.726406 17.391562) scale(0.14 -0.14)">
    <defs>
     <path id="Arial-BoldMT-4d" d="M 453 0 
L 453 4581 
L 1838 4581 
L 2669 1456 
L 3491 4581 
L 4878 4581 
L 4878 0 
L 4019 0 
L 4019 3606 
L 3109 0 
L 2219 0 
L 1313 3606 
L 1313 0 
L 453 0 
z
" transform="scale(0.015625)"/>
     <path id="Arial-BoldMT-6c" d="M 459 0 
L 459 4581 
L 1338 4581 
L 1338 0 
L 459 0 
z
" transform="scale(0.015625)"/>
     <path id="Arial-BoldMT-43" d="M 3397 1684 
L 4294 1400 
Q 4088 650 3608 286 
Q 3128 -78 2391 -78 
Q 1478 -78 890 545 
Q 303 1169 303 2250 
Q 303 3394 893 4026 
Q 1484 4659 2447 4659 
Q 3288 4659 3813 4163 
Q 4125 3869 4281 3319 
L 3366 3100 
Q 3284 3456 3026 3662 
Q 2769 3869 2400 3869 
Q 1891 3869 1573 3503 
Q 1256 3138 1256 2319 
Q 1256 1450 1568 1081 
Q 1881 713 2381 713 
Q 2750 713 3015 947 
Q 3281 1181 3397 1684 
z
" transform="scale(0.015625)"/>
     <path id="Arial-BoldMT-6d" d="M 394 3319 
L 1203 3319 
L 1203 2866 
Q 1638 3394 2238 3394 
Q 2556 3394 2790 3262 
Q 3025 3131 3175 2866 
Q 3394 3131 3647 3262 
Q 3900 3394 4188 3394 
Q 4553 3394 4806 3245 
Q 5059 3097 5184 2809 
Q 5275 2597 5275 2122 
L 5275 0 
L 4397 0 
L 4397 1897 
Q 4397 2391 4306 2534 
Q 4184 2722 3931 2722 
Q 3747 2722 3584 2609 
Q 3422 2497 3350 2280 
Q 3278 2063 3278 1594 
L 3278 0 
L 2400 0 
L 2400 1819 
Q 2400 2303 2353 2443 
Q 2306 2584 2207 2653 
Q 2109 2722 1941 2722 
Q 1738 2722 1575 2612 
Q 1413 2503 1342 2297 
Q 1272 2091 1272 1613 
L 1272 0 
L 394 0 
L 394 3319 
z
" transform="scale(0.015625)"/>
     <path id="Arial-BoldMT-70" d="M 434 3319 
L 1253 3319 
L 1253 2831 
Q 1413 3081 1684 3237 
Q 1956 3394 2288 3394 
Q 2866 3394 3269 2941 
Q 3672 2488 3672 1678 
Q 3672 847 3265 386 
Q 2859 -75 2281 -75 
Q 2006 -75 1782 34 
Q 1559 144 1313 409 
L 1313 -1263 
L 434 -1263 
L 434 3319 
z
M 1303 1716 
Q 1303 1156 1525 889 
Q 1747 622 2066 622 
Q 2372 622 2575 867 
Q 2778 1113 2778 1672 
Q 2778 2194 2568 2447 
Q 2359 2700 2050 2700 
Q 1728 2700 1515 2451 
Q 1303 2203 1303 1716 
z
" transform="scale(0.015625)"/>
     <path id="Arial-BoldMT-78" d="M 38 0 
L 1234 1709 
L 88 3319 
L 1159 3319 
L 1747 2406 
L 2366 3319 
L 3397 3319 
L 2272 1747 
L 3500 0 
L 2422 0 
L 1747 1028 
L 1066 0 
L 38 0 
z
" transform="scale(0.015625)"/>
     <path id="Arial-BoldMT-79" d="M 44 3319 
L 978 3319 
L 1772 963 
L 2547 3319 
L 3456 3319 
L 2284 125 
L 2075 -453 
Q 1959 -744 1854 -897 
Q 1750 -1050 1614 -1145 
Q 1478 -1241 1279 -1294 
Q 1081 -1347 831 -1347 
Q 578 -1347 334 -1294 
L 256 -606 
Q 463 -647 628 -647 
Q 934 -647 1081 -467 
Q 1228 -288 1306 -9 
L 44 3319 
z
" transform="scale(0.015625)"/>
    </defs>
    <use xlink:href="#Arial-BoldMT-4d"/>
    <use xlink:href="#Arial-BoldMT-6f" transform="translate(83.300781 0)"/>
    <use xlink:href="#Arial-BoldMT-64" transform="translate(144.384766 0)"/>
    <use xlink:href="#Arial-BoldMT-65" transform="translate(205.46875 0)"/>
    <use xlink:href="#Arial-BoldMT-6c" transform="translate(261.083984 0)"/>
    <use xlink:href="#Arial-BoldMT-20" transform="translate(288.867188 0)"/>
    <use xlink:href="#Arial-BoldMT-43" transform="translate(316.650391 0)"/>
    <use xlink:href="#Arial-BoldMT-6f" transform="translate(388.867188 0)"/>
    <use xlink:href="#Arial-BoldMT-6d" transform="translate(449.951172 0)"/>
    <use xlink:href="#Arial-BoldMT-70" transform="translate(538.867188 0)"/>
    <use xlink:href="#Arial-BoldMT-6c" transform="translate(599.951172 0)"/>
    <use xlink:href="#Arial-BoldMT-65" transform="translate(627.734375 0)"/>
    <use xlink:href="#Arial-BoldMT-78" transform="translate(683.349609 0)"/>
    <use xlink:href="#Arial-BoldMT-69" transform="translate(738.964844 0)"/>
    <use xlink:href="#Arial-BoldMT-74" transform="translate(766.748047 0)"/>
    <use xlink:href="#Arial-BoldMT-79" transform="translate(800.048828 0)"/>
    <use xlink:href="#Arial-BoldMT-20" transform="translate(855.664062 0)"/>
    <use xlink:href="#Arial-BoldMT-43" transform="translate(883.447266 0)"/>
    <use xlink:href="#Arial-BoldMT-6f" transform="translate(955.664062 0)"/>
    <use xlink:href="#Arial-BoldMT-6d" transform="translate(1016.748047 0)"/>
    <use xlink:href="#Arial-BoldMT-70" transform="translate(1105.664062 0)"/>
    <use xlink:href="#Arial-BoldMT-61" transform="translate(1166.748047 0)"/>
    <use xlink:href="#Arial-BoldMT-72" transform="translate(1222.363281 0)"/>
    <use xlink:href="#Arial-BoldMT-69" transform="translate(1261.279297 0)"/>
    <use xlink:href="#Arial-BoldMT-73" transform="translate(1289.0625 0)"/>
    <use xlink:href="#Arial-BoldMT-6f" transform="translate(1344.677734 0)"/>
    <use xlink:href="#Arial-BoldMT-6e" transform="translate(1405.761719 0)"/>
   </g>
  </g>
 </g>
 <defs>
  <clipPath id="pa45da2a6ea">
   <rect x="7.2" y="76.902" width="321.6" height="213.258"/>
  </clipPath>
  <clipPath id="p69a92ee2ac">
   <rect x="339.6" y="76.902" width="321.6" height="213.258"/>
  </clipPath>
  <clipPath id="p3a6324ca28">
   <rect x="672" y="76.902" width="321.6" height="213.258"/>
  </clipPath>
 </defs>
</svg>
